{
  "canvas_config": {
    "background": null,
    "height": 1080,
    "ratio": "original",
    "width": 1920
  },
  "color_space": 0,
  "draft_type": "video",
  "duration": 763360000,
  "fps": 30.0,
  "id": "A31BCBEE-C65A-473F-BF86-6E588B16D8EE",
  "materials": {
    "texts": [
      {
        "id": "A8C67211-832B-4B83-A5AF-A122BB2B4B99",
        "words": "想像してみてください。",
        "font_family": "",
        "font_size": 5.0,
        "font_color": "#FFFFFF",
        "alignment": 0,
        "bold_width": 0.0,
        "italic": false,
        "underline": false,
        "background_color": "",
        "background_alpha": 1.0,
        "border_color": "#000000",
        "border_width": 2.0,
        "shadow": true,
        "shadow_color": "#000000",
        "shadow_offset_x": 1.0,
        "shadow_offset_y": 1.0
      },
      {
        "id": "90349C75-3488-43B9-9D17-DE77B1A63005",
        "words": "彼らにはもう一つの、",
        "font_family": "",
        "font_size": 5.0,
        "font_color": "#FFFFFF",
        "alignment": 0,
        "bold_width": 0.0,
        "italic": false,
        "underline": false,
        "background_color": "",
        "background_alpha": 1.0,
        "border_color": "#000000",
        "border_width": 2.0,
        "shadow": true,
        "shadow_color": "#000000",
        "shadow_offset_x": 1.0,
        "shadow_offset_y": 1.0
      },
      {
        "id": "FACCB5C7-6D49-488A-B1CC-494C08D562FE",
        "words": "開けても開けても終わらない段ボール箱。",
        "font_family": "",
        "font_size": 5.0,
        "font_color": "#FFFFFF",
        "alignment": 0,
        "bold_width": 0.0,
        "italic": false,
        "underline": false,
        "background_color": "",
        "background_alpha": 1.0,
        "border_color": "#000000",
        "border_width": 2.0,
        "shadow": true,
        "shadow_color": "#000000",
        "shadow_offset_x": 1.0,
        "shadow_offset_y": 1.0
      },
      {
        "id": "ED959195-AFC3-4F86-9B06-D1394EADB56C",
        "words": "それを一つひとつ仕分けし、",
        "font_family": "",
        "font_size": 5.0,
        "font_color": "#FFFFFF",
        "alignment": 0,
        "bold_width": 0.0,
        "italic": false,
        "underline": false,
        "background_color": "",
        "background_alpha": 1.0,
        "border_color": "#000000",
        "border_width": 2.0,
        "shadow": true,
        "shadow_color": "#000000",
        "shadow_offset_x": 1.0,
        "shadow_offset_y": 1.0
      },
      {
        "id": "F68761C4-25B1-4ED5-AED5-DC518A830CBA",
        "words": "そして心のエネルギーを奪い去るか、",
        "font_family": "",
        "font_size": 5.0,
        "font_color": "#FFFFFF",
        "alignment": 0,
        "bold_width": 0.0,
        "italic": false,
        "underline": false,
        "background_color": "",
        "background_alpha": 1.0,
        "border_color": "#000000",
        "border_width": 2.0,
        "shadow": true,
        "shadow_color": "#000000",
        "shadow_offset_x": 1.0,
        "shadow_offset_y": 1.0
      },
      {
        "id": "68FA41BC-ED0F-4AD8-86B5-9C7EDEF093FE",
        "words": "これは現代の日本で、",
        "font_family": "",
        "font_size": 5.0,
        "font_color": "#FFFFFF",
        "alignment": 0,
        "bold_width": 0.0,
        "italic": false,
        "underline": false,
        "background_color": "",
        "background_alpha": 1.0,
        "border_color": "#000000",
        "border_width": 2.0,
        "shadow": true,
        "shadow_color": "#000000",
        "shadow_offset_x": 1.0,
        "shadow_offset_y": 1.0
      },
      {
        "id": "9EE3C759-BF46-45B0-AAEF-4FCC938063A4",
        "words": "そして面倒でもあなたが元気なうちに絶対に手放して\nおくべきモノのリストを、",
        "font_family": "",
        "font_size": 5.0,
        "font_color": "#FFFFFF",
        "alignment": 0,
        "bold_width": 0.0,
        "italic": false,
        "underline": false,
        "background_color": "",
        "background_alpha": 1.0,
        "border_color": "#000000",
        "border_width": 2.0,
        "shadow": true,
        "shadow_color": "#000000",
        "shadow_offset_x": 1.0,
        "shadow_offset_y": 1.0
      },
      {
        "id": "B318AEAC-0FDC-415D-8D0C-D60BC8BC1524",
        "words": "家族へ贈ることができる最も思いやりに満ちた「愛情\n表現」の話です。",
        "font_family": "",
        "font_size": 5.0,
        "font_color": "#FFFFFF",
        "alignment": 0,
        "bold_width": 0.0,
        "italic": false,
        "underline": false,
        "background_color": "",
        "background_alpha": 1.0,
        "border_color": "#000000",
        "border_width": 2.0,
        "shadow": true,
        "shadow_color": "#000000",
        "shadow_offset_x": 1.0,
        "shadow_offset_y": 1.0
      },
      {
        "id": "1EDE0DFD-59B9-4A0A-8467-7FE4FE52CF80",
        "words": "あなたが長年情熱を注いで集めてきた、",
        "font_family": "",
        "font_size": 5.0,
        "font_color": "#FFFFFF",
        "alignment": 0,
        "bold_width": 0.0,
        "italic": false,
        "underline": false,
        "background_color": "",
        "background_alpha": 1.0,
        "border_color": "#000000",
        "border_width": 2.0,
        "shadow": true,
        "shadow_color": "#000000",
        "shadow_offset_x": 1.0,
        "shadow_offset_y": 1.0
      },
      {
        "id": "1D8D3E73-960E-4E82-94CC-75858CF13C5B",
        "words": "旅先で集めた民芸品の数々。",
        "font_family": "",
        "font_size": 5.0,
        "font_color": "#FFFFFF",
        "alignment": 0,
        "bold_width": 0.0,
        "italic": false,
        "underline": false,
        "background_color": "",
        "background_alpha": 1.0,
        "border_color": "#000000",
        "border_width": 2.0,
        "shadow": true,
        "shadow_color": "#000000",
        "shadow_offset_x": 1.0,
        "shadow_offset_y": 1.0
      },
      {
        "id": "7A3EF666-3214-4ADC-B63C-EB9FCCB8E7A0",
        "words": "あなたが亡き後、",
        "font_family": "",
        "font_size": 5.0,
        "font_color": "#FFFFFF",
        "alignment": 0,
        "bold_width": 0.0,
        "italic": false,
        "underline": false,
        "background_color": "",
        "background_alpha": 1.0,
        "border_color": "#000000",
        "border_width": 2.0,
        "shadow": true,
        "shadow_color": "#000000",
        "shadow_offset_x": 1.0,
        "shadow_offset_y": 1.0
      },
      {
        "id": "34C24DA6-F20A-4595-9B04-4402A310D050",
        "words": "家族にとっては、",
        "font_family": "",
        "font_size": 5.0,
        "font_color": "#FFFFFF",
        "alignment": 0,
        "bold_width": 0.0,
        "italic": false,
        "underline": false,
        "background_color": "",
        "background_alpha": 1.0,
        "border_color": "#000000",
        "border_width": 2.0,
        "shadow": true,
        "shadow_color": "#000000",
        "shadow_offset_x": 1.0,
        "shadow_offset_y": 1.0
      },
      {
        "id": "9F45BAE8-3000-418A-A2A7-292F326AC50B",
        "words": "売るにしてもその価値を調べるのは大変な手間がかか\nります。",
        "font_family": "",
        "font_size": 5.0,
        "font_color": "#FFFFFF",
        "alignment": 0,
        "bold_width": 0.0,
        "italic": false,
        "underline": false,
        "background_color": "",
        "background_alpha": 1.0,
        "border_color": "#000000",
        "border_width": 2.0,
        "shadow": true,
        "shadow_color": "#000000",
        "shadow_offset_x": 1.0,
        "shadow_offset_y": 1.0
      },
      {
        "id": "E1B849D3-3B73-4427-8ACB-4C957D356D87",
        "words": "何十冊にもなった分厚く重いアルバムの山。",
        "font_family": "",
        "font_size": 5.0,
        "font_color": "#FFFFFF",
        "alignment": 0,
        "bold_width": 0.0,
        "italic": false,
        "underline": false,
        "background_color": "",
        "background_alpha": 1.0,
        "border_color": "#000000",
        "border_width": 2.0,
        "shadow": true,
        "shadow_color": "#000000",
        "shadow_offset_x": 1.0,
        "shadow_offset_y": 1.0
      },
      {
        "id": "CA65E66E-A736-4379-8A24-6EB482289496",
        "words": "そして彼らは究極の選択を迫られます。",
        "font_family": "",
        "font_size": 5.0,
        "font_color": "#FFFFFF",
        "alignment": 0,
        "bold_width": 0.0,
        "italic": false,
        "underline": false,
        "background_color": "",
        "background_alpha": 1.0,
        "border_color": "#000000",
        "border_width": 2.0,
        "shadow": true,
        "shadow_color": "#000000",
        "shadow_offset_x": 1.0,
        "shadow_offset_y": 1.0
      },
      {
        "id": "11EC3DFA-68DC-4403-95A9-1601A09DCDB1",
        "words": "どの笑顔を捨てるのか。",
        "font_family": "",
        "font_size": 5.0,
        "font_color": "#FFFFFF",
        "alignment": 0,
        "bold_width": 0.0,
        "italic": false,
        "underline": false,
        "background_color": "",
        "background_alpha": 1.0,
        "border_color": "#000000",
        "border_width": 2.0,
        "shadow": true,
        "shadow_color": "#000000",
        "shadow_offset_x": 1.0,
        "shadow_offset_y": 1.0
      },
      {
        "id": "89DF3796-FC50-4A32-A186-AA28E3A14872",
        "words": "非常に深刻な問題が「デジタル遺品」です。",
        "font_family": "",
        "font_size": 5.0,
        "font_color": "#FFFFFF",
        "alignment": 0,
        "bold_width": 0.0,
        "italic": false,
        "underline": false,
        "background_color": "",
        "background_alpha": 1.0,
        "border_color": "#000000",
        "border_width": 2.0,
        "shadow": true,
        "shadow_color": "#000000",
        "shadow_offset_x": 1.0,
        "shadow_offset_y": 1.0
      },
      {
        "id": "E15EF3C1-5170-4655-AD29-E1AEC84B17E4",
        "words": "重要なデータがたくさん入っています。",
        "font_family": "",
        "font_size": 5.0,
        "font_color": "#FFFFFF",
        "alignment": 0,
        "bold_width": 0.0,
        "italic": false,
        "underline": false,
        "background_color": "",
        "background_alpha": 1.0,
        "border_color": "#000000",
        "border_width": 2.0,
        "shadow": true,
        "shadow_color": "#000000",
        "shadow_offset_x": 1.0,
        "shadow_offset_y": 1.0
      },
      {
        "id": "27465945-9302-4BC1-8A01-59B37A1E8FF0",
        "words": "目の前にある宝箱の鍵が開けられず途方に暮れること\nになります。",
        "font_family": "",
        "font_size": 5.0,
        "font_color": "#FFFFFF",
        "alignment": 0,
        "bold_width": 0.0,
        "italic": false,
        "underline": false,
        "background_color": "",
        "background_alpha": 1.0,
        "border_color": "#000000",
        "border_width": 2.0,
        "shadow": true,
        "shadow_color": "#000000",
        "shadow_offset_x": 1.0,
        "shadow_offset_y": 1.0
      },
      {
        "id": "4899ED77-FDD9-4963-BA32-71BC579010FB",
        "words": "デジタル遺品は現代における新しい形の、",
        "font_family": "",
        "font_size": 5.0,
        "font_color": "#FFFFFF",
        "alignment": 0,
        "bold_width": 0.0,
        "italic": false,
        "underline": false,
        "background_color": "",
        "background_alpha": 1.0,
        "border_color": "#000000",
        "border_width": 2.0,
        "shadow": true,
        "shadow_color": "#000000",
        "shadow_offset_x": 1.0,
        "shadow_offset_y": 1.0
      },
      {
        "id": "6FACD8BD-C7F9-4ACE-9EC5-8CA961571F36",
        "words": "引き出しの奥からどこの銀行のものか分からない古い\n通帳や、",
        "font_family": "",
        "font_size": 5.0,
        "font_color": "#FFFFFF",
        "alignment": 0,
        "bold_width": 0.0,
        "italic": false,
        "underline": false,
        "background_color": "",
        "background_alpha": 1.0,
        "border_color": "#000000",
        "border_width": 2.0,
        "shadow": true,
        "shadow_color": "#000000",
        "shadow_offset_x": 1.0,
        "shadow_offset_y": 1.0
      },
      {
        "id": "2078D29E-6042-4428-8318-4DA3D31775C4",
        "words": "口座が現存するのか、",
        "font_family": "",
        "font_size": 5.0,
        "font_color": "#FFFFFF",
        "alignment": 0,
        "bold_width": 0.0,
        "italic": false,
        "underline": false,
        "background_color": "",
        "background_alpha": 1.0,
        "border_color": "#000000",
        "border_width": 2.0,
        "shadow": true,
        "shadow_color": "#000000",
        "shadow_offset_x": 1.0,
        "shadow_offset_y": 1.0
      },
      {
        "id": "02017F80-3ABE-489E-BDF2-07CDDFFABC1A",
        "words": "あなたのささやかなへそくりが、",
        "font_family": "",
        "font_size": 5.0,
        "font_color": "#FFFFFF",
        "alignment": 0,
        "bold_width": 0.0,
        "italic": false,
        "underline": false,
        "background_color": "",
        "background_alpha": 1.0,
        "border_color": "#000000",
        "border_width": 2.0,
        "shadow": true,
        "shadow_color": "#000000",
        "shadow_offset_x": 1.0,
        "shadow_offset_y": 1.0
      },
      {
        "id": "ED2BB61E-1545-4AD7-88F3-2B819B96715C",
        "words": "デパートでもらった大量の紙袋や、",
        "font_family": "",
        "font_size": 5.0,
        "font_color": "#FFFFFF",
        "alignment": 0,
        "bold_width": 0.0,
        "italic": false,
        "underline": false,
        "background_color": "",
        "background_alpha": 1.0,
        "border_color": "#000000",
        "border_width": 2.0,
        "shadow": true,
        "shadow_color": "#000000",
        "shadow_offset_x": 1.0,
        "shadow_offset_y": 1.0
      },
      {
        "id": "4E73B3CC-1086-406E-8462-9D97D9A822F7",
        "words": "あなたの「もったいない」という気持ちは、",
        "font_family": "",
        "font_size": 5.0,
        "font_color": "#FFFFFF",
        "alignment": 0,
        "bold_width": 0.0,
        "italic": false,
        "underline": false,
        "background_color": "",
        "background_alpha": 1.0,
        "border_color": "#000000",
        "border_width": 2.0,
        "shadow": true,
        "shadow_color": "#000000",
        "shadow_offset_x": 1.0,
        "shadow_offset_y": 1.0
      },
      {
        "id": "7FBFCAB9-25BA-43C2-BAC7-9B1E4F41F91A",
        "words": "家族にとっては処分に悩むものです。",
        "font_family": "",
        "font_size": 5.0,
        "font_color": "#FFFFFF",
        "alignment": 0,
        "bold_width": 0.0,
        "italic": false,
        "underline": false,
        "background_color": "",
        "background_alpha": 1.0,
        "border_color": "#000000",
        "border_width": 2.0,
        "shadow": true,
        "shadow_color": "#000000",
        "shadow_offset_x": 1.0,
        "shadow_offset_y": 1.0
      },
      {
        "id": "618BD08F-891E-4D4A-AD24-8E0A026D0749",
        "words": "しかし全てを取っておくわけにもいかない。",
        "font_family": "",
        "font_size": 5.0,
        "font_color": "#FFFFFF",
        "alignment": 0,
        "bold_width": 0.0,
        "italic": false,
        "underline": false,
        "background_color": "",
        "background_alpha": 1.0,
        "border_color": "#000000",
        "border_width": 2.0,
        "shadow": true,
        "shadow_color": "#000000",
        "shadow_offset_x": 1.0,
        "shadow_offset_y": 1.0
      },
      {
        "id": "C1E3D1F4-BB70-4E59-A2F7-4DC755AB7ED1",
        "words": "仏壇や神棚、",
        "font_family": "",
        "font_size": 5.0,
        "font_color": "#FFFFFF",
        "alignment": 0,
        "bold_width": 0.0,
        "italic": false,
        "underline": false,
        "background_color": "",
        "background_alpha": 1.0,
        "border_color": "#000000",
        "border_width": 2.0,
        "shadow": true,
        "shadow_color": "#000000",
        "shadow_offset_x": 1.0,
        "shadow_offset_y": 1.0
      },
      {
        "id": "98DAAEFC-F5CF-48E0-B1A3-0212745A53C0",
        "words": "住む場所が遠かったり、",
        "font_family": "",
        "font_size": 5.0,
        "font_color": "#FFFFFF",
        "alignment": 0,
        "bold_width": 0.0,
        "italic": false,
        "underline": false,
        "background_color": "",
        "background_alpha": 1.0,
        "border_color": "#000000",
        "border_width": 2.0,
        "shadow": true,
        "shadow_color": "#000000",
        "shadow_offset_x": 1.0,
        "shadow_offset_y": 1.0
      },
      {
        "id": "8C4DFBBB-4E34-4DE6-9161-86A4D191CA9F",
        "words": "かえって家族を苦しめ、",
        "font_family": "",
        "font_size": 5.0,
        "font_color": "#FFFFFF",
        "alignment": 0,
        "bold_width": 0.0,
        "italic": false,
        "underline": false,
        "background_color": "",
        "background_alpha": 1.0,
        "border_color": "#000000",
        "border_width": 2.0,
        "shadow": true,
        "shadow_color": "#000000",
        "shadow_offset_x": 1.0,
        "shadow_offset_y": 1.0
      },
      {
        "id": "061EC567-2AA9-4982-B704-9DDCDA52AD01",
        "words": "これは決して「死ぬための準備」ではありません。",
        "font_family": "",
        "font_size": 5.0,
        "font_color": "#FFFFFF",
        "alignment": 0,
        "bold_width": 0.0,
        "italic": false,
        "underline": false,
        "background_color": "",
        "background_alpha": 1.0,
        "border_color": "#000000",
        "border_width": 2.0,
        "shadow": true,
        "shadow_color": "#000000",
        "shadow_offset_x": 1.0,
        "shadow_offset_y": 1.0
      },
      {
        "id": "D692B05F-4C92-4CA8-8F98-D806F9DA7A90",
        "words": "まず一番大切なのは、\n「捨てる」という決断を先延ばしにしないことです。",
        "font_family": "",
        "font_size": 5.0,
        "font_color": "#FFFFFF",
        "alignment": 0,
        "bold_width": 0.0,
        "italic": false,
        "underline": false,
        "background_color": "",
        "background_alpha": 1.0,
        "border_color": "#000000",
        "border_width": 2.0,
        "shadow": true,
        "shadow_color": "#000000",
        "shadow_offset_x": 1.0,
        "shadow_offset_y": 1.0
      },
      {
        "id": "EC356BCE-39C0-4AF3-A316-6D752FE5F8C7",
        "words": "あなたの手でモノとの別れを済ませてあげること、",
        "font_family": "",
        "font_size": 5.0,
        "font_color": "#FFFFFF",
        "alignment": 0,
        "bold_width": 0.0,
        "italic": false,
        "underline": false,
        "background_color": "",
        "background_alpha": 1.0,
        "border_color": "#000000",
        "border_width": 2.0,
        "shadow": true,
        "shadow_color": "#000000",
        "shadow_offset_x": 1.0,
        "shadow_offset_y": 1.0
      },
      {
        "id": "12D1600F-B35D-4BA3-84DE-AD3388E2AF8F",
        "words": "デジタル遺品のパスワード、",
        "font_family": "",
        "font_size": 5.0,
        "font_color": "#FFFFFF",
        "alignment": 0,
        "bold_width": 0.0,
        "italic": false,
        "underline": false,
        "background_color": "",
        "background_alpha": 1.0,
        "border_color": "#000000",
        "border_width": 2.0,
        "shadow": true,
        "shadow_color": "#000000",
        "shadow_offset_x": 1.0,
        "shadow_offset_y": 1.0
      },
      {
        "id": "947FD517-AA5E-4C76-AE09-4F61810BCB9D",
        "words": "非常にありがたい道しるべとなります。",
        "font_family": "",
        "font_size": 5.0,
        "font_color": "#FFFFFF",
        "alignment": 0,
        "bold_width": 0.0,
        "italic": false,
        "underline": false,
        "background_color": "",
        "background_alpha": 1.0,
        "border_color": "#000000",
        "border_width": 2.0,
        "shadow": true,
        "shadow_color": "#000000",
        "shadow_offset_x": 1.0,
        "shadow_offset_y": 1.0
      },
      {
        "id": "298823B9-29B3-4E5D-B751-D7C215641F68",
        "words": "元気なうちにあなたの考えを伝え、",
        "font_family": "",
        "font_size": 5.0,
        "font_color": "#FFFFFF",
        "alignment": 0,
        "bold_width": 0.0,
        "italic": false,
        "underline": false,
        "background_color": "",
        "background_alpha": 1.0,
        "border_color": "#000000",
        "border_width": 2.0,
        "shadow": true,
        "shadow_color": "#000000",
        "shadow_offset_x": 1.0,
        "shadow_offset_y": 1.0
      },
      {
        "id": "4D56B97D-F692-4317-8ACF-9FDB5DEDFC1F",
        "words": "生前整理を終え、",
        "font_family": "",
        "font_size": 5.0,
        "font_color": "#FFFFFF",
        "alignment": 0,
        "bold_width": 0.0,
        "italic": false,
        "underline": false,
        "background_color": "",
        "background_alpha": 1.0,
        "border_color": "#000000",
        "border_width": 2.0,
        "shadow": true,
        "shadow_color": "#000000",
        "shadow_offset_x": 1.0,
        "shadow_offset_y": 1.0
      },
      {
        "id": "40FF1811-31DE-4EBC-9B2B-21F28CFF48D5",
        "words": "穏やかな気持ちでお茶を飲む。",
        "font_family": "",
        "font_size": 5.0,
        "font_color": "#FFFFFF",
        "alignment": 0,
        "bold_width": 0.0,
        "italic": false,
        "underline": false,
        "background_color": "",
        "background_alpha": 1.0,
        "border_color": "#000000",
        "border_width": 2.0,
        "shadow": true,
        "shadow_color": "#000000",
        "shadow_offset_x": 1.0,
        "shadow_offset_y": 1.0
      },
      {
        "id": "B28EA47B-1621-470D-AAD4-CEBFF637C624",
        "words": "家族への負担という形で終えてはいけません。",
        "font_family": "",
        "font_size": 5.0,
        "font_color": "#FFFFFF",
        "alignment": 0,
        "bold_width": 0.0,
        "italic": false,
        "underline": false,
        "background_color": "",
        "background_alpha": 1.0,
        "border_color": "#000000",
        "border_width": 2.0,
        "shadow": true,
        "shadow_color": "#000000",
        "shadow_offset_x": 1.0,
        "shadow_offset_y": 1.0
      },
      {
        "id": "09E6963F-ADDA-4A1B-9569-C959A7E06EF7",
        "words": "さあ今日から始めてみませんか。",
        "font_family": "",
        "font_size": 5.0,
        "font_color": "#FFFFFF",
        "alignment": 0,
        "bold_width": 0.0,
        "italic": false,
        "underline": false,
        "background_color": "",
        "background_alpha": 1.0,
        "border_color": "#000000",
        "border_width": 2.0,
        "shadow": true,
        "shadow_color": "#000000",
        "shadow_offset_x": 1.0,
        "shadow_offset_y": 1.0
      },
      {
        "id": "969FA5BC-EFAC-4EFD-9E6C-7C6D7B9D1B59",
        "words": "明るく照らすのです。",
        "font_family": "",
        "font_size": 5.0,
        "font_color": "#FFFFFF",
        "alignment": 0,
        "bold_width": 0.0,
        "italic": false,
        "underline": false,
        "background_color": "",
        "background_alpha": 1.0,
        "border_color": "#000000",
        "border_width": 2.0,
        "shadow": true,
        "shadow_color": "#000000",
        "shadow_offset_x": 1.0,
        "shadow_offset_y": 1.0
      },
      {
        "id": "A9DDC39E-1F3C-4A00-B925-FCA68825BE7C",
        "words": "もし明日、\nあなたの人生が突然終わりを迎えたとしたら。",
        "font_family": "",
        "font_size": 5.0,
        "font_color": "#FFFFFF",
        "alignment": 0,
        "bold_width": 0.0,
        "italic": false,
        "underline": false,
        "background_color": "",
        "background_alpha": 1.0,
        "border_color": "#000000",
        "border_width": 2.0,
        "shadow": true,
        "shadow_color": "#000000",
        "shadow_offset_x": 1.0,
        "shadow_offset_y": 1.0
      },
      {
        "id": "26FD3282-7F77-4CF2-997D-8F8A583D4EDE",
        "words": "あまりにも過酷で重い現実がのしかかってくるのです\n。",
        "font_family": "",
        "font_size": 5.0,
        "font_color": "#FFFFFF",
        "alignment": 0,
        "bold_width": 0.0,
        "italic": false,
        "underline": false,
        "background_color": "",
        "background_alpha": 1.0,
        "border_color": "#000000",
        "border_width": 2.0,
        "shadow": true,
        "shadow_color": "#000000",
        "shadow_offset_x": 1.0,
        "shadow_offset_y": 1.0
      },
      {
        "id": "9A55003F-A075-4251-A963-BFBB381A2CF4",
        "words": "何十年分もの思い出と不用品が混ざり合った、",
        "font_family": "",
        "font_size": 5.0,
        "font_color": "#FFFFFF",
        "alignment": 0,
        "bold_width": 0.0,
        "italic": false,
        "underline": false,
        "background_color": "",
        "background_alpha": 1.0,
        "border_color": "#000000",
        "border_width": 2.0,
        "shadow": true,
        "shadow_color": "#000000",
        "shadow_offset_x": 1.0,
        "shadow_offset_y": 1.0
      },
      {
        "id": "F0609F5C-D9A3-4710-BD0E-7241ABD6891E",
        "words": "整理し、処分しなければなりません。",
        "font_family": "",
        "font_size": 5.0,
        "font_color": "#FFFFFF",
        "alignment": 0,
        "bold_width": 0.0,
        "italic": false,
        "underline": false,
        "background_color": "",
        "background_alpha": 1.0,
        "border_color": "#000000",
        "border_width": 2.0,
        "shadow": true,
        "shadow_color": "#000000",
        "shadow_offset_x": 1.0,
        "shadow_offset_y": 1.0
      },
      {
        "id": "A95964B6-F6A2-4CA1-8051-0FACE008A217",
        "words": "考えたことはありますか。",
        "font_family": "",
        "font_size": 5.0,
        "font_color": "#FFFFFF",
        "alignment": 0,
        "bold_width": 0.0,
        "italic": false,
        "underline": false,
        "background_color": "",
        "background_alpha": 1.0,
        "border_color": "#000000",
        "border_width": 2.0,
        "shadow": true,
        "shadow_color": "#000000",
        "shadow_offset_x": 1.0,
        "shadow_offset_y": 1.0
      },
      {
        "id": "A8E2DC35-82E4-4758-B094-787814050B52",
        "words": "多くの家庭が直面している非常に深刻な問題なのです\n。",
        "font_family": "",
        "font_size": 5.0,
        "font_color": "#FFFFFF",
        "alignment": 0,
        "bold_width": 0.0,
        "italic": false,
        "underline": false,
        "background_color": "",
        "background_alpha": 1.0,
        "border_color": "#000000",
        "border_width": 2.0,
        "shadow": true,
        "shadow_color": "#000000",
        "shadow_offset_x": 1.0,
        "shadow_offset_y": 1.0
      },
      {
        "id": "404A7630-C387-413C-8A83-37586052A0CB",
        "words": "具体的にお話ししていきます。",
        "font_family": "",
        "font_size": 5.0,
        "font_color": "#FFFFFF",
        "alignment": 0,
        "bold_width": 0.0,
        "italic": false,
        "underline": false,
        "background_color": "",
        "background_alpha": 1.0,
        "border_color": "#000000",
        "border_width": 2.0,
        "shadow": true,
        "shadow_color": "#000000",
        "shadow_offset_x": 1.0,
        "shadow_offset_y": 1.0
      },
      {
        "id": "08CA670C-FC3F-4CBD-B440-E2E4BAF3E10B",
        "words": "どうか他人事だと思わず、",
        "font_family": "",
        "font_size": 5.0,
        "font_color": "#FFFFFF",
        "alignment": 0,
        "bold_width": 0.0,
        "italic": false,
        "underline": false,
        "background_color": "",
        "background_alpha": 1.0,
        "border_color": "#000000",
        "border_width": 2.0,
        "shadow": true,
        "shadow_color": "#000000",
        "shadow_offset_x": 1.0,
        "shadow_offset_y": 1.0
      },
      {
        "id": "409BC84E-5FB7-43A0-8725-DCB0623AD471",
        "words": "古いカメラのコレクション。",
        "font_family": "",
        "font_size": 5.0,
        "font_color": "#FFFFFF",
        "alignment": 0,
        "bold_width": 0.0,
        "italic": false,
        "underline": false,
        "background_color": "",
        "background_alpha": 1.0,
        "border_color": "#000000",
        "border_width": 2.0,
        "shadow": true,
        "shadow_color": "#000000",
        "shadow_offset_x": 1.0,
        "shadow_offset_y": 1.0
      },
      {
        "id": "FCCF7817-2EB9-47CC-B3B7-82A8183E8A95",
        "words": "それらはあなたの人生そのものであり、",
        "font_family": "",
        "font_size": 5.0,
        "font_color": "#FFFFFF",
        "alignment": 0,
        "bold_width": 0.0,
        "italic": false,
        "underline": false,
        "background_color": "",
        "background_alpha": 1.0,
        "border_color": "#000000",
        "border_width": 2.0,
        "shadow": true,
        "shadow_color": "#000000",
        "shadow_offset_x": 1.0,
        "shadow_offset_y": 1.0
      },
      {
        "id": "61022AFF-0A28-4686-A53F-61002FEF0C2F",
        "words": "その価値を同じように理解し、",
        "font_family": "",
        "font_size": 5.0,
        "font_color": "#FFFFFF",
        "alignment": 0,
        "bold_width": 0.0,
        "italic": false,
        "underline": false,
        "background_color": "",
        "background_alpha": 1.0,
        "border_color": "#000000",
        "border_width": 2.0,
        "shadow": true,
        "shadow_color": "#000000",
        "shadow_offset_x": 1.0,
        "shadow_offset_y": 1.0
      },
      {
        "id": "D83319EA-54F9-4A3B-9F05-30B451229F8E",
        "words": "それはどう扱っていいか分からない「ガラクタの山」\nになってしまいます。",
        "font_family": "",
        "font_size": 5.0,
        "font_color": "#FFFFFF",
        "alignment": 0,
        "bold_width": 0.0,
        "italic": false,
        "underline": false,
        "background_color": "",
        "background_alpha": 1.0,
        "border_color": "#000000",
        "border_width": 2.0,
        "shadow": true,
        "shadow_color": "#000000",
        "shadow_offset_x": 1.0,
        "shadow_offset_y": 1.0
      },
      {
        "id": "E3799248-5C0F-4283-90E1-7FC2994CB22E",
        "words": "結果としてその収集品は、",
        "font_family": "",
        "font_size": 5.0,
        "font_color": "#FFFFFF",
        "alignment": 0,
        "bold_width": 0.0,
        "italic": false,
        "underline": false,
        "background_color": "",
        "background_alpha": 1.0,
        "border_color": "#000000",
        "border_width": 2.0,
        "shadow": true,
        "shadow_color": "#000000",
        "shadow_offset_x": 1.0,
        "shadow_offset_y": 1.0
      },
      {
        "id": "116404B4-1013-4AD7-8A5E-3AD7DAB3A710",
        "words": "その一冊一冊に、\nあなたの人生の輝かしい瞬間が詰まっています。",
        "font_family": "",
        "font_size": 5.0,
        "font_color": "#FFFFFF",
        "alignment": 0,
        "bold_width": 0.0,
        "italic": false,
        "underline": false,
        "background_color": "",
        "background_alpha": 1.0,
        "border_color": "#000000",
        "border_width": 2.0,
        "shadow": true,
        "shadow_color": "#000000",
        "shadow_offset_x": 1.0,
        "shadow_offset_y": 1.0
      },
      {
        "id": "205A8218-685B-425F-8C68-BD08478A8411",
        "words": "あなたの思い出を自分たちの手で「捨てる」という、",
        "font_family": "",
        "font_size": 5.0,
        "font_color": "#FFFFFF",
        "alignment": 0,
        "bold_width": 0.0,
        "italic": false,
        "underline": false,
        "background_color": "",
        "background_alpha": 1.0,
        "border_color": "#000000",
        "border_width": 2.0,
        "shadow": true,
        "shadow_color": "#000000",
        "shadow_offset_x": 1.0,
        "shadow_offset_y": 1.0
      },
      {
        "id": "1CA81B46-6B78-48FF-B9D7-AF70845EDAC0",
        "words": "それは想像を絶するほど、",
        "font_family": "",
        "font_size": 5.0,
        "font_color": "#FFFFFF",
        "alignment": 0,
        "bold_width": 0.0,
        "italic": false,
        "underline": false,
        "background_color": "",
        "background_alpha": 1.0,
        "border_color": "#000000",
        "border_width": 2.0,
        "shadow": true,
        "shadow_color": "#000000",
        "shadow_offset_x": 1.0,
        "shadow_offset_y": 1.0
      },
      {
        "id": "B70A06A6-DBF0-429A-92F5-42B1BE6C42E3",
        "words": "あなたが毎日使っていたスマートフォンやパソコン。",
        "font_family": "",
        "font_size": 5.0,
        "font_color": "#FFFFFF",
        "alignment": 0,
        "bold_width": 0.0,
        "italic": false,
        "underline": false,
        "background_color": "",
        "background_alpha": 1.0,
        "border_color": "#000000",
        "border_width": 2.0,
        "shadow": true,
        "shadow_color": "#000000",
        "shadow_offset_x": 1.0,
        "shadow_offset_y": 1.0
      },
      {
        "id": "6C245EC3-F4CF-4B25-8D7E-7E7EC5173346",
        "words": "しかし、\nもしあなたがそのロックを解除するためのパスワード\nを誰にも伝えていなかったら、",
        "font_family": "",
        "font_size": 5.0,
        "font_color": "#FFFFFF",
        "alignment": 0,
        "bold_width": 0.0,
        "italic": false,
        "underline": false,
        "background_color": "",
        "background_alpha": 1.0,
        "border_color": "#000000",
        "border_width": 2.0,
        "shadow": true,
        "shadow_color": "#000000",
        "shadow_offset_x": 1.0,
        "shadow_offset_y": 1.0
      },
      {
        "id": "1357561A-B583-4AEA-AAC0-8F51ACF44209",
        "words": "SNSのアカウントを削除することもできず、",
        "font_family": "",
        "font_size": 5.0,
        "font_color": "#FFFFFF",
        "alignment": 0,
        "bold_width": 0.0,
        "italic": false,
        "underline": false,
        "background_color": "",
        "background_alpha": 1.0,
        "border_color": "#000000",
        "border_width": 2.0,
        "shadow": true,
        "shadow_color": "#000000",
        "shadow_offset_x": 1.0,
        "shadow_offset_y": 1.0
      },
      {
        "id": "6AC95394-5A87-40BA-BA6D-CBA84C2A6033",
        "words": "非常に厄-介な置き土産なのです。",
        "font_family": "",
        "font_size": 5.0,
        "font_color": "#FFFFFF",
        "alignment": 0,
        "bold_width": 0.0,
        "italic": false,
        "underline": false,
        "background_color": "",
        "background_alpha": 1.0,
        "border_color": "#000000",
        "border_width": 2.0,
        "shadow": true,
        "shadow_color": "#000000",
        "shadow_offset_x": 1.0,
        "shadow_offset_y": 1.0
      },
      {
        "id": "218AE75C-266F-4752-998B-DD5839698DD2",
        "words": "見たこともない印鑑がいくつも出てくることがありま\nす。",
        "font_family": "",
        "font_size": 5.0,
        "font_color": "#FFFFFF",
        "alignment": 0,
        "bold_width": 0.0,
        "italic": false,
        "underline": false,
        "background_color": "",
        "background_alpha": 1.0,
        "border_color": "#000000",
        "border_width": 2.0,
        "shadow": true,
        "shadow_color": "#000000",
        "shadow_offset_x": 1.0,
        "shadow_offset_y": 1.0
      },
      {
        "id": "0DDA6DAF-B616-476E-B137-F66C3E37236D",
        "words": "残高はどれくらいかを気の遠くなるような手間で確認\nしなければなりません。",
        "font_family": "",
        "font_size": 5.0,
        "font_color": "#FFFFFF",
        "alignment": 0,
        "bold_width": 0.0,
        "italic": false,
        "underline": false,
        "background_color": "",
        "background_alpha": 1.0,
        "border_color": "#000000",
        "border_width": 2.0,
        "shadow": true,
        "shadow_color": "#000000",
        "shadow_offset_x": 1.0,
        "shadow_offset_y": 1.0
      },
      {
        "id": "EEDBD566-AC25-4704-9745-58B0C378A563",
        "words": "家族にとっては時間と労力を奪う「迷惑な宝探し」に\nなってしまうのです。",
        "font_family": "",
        "font_size": 5.0,
        "font_color": "#FFFFFF",
        "alignment": 0,
        "bold_width": 0.0,
        "italic": false,
        "underline": false,
        "background_color": "",
        "background_alpha": 1.0,
        "border_color": "#000000",
        "border_width": 2.0,
        "shadow": true,
        "shadow_color": "#000000",
        "shadow_offset_x": 1.0,
        "shadow_offset_y": 1.0
      },
      {
        "id": "ECB9A600-4EB4-46AA-81FA-8AB660179A8A",
        "words": "きれいな包装紙。",
        "font_family": "",
        "font_size": 5.0,
        "font_color": "#FFFFFF",
        "alignment": 0,
        "bold_width": 0.0,
        "italic": false,
        "underline": false,
        "background_color": "",
        "background_alpha": 1.0,
        "border_color": "#000000",
        "border_width": 2.0,
        "shadow": true,
        "shadow_color": "#000000",
        "shadow_offset_x": 1.0,
        "shadow_offset_y": 1.0
      },
      {
        "id": "FE6D142F-793E-4227-9444-136CFEED19C8",
        "words": "残された家族にとっては、",
        "font_family": "",
        "font_size": 5.0,
        "font_color": "#FFFFFF",
        "alignment": 0,
        "bold_width": 0.0,
        "italic": false,
        "underline": false,
        "background_color": "",
        "background_alpha": 1.0,
        "border_color": "#000000",
        "border_width": 2.0,
        "shadow": true,
        "shadow_color": "#000000",
        "shadow_offset_x": 1.0,
        "shadow_offset_y": 1.0
      },
      {
        "id": "CDE7904C-28D0-4433-BEE6-F31DC29D84F8",
        "words": "クローゼットいっぱいに詰まったあなたの服。",
        "font_family": "",
        "font_size": 5.0,
        "font_color": "#FFFFFF",
        "alignment": 0,
        "bold_width": 0.0,
        "italic": false,
        "underline": false,
        "background_color": "",
        "background_alpha": 1.0,
        "border_color": "#000000",
        "border_width": 2.0,
        "shadow": true,
        "shadow_color": "#000000",
        "shadow_offset_x": 1.0,
        "shadow_offset_y": 1.0
      },
      {
        "id": "DEDB8ED1-4486-4621-8666-B20FB2EDFDCD",
        "words": "思い出と処分の間で、",
        "font_family": "",
        "font_size": 5.0,
        "font_color": "#FFFFFF",
        "alignment": 0,
        "bold_width": 0.0,
        "italic": false,
        "underline": false,
        "background_color": "",
        "background_alpha": 1.0,
        "border_color": "#000000",
        "border_width": 2.0,
        "shadow": true,
        "shadow_color": "#000000",
        "shadow_offset_x": 1.0,
        "shadow_offset_y": 1.0
      },
      {
        "id": "39D5EB83-95A1-41B8-B745-264237C17D11",
        "words": "そしてお墓の管理です。",
        "font_family": "",
        "font_size": 5.0,
        "font_color": "#FFFFFF",
        "alignment": 0,
        "bold_width": 0.0,
        "italic": false,
        "underline": false,
        "background_color": "",
        "background_alpha": 1.0,
        "border_color": "#000000",
        "border_width": 2.0,
        "shadow": true,
        "shadow_color": "#000000",
        "shadow_offset_x": 1.0,
        "shadow_offset_y": 1.0
      },
      {
        "id": "C8C6AE84-24A1-4B56-AF79-20C9063D6BDC",
        "words": "信仰心がなかったり、",
        "font_family": "",
        "font_size": 5.0,
        "font_color": "#FFFFFF",
        "alignment": 0,
        "bold_width": 0.0,
        "italic": false,
        "underline": false,
        "background_color": "",
        "background_alpha": 1.0,
        "border_color": "#000000",
        "border_width": 2.0,
        "shadow": true,
        "shadow_color": "#000000",
        "shadow_offset_x": 1.0,
        "shadow_offset_y": 1.0
      },
      {
        "id": "B7537BED-D347-433D-AED0-AECECE4CF696",
        "words": "親族間のトラブルの原因になることさえあるのです。",
        "font_family": "",
        "font_size": 5.0,
        "font_color": "#FFFFFF",
        "alignment": 0,
        "bold_width": 0.0,
        "italic": false,
        "underline": false,
        "background_color": "",
        "background_alpha": 1.0,
        "border_color": "#000000",
        "border_width": 2.0,
        "shadow": true,
        "shadow_color": "#000000",
        "shadow_offset_x": 1.0,
        "shadow_offset_y": 1.0
      },
      {
        "id": "B5B8562A-2A55-4384-960F-DFBB9053318F",
        "words": "残りの人生をより身軽に、",
        "font_family": "",
        "font_size": 5.0,
        "font_color": "#FFFFFF",
        "alignment": 0,
        "bold_width": 0.0,
        "italic": false,
        "underline": false,
        "background_color": "",
        "background_alpha": 1.0,
        "border_color": "#000000",
        "border_width": 2.0,
        "shadow": true,
        "shadow_color": "#000000",
        "shadow_offset_x": 1.0,
        "shadow_offset_y": 1.0
      },
      {
        "id": "A0EB18AD-E595-4CA9-98CD-C918C2480E5C",
        "words": "元気な今のあなたにとって簡単な決断も、",
        "font_family": "",
        "font_size": 5.0,
        "font_color": "#FFFFFF",
        "alignment": 0,
        "bold_width": 0.0,
        "italic": false,
        "underline": false,
        "background_color": "",
        "background_alpha": 1.0,
        "border_color": "#000000",
        "border_width": 2.0,
        "shadow": true,
        "shadow_color": "#000000",
        "shadow_offset_x": 1.0,
        "shadow_offset_y": 1.0
      },
      {
        "id": "DE67D672-C0A8-42D1-8DF7-382B41EDCB3C",
        "words": "それが最大の思いやりです。",
        "font_family": "",
        "font_size": 5.0,
        "font_color": "#FFFFFF",
        "alignment": 0,
        "bold_width": 0.0,
        "italic": false,
        "underline": false,
        "background_color": "",
        "background_alpha": 1.0,
        "border_color": "#000000",
        "border_width": 2.0,
        "shadow": true,
        "shadow_color": "#000000",
        "shadow_offset_x": 1.0,
        "shadow_offset_y": 1.0
      },
      {
        "id": "C5BDC40F-1E3D-4410-ADD5-850EF23DA6E0",
        "words": "趣味の品の処分方法の希望などを一冊にまとめておく\nのです。",
        "font_family": "",
        "font_size": 5.0,
        "font_color": "#FFFFFF",
        "alignment": 0,
        "bold_width": 0.0,
        "italic": false,
        "underline": false,
        "background_color": "",
        "background_alpha": 1.0,
        "border_color": "#000000",
        "border_width": 2.0,
        "shadow": true,
        "shadow_color": "#000000",
        "shadow_offset_x": 1.0,
        "shadow_offset_y": 1.0
      },
      {
        "id": "D6447401-984C-4616-88EF-C1D9CB6A351A",
        "words": "何より大切なのは、\n家族とコミュニケーションをとることです。",
        "font_family": "",
        "font_size": 5.0,
        "font_color": "#FFFFFF",
        "alignment": 0,
        "bold_width": 0.0,
        "italic": false,
        "underline": false,
        "background_color": "",
        "background_alpha": 1.0,
        "border_color": "#000000",
        "border_width": 2.0,
        "shadow": true,
        "shadow_color": "#000000",
        "shadow_offset_x": 1.0,
        "shadow_offset_y": 1.0
      },
      {
        "id": "E0C33796-2494-4B79-8D6F-39E9C0BE8D5F",
        "words": "家族の意見を聞いておくのです。",
        "font_family": "",
        "font_size": 5.0,
        "font_color": "#FFFFFF",
        "alignment": 0,
        "bold_width": 0.0,
        "italic": false,
        "underline": false,
        "background_color": "",
        "background_alpha": 1.0,
        "border_color": "#000000",
        "border_width": 2.0,
        "shadow": true,
        "shadow_color": "#000000",
        "shadow_offset_x": 1.0,
        "shadow_offset_y": 1.0
      },
      {
        "id": "74DEA985-4CDA-44C0-9A8E-47F5681E88E0",
        "words": "モノの呪縛から解放された時、",
        "font_family": "",
        "font_size": 5.0,
        "font_color": "#FFFFFF",
        "alignment": 0,
        "bold_width": 0.0,
        "italic": false,
        "underline": false,
        "background_color": "",
        "background_alpha": 1.0,
        "border_color": "#000000",
        "border_width": 2.0,
        "shadow": true,
        "shadow_color": "#000000",
        "shadow_offset_x": 1.0,
        "shadow_offset_y": 1.0
      },
      {
        "id": "BE5ADFBB-5EC1-4DF0-B60F-184EEA455995",
        "words": "それは未来への不安ではなく、",
        "font_family": "",
        "font_size": 5.0,
        "font_color": "#FFFFFF",
        "alignment": 0,
        "bold_width": 0.0,
        "italic": false,
        "underline": false,
        "background_color": "",
        "background_alpha": 1.0,
        "border_color": "#000000",
        "border_width": 2.0,
        "shadow": true,
        "shadow_color": "#000000",
        "shadow_offset_x": 1.0,
        "shadow_offset_y": 1.0
      },
      {
        "id": "DDE85FAB-DAD7-473D-833E-16B57794806D",
        "words": "あなたの最後の置き土産はモノではなく、",
        "font_family": "",
        "font_size": 5.0,
        "font_color": "#FFFFFF",
        "alignment": 0,
        "bold_width": 0.0,
        "italic": false,
        "underline": false,
        "background_color": "",
        "background_alpha": 1.0,
        "border_color": "#000000",
        "border_width": 2.0,
        "shadow": true,
        "shadow_color": "#000000",
        "shadow_offset_x": 1.0,
        "shadow_offset_y": 1.0
      },
      {
        "id": "6359A063-A518-428A-9ACD-7EAD3951C0D7",
        "words": "まずは引き出しを一つ開けることから。",
        "font_family": "",
        "font_size": 5.0,
        "font_color": "#FFFFFF",
        "alignment": 0,
        "bold_width": 0.0,
        "italic": false,
        "underline": false,
        "background_color": "",
        "background_alpha": 1.0,
        "border_color": "#000000",
        "border_width": 2.0,
        "shadow": true,
        "shadow_color": "#000000",
        "shadow_offset_x": 1.0,
        "shadow_offset_y": 1.0
      },
      {
        "id": "E33388F4-97AC-4D48-B0EB-4A1D9CA3D866",
        "words": "残されたあなたの大切な家族は、\n深い悲しみに暮れることでしょう。",
        "font_family": "",
        "font_size": 5.0,
        "font_color": "#FFFFFF",
        "alignment": 0,
        "bold_width": 0.0,
        "italic": false,
        "underline": false,
        "background_color": "",
        "background_alpha": 1.0,
        "border_color": "#000000",
        "border_width": 2.0,
        "shadow": true,
        "shadow_color": "#000000",
        "shadow_offset_x": 1.0,
        "shadow_offset_y": 1.0
      },
      {
        "id": "F28869FE-2A42-4E69-9A41-86C66B1A3F5A",
        "words": "それは、\nあなたがこの世に残した全ての「モノ」との戦いです\n。",
        "font_family": "",
        "font_size": 5.0,
        "font_color": "#FFFFFF",
        "alignment": 0,
        "bold_width": 0.0,
        "italic": false,
        "underline": false,
        "background_color": "",
        "background_alpha": 1.0,
        "border_color": "#000000",
        "border_width": 2.0,
        "shadow": true,
        "shadow_color": "#000000",
        "shadow_offset_x": 1.0,
        "shadow_offset_y": 1.0
      },
      {
        "id": "8FDD4DCF-1CE4-489F-9BD2-4954ED5E0217",
        "words": "膨大な量の遺品。",
        "font_family": "",
        "font_size": 5.0,
        "font_color": "#FFFFFF",
        "alignment": 0,
        "bold_width": 0.0,
        "italic": false,
        "underline": false,
        "background_color": "",
        "background_alpha": 1.0,
        "border_color": "#000000",
        "border_width": 2.0,
        "shadow": true,
        "shadow_color": "#000000",
        "shadow_offset_x": 1.0,
        "shadow_offset_y": 1.0
      },
      {
        "id": "08F86BF8-1672-4799-990B-76E9B0BD186F",
        "words": "その作業がどれほどの時間、",
        "font_family": "",
        "font_size": 5.0,
        "font_color": "#FFFFFF",
        "alignment": 0,
        "bold_width": 0.0,
        "italic": false,
        "underline": false,
        "background_color": "",
        "background_alpha": 1.0,
        "border_color": "#000000",
        "border_width": 2.0,
        "shadow": true,
        "shadow_color": "#000000",
        "shadow_offset_x": 1.0,
        "shadow_offset_y": 1.0
      },
      {
        "id": "C02CA436-D583-4A24-AA01-342FACFF9BF3",
        "words": "良かれと思って大切に溜め込んできたモノが、",
        "font_family": "",
        "font_size": 5.0,
        "font_color": "#FFFFFF",
        "alignment": 0,
        "bold_width": 0.0,
        "italic": false,
        "underline": false,
        "background_color": "",
        "background_alpha": 1.0,
        "border_color": "#000000",
        "border_width": 2.0,
        "shadow": true,
        "shadow_color": "#000000",
        "shadow_offset_x": 1.0,
        "shadow_offset_y": 1.0
      },
      {
        "id": "57640C6D-97A5-4CF2-AF5B-D0FEDBBCD0F1",
        "words": "本日は「生前整理」の専門家の視点から、",
        "font_family": "",
        "font_size": 5.0,
        "font_color": "#FFFFFF",
        "alignment": 0,
        "bold_width": 0.0,
        "italic": false,
        "underline": false,
        "background_color": "",
        "background_alpha": 1.0,
        "border_color": "#000000",
        "border_width": 2.0,
        "shadow": true,
        "shadow_color": "#000000",
        "shadow_offset_x": 1.0,
        "shadow_offset_y": 1.0
      },
      {
        "id": "4D018FF1-1835-46FE-902C-2EE477397406",
        "words": "これは単なる片付けの話ではありません。",
        "font_family": "",
        "font_size": 5.0,
        "font_color": "#FFFFFF",
        "alignment": 0,
        "bold_width": 0.0,
        "italic": false,
        "underline": false,
        "background_color": "",
        "background_alpha": 1.0,
        "border_color": "#000000",
        "border_width": 2.0,
        "shadow": true,
        "shadow_color": "#000000",
        "shadow_offset_x": 1.0,
        "shadow_offset_y": 1.0
      },
      {
        "id": "9E68BCE6-EA81-436B-B71A-44EEE3A4C40D",
        "words": "自分自身の物語として最後までご覧ください。",
        "font_family": "",
        "font_size": 5.0,
        "font_color": "#FFFFFF",
        "alignment": 0,
        "bold_width": 0.0,
        "italic": false,
        "underline": false,
        "background_color": "",
        "background_alpha": 1.0,
        "border_color": "#000000",
        "border_width": 2.0,
        "shadow": true,
        "shadow_color": "#000000",
        "shadow_offset_x": 1.0,
        "shadow_offset_y": 1.0
      },
      {
        "id": "33C131A0-1755-4A8C-A71C-3C4567C18719",
        "words": "棚にびっしりと並んだ愛聴盤のレコード。",
        "font_family": "",
        "font_size": 5.0,
        "font_color": "#FFFFFF",
        "alignment": 0,
        "bold_width": 0.0,
        "italic": false,
        "underline": false,
        "background_color": "",
        "background_alpha": 1.0,
        "border_color": "#000000",
        "border_width": 2.0,
        "shadow": true,
        "shadow_color": "#000000",
        "shadow_offset_x": 1.0,
        "shadow_offset_y": 1.0
      },
      {
        "id": "4C87393C-AD6F-486F-8B37-99AF3BE205E2",
        "words": "かけがえのない宝物でしょう。",
        "font_family": "",
        "font_size": 5.0,
        "font_color": "#FFFFFF",
        "alignment": 0,
        "bold_width": 0.0,
        "italic": false,
        "underline": false,
        "background_color": "",
        "background_alpha": 1.0,
        "border_color": "#000000",
        "border_width": 2.0,
        "shadow": true,
        "shadow_color": "#000000",
        "shadow_offset_x": 1.0,
        "shadow_offset_y": 1.0
      },
      {
        "id": "437F693D-00D5-4AA3-8C81-F33B6E1CE797",
        "words": "大切にしてくれる人が家族の中にいるでしょうか。",
        "font_family": "",
        "font_size": 5.0,
        "font_color": "#FFFFFF",
        "alignment": 0,
        "bold_width": 0.0,
        "italic": false,
        "underline": false,
        "background_color": "",
        "background_alpha": 1.0,
        "border_color": "#000000",
        "border_width": 2.0,
        "shadow": true,
        "shadow_color": "#000000",
        "shadow_offset_x": 1.0,
        "shadow_offset_y": 1.0
      },
      {
        "id": "C2CFF5A7-E451-4667-8A0B-A6DEFEB6D35A",
        "words": "かといって故人が大切にしていたものを、",
        "font_family": "",
        "font_size": 5.0,
        "font_color": "#FFFFFF",
        "alignment": 0,
        "bold_width": 0.0,
        "italic": false,
        "underline": false,
        "background_color": "",
        "background_alpha": 1.0,
        "border_color": "#000000",
        "border_width": 2.0,
        "shadow": true,
        "shadow_color": "#000000",
        "shadow_offset_x": 1.0,
        "shadow_offset_y": 1.0
      },
      {
        "id": "1D97F1F7-E6D5-4EB4-8625-AF2612EDB5AF",
        "words": "家族の家の片隅で重荷として存在し続けることになる\nのです。",
        "font_family": "",
        "font_size": 5.0,
        "font_color": "#FFFFFF",
        "alignment": 0,
        "bold_width": 0.0,
        "italic": false,
        "underline": false,
        "background_color": "",
        "background_alpha": 1.0,
        "border_color": "#000000",
        "border_width": 2.0,
        "shadow": true,
        "shadow_color": "#000000",
        "shadow_offset_x": 1.0,
        "shadow_offset_y": 1.0
      },
      {
        "id": "B373B77D-44F3-4FE6-8AE4-C420CD1BE330",
        "words": "しかし残された家族が、",
        "font_family": "",
        "font_size": 5.0,
        "font_color": "#FFFFFF",
        "alignment": 0,
        "bold_width": 0.0,
        "italic": false,
        "underline": false,
        "background_color": "",
        "background_alpha": 1.0,
        "border_color": "#000000",
        "border_width": 2.0,
        "shadow": true,
        "shadow_color": "#000000",
        "shadow_offset_x": 1.0,
        "shadow_offset_y": 1.0
      },
      {
        "id": "14B5B6EB-3252-4215-8AFA-E9E5C0D08A00",
        "words": "非常に心苦しい決断です。",
        "font_family": "",
        "font_size": 5.0,
        "font_color": "#FFFFFF",
        "alignment": 0,
        "bold_width": 0.0,
        "italic": false,
        "underline": false,
        "background_color": "",
        "background_alpha": 1.0,
        "border_color": "#000000",
        "border_width": 2.0,
        "shadow": true,
        "shadow_color": "#000000",
        "shadow_offset_x": 1.0,
        "shadow_offset_y": 1.0
      },
      {
        "id": "5141A9D5-25B6-4C4F-972E-0B80404CB0C2",
        "words": "精神的に辛い作業なのです。",
        "font_family": "",
        "font_size": 5.0,
        "font_color": "#FFFFFF",
        "alignment": 0,
        "bold_width": 0.0,
        "italic": false,
        "underline": false,
        "background_color": "",
        "background_alpha": 1.0,
        "border_color": "#000000",
        "border_width": 2.0,
        "shadow": true,
        "shadow_color": "#000000",
        "shadow_offset_x": 1.0,
        "shadow_offset_y": 1.0
      },
      {
        "id": "518258A9-9E7E-4B36-8C0B-20944FD0E7D2",
        "words": "そこには友人とのやり取りや大切な写真データだけで\nなく、",
        "font_family": "",
        "font_size": 5.0,
        "font_color": "#FFFFFF",
        "alignment": 0,
        "bold_width": 0.0,
        "italic": false,
        "underline": false,
        "background_color": "",
        "background_alpha": 1.0,
        "border_color": "#000000",
        "border_width": 2.0,
        "shadow": true,
        "shadow_color": "#000000",
        "shadow_offset_x": 1.0,
        "shadow_offset_y": 1.0
      },
      {
        "id": "873F1323-B936-40D0-9E9F-5041747774B5",
        "words": "どうなるでしょうか。",
        "font_family": "",
        "font_size": 5.0,
        "font_color": "#FFFFFF",
        "alignment": 0,
        "bold_width": 0.0,
        "italic": false,
        "underline": false,
        "background_color": "",
        "background_alpha": 1.0,
        "border_color": "#000000",
        "border_width": 2.0,
        "shadow": true,
        "shadow_color": "#000000",
        "shadow_offset_x": 1.0,
        "shadow_offset_y": 1.0
      },
      {
        "id": "6BB7C866-A131-4649-86B7-6EF5F40AB345",
        "words": "あなたが亡くなった後も、",
        "font_family": "",
        "font_size": 5.0,
        "font_color": "#FFFFFF",
        "alignment": 0,
        "bold_width": 0.0,
        "italic": false,
        "underline": false,
        "background_color": "",
        "background_alpha": 1.0,
        "border_color": "#000000",
        "border_width": 2.0,
        "shadow": true,
        "shadow_color": "#000000",
        "shadow_offset_x": 1.0,
        "shadow_offset_y": 1.0
      },
      {
        "id": "B19E4D95-3FE1-4236-9E65-601FAF96E501",
        "words": "金銭的な問題に直結するのが、\n「名義が不明な金融資産」です。",
        "font_family": "",
        "font_size": 5.0,
        "font_color": "#FFFFFF",
        "alignment": 0,
        "bold_width": 0.0,
        "italic": false,
        "underline": false,
        "background_color": "",
        "background_alpha": 1.0,
        "border_color": "#000000",
        "border_width": 2.0,
        "shadow": true,
        "shadow_color": "#000000",
        "shadow_offset_x": 1.0,
        "shadow_offset_y": 1.0
      },
      {
        "id": "738CEFB9-B2A7-48A9-AEAB-EF5509BCE87E",
        "words": "残された家族はそれを持って、",
        "font_family": "",
        "font_size": 5.0,
        "font_color": "#FFFFFF",
        "alignment": 0,
        "bold_width": 0.0,
        "italic": false,
        "underline": false,
        "background_color": "",
        "background_alpha": 1.0,
        "border_color": "#000000",
        "border_width": 2.0,
        "shadow": true,
        "shadow_color": "#000000",
        "shadow_offset_x": 1.0,
        "shadow_offset_y": 1.0
      },
      {
        "id": "5BCC9A4B-69F3-487F-851C-DB65A4792D83",
        "words": "多くの場合、",
        "font_family": "",
        "font_size": 5.0,
        "font_color": "#FFFFFF",
        "alignment": 0,
        "bold_width": 0.0,
        "italic": false,
        "underline": false,
        "background_color": "",
        "background_alpha": 1.0,
        "border_color": "#000000",
        "border_width": 2.0,
        "shadow": true,
        "shadow_color": "#000000",
        "shadow_offset_x": 1.0,
        "shadow_offset_y": 1.0
      },
      {
        "id": "FA47B7DD-699A-4D71-9193-BE9F85B08610",
        "words": "また「いつか使うかもしれない」という思いで溜め込\nんできたモノたちも、",
        "font_family": "",
        "font_size": 5.0,
        "font_color": "#FFFFFF",
        "alignment": 0,
        "bold_width": 0.0,
        "italic": false,
        "underline": false,
        "background_color": "",
        "background_alpha": 1.0,
        "border_color": "#000000",
        "border_width": 2.0,
        "shadow": true,
        "shadow_color": "#000000",
        "shadow_offset_x": 1.0,
        "shadow_offset_y": 1.0
      },
      {
        "id": "FC1C081A-940E-4FA5-AD30-B4C1140F8622",
        "words": "いつ来るか分からないお客様のためにと、",
        "font_family": "",
        "font_size": 5.0,
        "font_color": "#FFFFFF",
        "alignment": 0,
        "bold_width": 0.0,
        "italic": false,
        "underline": false,
        "background_color": "",
        "background_alpha": 1.0,
        "border_color": "#000000",
        "border_width": 2.0,
        "shadow": true,
        "shadow_color": "#000000",
        "shadow_offset_x": 1.0,
        "shadow_offset_y": 1.0
      },
      {
        "id": "1BE037F9-6DF4-47D8-92F3-ABF2A26D25BA",
        "words": "お金を払って処分しなければならない「粗大ゴミ」に\n変わってしまいます。",
        "font_family": "",
        "font_size": 5.0,
        "font_color": "#FFFFFF",
        "alignment": 0,
        "bold_width": 0.0,
        "italic": false,
        "underline": false,
        "background_color": "",
        "background_alpha": 1.0,
        "border_color": "#000000",
        "border_width": 2.0,
        "shadow": true,
        "shadow_color": "#000000",
        "shadow_offset_x": 1.0,
        "shadow_offset_y": 1.0
      },
      {
        "id": "9614AB3C-407F-4F1C-8F1A-5EAB1CC2049D",
        "words": "それを見るたびに生前のあなたの姿が思い出され、",
        "font_family": "",
        "font_size": 5.0,
        "font_color": "#FFFFFF",
        "alignment": 0,
        "bold_width": 0.0,
        "italic": false,
        "underline": false,
        "background_color": "",
        "background_alpha": 1.0,
        "border_color": "#000000",
        "border_width": 2.0,
        "shadow": true,
        "shadow_color": "#000000",
        "shadow_offset_x": 1.0,
        "shadow_offset_y": 1.0
      },
      {
        "id": "475BFB77-8167-4772-B05D-97CFFAF6F6C2",
        "words": "家族の心は揺れ動くのです。",
        "font_family": "",
        "font_size": 5.0,
        "font_color": "#FFFFFF",
        "alignment": 0,
        "bold_width": 0.0,
        "italic": false,
        "underline": false,
        "background_color": "",
        "background_alpha": 1.0,
        "border_color": "#000000",
        "border_width": 2.0,
        "shadow": true,
        "shadow_color": "#000000",
        "shadow_offset_x": 1.0,
        "shadow_offset_y": 1.0
      },
      {
        "id": "94D26843-457F-4E90-B3A0-DBCDC578A529",
        "words": "あなたが大切に手を合わせてきたそれらを、",
        "font_family": "",
        "font_size": 5.0,
        "font_color": "#FFFFFF",
        "alignment": 0,
        "bold_width": 0.0,
        "italic": false,
        "underline": false,
        "background_color": "",
        "background_alpha": 1.0,
        "border_color": "#000000",
        "border_width": 2.0,
        "shadow": true,
        "shadow_color": "#000000",
        "shadow_offset_x": 1.0,
        "shadow_offset_y": 1.0
      },
      {
        "id": "AB593B3E-52E9-4CE3-81EE-124CB81F65D7",
        "words": "経済的な余裕がなかったり。",
        "font_family": "",
        "font_size": 5.0,
        "font_color": "#FFFFFF",
        "alignment": 0,
        "bold_width": 0.0,
        "italic": false,
        "underline": false,
        "background_color": "",
        "background_alpha": 1.0,
        "border_color": "#000000",
        "border_width": 2.0,
        "shadow": true,
        "shadow_color": "#000000",
        "shadow_offset_x": 1.0,
        "shadow_offset_y": 1.0
      },
      {
        "id": "9D1E863A-2978-4418-97B9-820D818000A0",
        "words": "では、\n私たちはこの悲しい現実を前に何をすべきなのでしょ\nうか。",
        "font_family": "",
        "font_size": 5.0,
        "font_color": "#FFFFFF",
        "alignment": 0,
        "bold_width": 0.0,
        "italic": false,
        "underline": false,
        "background_color": "",
        "background_alpha": 1.0,
        "border_color": "#000000",
        "border_width": 2.0,
        "shadow": true,
        "shadow_color": "#000000",
        "shadow_offset_x": 1.0,
        "shadow_offset_y": 1.0
      },
      {
        "id": "D1B06758-B268-4889-A031-20867E013BAB",
        "words": "より晴れやかな気持ちで生きるための、",
        "font_family": "",
        "font_size": 5.0,
        "font_color": "#FFFFFF",
        "alignment": 0,
        "bold_width": 0.0,
        "italic": false,
        "underline": false,
        "background_color": "",
        "background_alpha": 1.0,
        "border_color": "#000000",
        "border_width": 2.0,
        "shadow": true,
        "shadow_color": "#000000",
        "shadow_offset_x": 1.0,
        "shadow_offset_y": 1.0
      },
      {
        "id": "E878ECFC-DE07-4ECA-B0BA-3ECE06DA3C1F",
        "words": "残された家族にとっては思い出という重りが加わり、",
        "font_family": "",
        "font_size": 5.0,
        "font_color": "#FFFFFF",
        "alignment": 0,
        "bold_width": 0.0,
        "italic": false,
        "underline": false,
        "background_color": "",
        "background_alpha": 1.0,
        "border_color": "#000000",
        "border_width": 2.0,
        "shadow": true,
        "shadow_color": "#000000",
        "shadow_offset_x": 1.0,
        "shadow_offset_y": 1.0
      },
      {
        "id": "E5FAB115-29AC-435C-B0AF-AF332619DED7",
        "words": "そしてどうしても残したいものや伝えたいことは、\n「エンディングノート」に書き記しましょう。",
        "font_family": "",
        "font_size": 5.0,
        "font_color": "#FFFFFF",
        "alignment": 0,
        "bold_width": 0.0,
        "italic": false,
        "underline": false,
        "background_color": "",
        "background_alpha": 1.0,
        "border_color": "#000000",
        "border_width": 2.0,
        "shadow": true,
        "shadow_color": "#000000",
        "shadow_offset_x": 1.0,
        "shadow_offset_y": 1.0
      },
      {
        "id": "409F75AD-C6E9-4672-9989-12D0F933C4C6",
        "words": "これは残された家族にとって、",
        "font_family": "",
        "font_size": 5.0,
        "font_color": "#FFFFFF",
        "alignment": 0,
        "bold_width": 0.0,
        "italic": false,
        "underline": false,
        "background_color": "",
        "background_alpha": 1.0,
        "border_color": "#000000",
        "border_width": 2.0,
        "shadow": true,
        "shadow_color": "#000000",
        "shadow_offset_x": 1.0,
        "shadow_offset_y": 1.0
      },
      {
        "id": "BA2546A2-4166-4EBD-8676-B1254D20A807",
        "words": "「この仏壇、将来どうしようか」",
        "font_family": "",
        "font_size": 5.0,
        "font_color": "#FFFFFF",
        "alignment": 0,
        "bold_width": 0.0,
        "italic": false,
        "underline": false,
        "background_color": "",
        "background_alpha": 1.0,
        "border_color": "#000000",
        "border_width": 2.0,
        "shadow": true,
        "shadow_color": "#000000",
        "shadow_offset_x": 1.0,
        "shadow_offset_y": 1.0
      },
      {
        "id": "B2B2747B-04C9-4EA4-9EFD-1D7566CD7A36",
        "words": "それはあなたの想いを託し、",
        "font_family": "",
        "font_size": 5.0,
        "font_color": "#FFFFFF",
        "alignment": 0,
        "bold_width": 0.0,
        "italic": false,
        "underline": false,
        "background_color": "",
        "background_alpha": 1.0,
        "border_color": "#000000",
        "border_width": 2.0,
        "shadow": true,
        "shadow_color": "#000000",
        "shadow_offset_x": 1.0,
        "shadow_offset_y": 1.0
      },
      {
        "id": "A5C4FAD3-1C58-422B-9903-E181DCC023A0",
        "words": "あなたの心は驚くほど軽く晴れやかになっているはず\nです。",
        "font_family": "",
        "font_size": 5.0,
        "font_color": "#FFFFFF",
        "alignment": 0,
        "bold_width": 0.0,
        "italic": false,
        "underline": false,
        "background_color": "",
        "background_alpha": 1.0,
        "border_color": "#000000",
        "border_width": 2.0,
        "shadow": true,
        "shadow_color": "#000000",
        "shadow_offset_x": 1.0,
        "shadow_offset_y": 1.0
      },
      {
        "id": "20FF8892-F7CA-43B4-8550-40BF0561CD62",
        "words": "今この瞬間を大切に生きる豊かな時間の始まりです。",
        "font_family": "",
        "font_size": 5.0,
        "font_color": "#FFFFFF",
        "alignment": 0,
        "bold_width": 0.0,
        "italic": false,
        "underline": false,
        "background_color": "",
        "background_alpha": 1.0,
        "border_color": "#000000",
        "border_width": 2.0,
        "shadow": true,
        "shadow_color": "#000000",
        "shadow_offset_x": 1.0,
        "shadow_offset_y": 1.0
      },
      {
        "id": "D9E3079A-B7FE-4C19-A466-2BEC10150523",
        "words": "感謝と愛情に満ちた温かい思い出であるべきです。",
        "font_family": "",
        "font_size": 5.0,
        "font_color": "#FFFFFF",
        "alignment": 0,
        "bold_width": 0.0,
        "italic": false,
        "underline": false,
        "background_color": "",
        "background_alpha": 1.0,
        "border_color": "#000000",
        "border_width": 2.0,
        "shadow": true,
        "shadow_color": "#000000",
        "shadow_offset_x": 1.0,
        "shadow_offset_y": 1.0
      },
      {
        "id": "1C9653FD-3BB1-4F39-BB62-E15B6E93DC5B",
        "words": "その小さな行動が、",
        "font_family": "",
        "font_size": 5.0,
        "font_color": "#FFFFFF",
        "alignment": 0,
        "bold_width": 0.0,
        "italic": false,
        "underline": false,
        "background_color": "",
        "background_alpha": 1.0,
        "border_color": "#000000",
        "border_width": 2.0,
        "shadow": true,
        "shadow_color": "#000000",
        "shadow_offset_x": 1.0,
        "shadow_offset_y": 1.0
      },
      {
        "id": "A79EED0A-1A01-4406-A3C5-83023ACC3AE4",
        "words": "しかしその悲しみが癒える間もなく、",
        "font_family": "",
        "font_size": 5.0,
        "font_color": "#FFFFFF",
        "alignment": 0,
        "bold_width": 0.0,
        "italic": false,
        "underline": false,
        "background_color": "",
        "background_alpha": 1.0,
        "border_color": "#000000",
        "border_width": 2.0,
        "shadow": true,
        "shadow_color": "#000000",
        "shadow_offset_x": 1.0,
        "shadow_offset_y": 1.0
      },
      {
        "id": "4026CE81-BBD9-4BF3-8A56-D00956676ADD",
        "words": "モノで溢れかえった部屋。",
        "font_family": "",
        "font_size": 5.0,
        "font_color": "#FFFFFF",
        "alignment": 0,
        "bold_width": 0.0,
        "italic": false,
        "underline": false,
        "background_color": "",
        "background_alpha": 1.0,
        "border_color": "#000000",
        "border_width": 2.0,
        "shadow": true,
        "shadow_color": "#000000",
        "shadow_offset_x": 1.0,
        "shadow_offset_y": 1.0
      },
      {
        "id": "22CB2560-5E94-4A0A-B405-33A99A72E59E",
        "words": "残された家族は悲しみに耐えながら、",
        "font_family": "",
        "font_size": 5.0,
        "font_color": "#FFFFFF",
        "alignment": 0,
        "bold_width": 0.0,
        "italic": false,
        "underline": false,
        "background_color": "",
        "background_alpha": 1.0,
        "border_color": "#000000",
        "border_width": 2.0,
        "shadow": true,
        "shadow_color": "#000000",
        "shadow_offset_x": 1.0,
        "shadow_offset_y": 1.0
      },
      {
        "id": "EC079AEE-3580-469C-A655-ED2F6CF3EE4C",
        "words": "お金、",
        "font_family": "",
        "font_size": 5.0,
        "font_color": "#FFFFFF",
        "alignment": 0,
        "bold_width": 0.0,
        "italic": false,
        "underline": false,
        "background_color": "",
        "background_alpha": 1.0,
        "border_color": "#000000",
        "border_width": 2.0,
        "shadow": true,
        "shadow_color": "#000000",
        "shadow_offset_x": 1.0,
        "shadow_offset_y": 1.0
      },
      {
        "id": "0DE13E5B-D603-4AD1-AB13-01B8C71CD1DB",
        "words": "愛する家族を苦める最大の原因になる。",
        "font_family": "",
        "font_size": 5.0,
        "font_color": "#FFFFFF",
        "alignment": 0,
        "bold_width": 0.0,
        "italic": false,
        "underline": false,
        "background_color": "",
        "background_alpha": 1.0,
        "border_color": "#000000",
        "border_width": 2.0,
        "shadow": true,
        "shadow_color": "#000000",
        "shadow_offset_x": 1.0,
        "shadow_offset_y": 1.0
      },
      {
        "id": "0792459B-C208-4C76-AA5C-70B93DA2D118",
        "words": "残される家族が最も処分に困るモノ、",
        "font_family": "",
        "font_size": 5.0,
        "font_color": "#FFFFFF",
        "alignment": 0,
        "bold_width": 0.0,
        "italic": false,
        "underline": false,
        "background_color": "",
        "background_alpha": 1.0,
        "border_color": "#000000",
        "border_width": 2.0,
        "shadow": true,
        "shadow_color": "#000000",
        "shadow_offset_x": 1.0,
        "shadow_offset_y": 1.0
      },
      {
        "id": "03FB2C2F-C9BF-430D-B672-B8E9472C77A3",
        "words": "あなたの人生の最期に、",
        "font_family": "",
        "font_size": 5.0,
        "font_color": "#FFFFFF",
        "alignment": 0,
        "bold_width": 0.0,
        "italic": false,
        "underline": false,
        "background_color": "",
        "background_alpha": 1.0,
        "border_color": "#000000",
        "border_width": 2.0,
        "shadow": true,
        "shadow_color": "#000000",
        "shadow_offset_x": 1.0,
        "shadow_offset_y": 1.0
      },
      {
        "id": "2702EEFD-BEA6-4C84-A999-C295F1FF0DCE",
        "words": "まず、残された家族を最も悩ませるモノの代表格は、\n「故人の趣味の収集品」です。",
        "font_family": "",
        "font_size": 5.0,
        "font_color": "#FFFFFF",
        "alignment": 0,
        "bold_width": 0.0,
        "italic": false,
        "underline": false,
        "background_color": "",
        "background_alpha": 1.0,
        "border_color": "#000000",
        "border_width": 2.0,
        "shadow": true,
        "shadow_color": "#000000",
        "shadow_offset_x": 1.0,
        "shadow_offset_y": 1.0
      },
      {
        "id": "4ED9622B-1BB4-4C93-ADA5-34E9BC62B3B1",
        "words": "あるいは手作りの木彫りの置物や、",
        "font_family": "",
        "font_size": 5.0,
        "font_color": "#FFFFFF",
        "alignment": 0,
        "bold_width": 0.0,
        "italic": false,
        "underline": false,
        "background_color": "",
        "background_alpha": 1.0,
        "border_color": "#000000",
        "border_width": 2.0,
        "shadow": true,
        "shadow_color": "#000000",
        "shadow_offset_x": 1.0,
        "shadow_offset_y": 1.0
      },
      {
        "id": "C552D612-3EDC-43EF-8C72-E8AC1FEBFCDA",
        "words": "しかし考えてみてください。",
        "font_family": "",
        "font_size": 5.0,
        "font_color": "#FFFFFF",
        "alignment": 0,
        "bold_width": 0.0,
        "italic": false,
        "underline": false,
        "background_color": "",
        "background_alpha": 1.0,
        "border_color": "#000000",
        "border_width": 2.0,
        "shadow": true,
        "shadow_color": "#000000",
        "shadow_offset_x": 1.0,
        "shadow_offset_y": 1.0
      },
      {
        "id": "A829F28F-4AB9-4512-BFD2-66509800B80A",
        "words": "多くの場合、",
        "font_family": "",
        "font_size": 5.0,
        "font_color": "#FFFFFF",
        "alignment": 0,
        "bold_width": 0.0,
        "italic": false,
        "underline": false,
        "background_color": "",
        "background_alpha": 1.0,
        "border_color": "#000000",
        "border_width": 2.0,
        "shadow": true,
        "shadow_color": "#000000",
        "shadow_offset_x": 1.0,
        "shadow_offset_y": 1.0
      },
      {
        "id": "AB392FE8-0D90-4286-86E9-FC514AF5E11A",
        "words": "ゴミとして無情に捨てることには強い罪悪感が伴いま\nす。",
        "font_family": "",
        "font_size": 5.0,
        "font_color": "#FFFFFF",
        "alignment": 0,
        "bold_width": 0.0,
        "italic": false,
        "underline": false,
        "background_color": "",
        "background_alpha": 1.0,
        "border_color": "#000000",
        "border_width": 2.0,
        "shadow": true,
        "shadow_color": "#000000",
        "shadow_offset_x": 1.0,
        "shadow_offset_y": 1.0
      },
      {
        "id": "FC7BA180-7798-4F66-9073-E0DC026FAEB2",
        "words": "次に、これもまた非常に厄介なのが、\n「大量の写真やアルバム」です。",
        "font_family": "",
        "font_size": 5.0,
        "font_color": "#FFFFFF",
        "alignment": 0,
        "bold_width": 0.0,
        "italic": false,
        "underline": false,
        "background_color": "",
        "background_alpha": 1.0,
        "border_color": "#000000",
        "border_width": 2.0,
        "shadow": true,
        "shadow_color": "#000000",
        "shadow_offset_x": 1.0,
        "shadow_offset_y": 1.0
      },
      {
        "id": "6673735B-9750-4852-873A-ECEA89560C9E",
        "words": "その全ての写真を保管し続けるのは物理的に不可能で\nす。",
        "font_family": "",
        "font_size": 5.0,
        "font_color": "#FFFFFF",
        "alignment": 0,
        "bold_width": 0.0,
        "italic": false,
        "underline": false,
        "background_color": "",
        "background_alpha": 1.0,
        "border_color": "#000000",
        "border_width": 2.0,
        "shadow": true,
        "shadow_color": "#000000",
        "shadow_offset_x": 1.0,
        "shadow_offset_y": 1.0
      },
      {
        "id": "A312C853-2FF3-41EA-B6BB-7218E513A060",
        "words": "どの写真を残し、",
        "font_family": "",
        "font_size": 5.0,
        "font_color": "#FFFFFF",
        "alignment": 0,
        "bold_width": 0.0,
        "italic": false,
        "underline": false,
        "background_color": "",
        "background_alpha": 1.0,
        "border_color": "#000000",
        "border_width": 2.0,
        "shadow": true,
        "shadow_color": "#000000",
        "shadow_offset_x": 1.0,
        "shadow_offset_y": 1.0
      },
      {
        "id": "67F1BE56-E59B-4553-854D-723E786CC431",
        "words": "そして現代ならではの、",
        "font_family": "",
        "font_size": 5.0,
        "font_color": "#FFFFFF",
        "alignment": 0,
        "bold_width": 0.0,
        "italic": false,
        "underline": false,
        "background_color": "",
        "background_alpha": 1.0,
        "border_color": "#000000",
        "border_width": 2.0,
        "shadow": true,
        "shadow_color": "#000000",
        "shadow_offset_x": 1.0,
        "shadow_offset_y": 1.0
      },
      {
        "id": "2E0E73FD-DC8C-4E3B-85B3-79F927E15CF7",
        "words": "ネット銀行の口座情報や有料サービスの契約情報など\n、",
        "font_family": "",
        "font_size": 5.0,
        "font_color": "#FFFFFF",
        "alignment": 0,
        "bold_width": 0.0,
        "italic": false,
        "underline": false,
        "background_color": "",
        "background_alpha": 1.0,
        "border_color": "#000000",
        "border_width": 2.0,
        "shadow": true,
        "shadow_color": "#000000",
        "shadow_offset_x": 1.0,
        "shadow_offset_y": 1.0
      },
      {
        "id": "01AAACB9-3869-4CFE-B24C-443354138B21",
        "words": "残された家族は、",
        "font_family": "",
        "font_size": 5.0,
        "font_color": "#FFFFFF",
        "alignment": 0,
        "bold_width": 0.0,
        "italic": false,
        "underline": false,
        "background_color": "",
        "background_alpha": 1.0,
        "border_color": "#000000",
        "border_width": 2.0,
        "shadow": true,
        "shadow_color": "#000000",
        "shadow_offset_x": 1.0,
        "shadow_offset_y": 1.0
      },
      {
        "id": "D89CEE83-AC3E-4F7D-96AC-D4B33071B789",
        "words": "永遠にオンライン上に存在し続けるかもしれません。",
        "font_family": "",
        "font_size": 5.0,
        "font_color": "#FFFFFF",
        "alignment": 0,
        "bold_width": 0.0,
        "italic": false,
        "underline": false,
        "background_color": "",
        "background_alpha": 1.0,
        "border_color": "#000000",
        "border_width": 2.0,
        "shadow": true,
        "shadow_color": "#000000",
        "shadow_offset_x": 1.0,
        "shadow_offset_y": 1.0
      },
      {
        "id": "2779A17C-2455-4023-B6CE-37168A70751B",
        "words": "遺品整理の際、",
        "font_family": "",
        "font_size": 5.0,
        "font_color": "#FFFFFF",
        "alignment": 0,
        "bold_width": 0.0,
        "italic": false,
        "underline": false,
        "background_color": "",
        "background_alpha": 1.0,
        "border_color": "#000000",
        "border_width": 2.0,
        "shadow": true,
        "shadow_color": "#000000",
        "shadow_offset_x": 1.0,
        "shadow_offset_y": 1.0
      },
      {
        "id": "B69DD7C2-FC7B-4106-99F8-2C6D801C36C3",
        "words": "一つひとつの銀行を回り、",
        "font_family": "",
        "font_size": 5.0,
        "font_color": "#FFFFFF",
        "alignment": 0,
        "bold_width": 0.0,
        "italic": false,
        "underline": false,
        "background_color": "",
        "background_alpha": 1.0,
        "border_color": "#000000",
        "border_width": 2.0,
        "shadow": true,
        "shadow_color": "#000000",
        "shadow_offset_x": 1.0,
        "shadow_offset_y": 1.0
      },
      {
        "id": "CC3C5F3F-0273-4577-BB8B-8AD52D64586F",
        "words": "その苦労の末に見つかるのはほんのわずかな金額だっ\nたりします。",
        "font_family": "",
        "font_size": 5.0,
        "font_color": "#FFFFFF",
        "alignment": 0,
        "bold_width": 0.0,
        "italic": false,
        "underline": false,
        "background_color": "",
        "background_alpha": 1.0,
        "border_color": "#000000",
        "border_width": 2.0,
        "shadow": true,
        "shadow_color": "#000000",
        "shadow_offset_x": 1.0,
        "shadow_offset_y": 1.0
      },
      {
        "id": "943D9976-F162-40AD-A36D-C990C6172AD9",
        "words": "家族を悩ませます。",
        "font_family": "",
        "font_size": 5.0,
        "font_color": "#FFFFFF",
        "alignment": 0,
        "bold_width": 0.0,
        "italic": false,
        "underline": false,
        "background_color": "",
        "background_alpha": 1.0,
        "border_color": "#000000",
        "border_width": 2.0,
        "shadow": true,
        "shadow_color": "#000000",
        "shadow_offset_x": 1.0,
        "shadow_offset_y": 1.0
      },
      {
        "id": "0FE87E0A-DCF0-46C6-8CD1-931AD922B175",
        "words": "押し入れの奥にしまい込まれた何組もの来客用の布団\n。",
        "font_family": "",
        "font_size": 5.0,
        "font_color": "#FFFFFF",
        "alignment": 0,
        "bold_width": 0.0,
        "italic": false,
        "underline": false,
        "background_color": "",
        "background_alpha": 1.0,
        "border_color": "#000000",
        "border_width": 2.0,
        "shadow": true,
        "shadow_color": "#000000",
        "shadow_offset_x": 1.0,
        "shadow_offset_y": 1.0
      },
      {
        "id": "7EAB76CC-F04C-4A60-82C1-B1B76397C162",
        "words": "故人の衣類も、",
        "font_family": "",
        "font_size": 5.0,
        "font_color": "#FFFFFF",
        "alignment": 0,
        "bold_width": 0.0,
        "italic": false,
        "underline": false,
        "background_color": "",
        "background_alpha": 1.0,
        "border_color": "#000000",
        "border_width": 2.0,
        "shadow": true,
        "shadow_color": "#000000",
        "shadow_offset_x": 1.0,
        "shadow_offset_y": 1.0
      },
      {
        "id": "B74C55A9-612E-42FF-B8FA-ACC5CF64797F",
        "words": "なかなか捨てる決心がつきません。",
        "font_family": "",
        "font_size": 5.0,
        "font_color": "#FFFFFF",
        "alignment": 0,
        "bold_width": 0.0,
        "italic": false,
        "underline": false,
        "background_color": "",
        "background_alpha": 1.0,
        "border_color": "#000000",
        "border_width": 2.0,
        "shadow": true,
        "shadow_color": "#000000",
        "shadow_offset_x": 1.0,
        "shadow_offset_y": 1.0
      },
      {
        "id": "6969FBFF-F722-4DDC-B1C5-8867F8CE7779",
        "words": "そして非常にデリケートな問題が、",
        "font_family": "",
        "font_size": 5.0,
        "font_color": "#FFFFFF",
        "alignment": 0,
        "bold_width": 0.0,
        "italic": false,
        "underline": false,
        "background_color": "",
        "background_alpha": 1.0,
        "border_color": "#000000",
        "border_width": 2.0,
        "shadow": true,
        "shadow_color": "#000000",
        "shadow_offset_x": 1.0,
        "shadow_offset_y": 1.0
      },
      {
        "id": "C1A0762F-C641-4E3C-BA13-E2696631EFC9",
        "words": "子供や孫の世代が同じように守り続けてくれるとは限\nりません。",
        "font_family": "",
        "font_size": 5.0,
        "font_color": "#FFFFFF",
        "alignment": 0,
        "bold_width": 0.0,
        "italic": false,
        "underline": false,
        "background_color": "",
        "background_alpha": 1.0,
        "border_color": "#000000",
        "border_width": 2.0,
        "shadow": true,
        "shadow_color": "#000000",
        "shadow_offset_x": 1.0,
        "shadow_offset_y": 1.0
      },
      {
        "id": "5E70974D-0F65-451F-9044-947F0E77DDF3",
        "words": "管理できないものを引き継がせることは、",
        "font_family": "",
        "font_size": 5.0,
        "font_color": "#FFFFFF",
        "alignment": 0,
        "bold_width": 0.0,
        "italic": false,
        "underline": false,
        "background_color": "",
        "background_alpha": 1.0,
        "border_color": "#000000",
        "border_width": 2.0,
        "shadow": true,
        "shadow_color": "#000000",
        "shadow_offset_x": 1.0,
        "shadow_offset_y": 1.0
      },
      {
        "id": "21EDD516-3B06-4554-82CC-73986E861528",
        "words": "その答えが「生前整理」です。",
        "font_family": "",
        "font_size": 5.0,
        "font_color": "#FFFFFF",
        "alignment": 0,
        "bold_width": 0.0,
        "italic": false,
        "underline": false,
        "background_color": "",
        "background_alpha": 1.0,
        "border_color": "#000000",
        "border_width": 2.0,
        "shadow": true,
        "shadow_color": "#000000",
        "shadow_offset_x": 1.0,
        "shadow_offset_y": 1.0
      },
      {
        "id": "D898D432-A147-4EC9-8B33-DD883F3C151C",
        "words": "そして家族へ最後の贈り物を準備するためのポジティ\nブな活動なのです。",
        "font_family": "",
        "font_size": 5.0,
        "font_color": "#FFFFFF",
        "alignment": 0,
        "bold_width": 0.0,
        "italic": false,
        "underline": false,
        "background_color": "",
        "background_alpha": 1.0,
        "border_color": "#000000",
        "border_width": 2.0,
        "shadow": true,
        "shadow_color": "#000000",
        "shadow_offset_x": 1.0,
        "shadow_offset_y": 1.0
      },
      {
        "id": "FC23989B-71AD-4226-AB6D-8B9399CCC17E",
        "words": "何倍も難しいものになります。",
        "font_family": "",
        "font_size": 5.0,
        "font_color": "#FFFFFF",
        "alignment": 0,
        "bold_width": 0.0,
        "italic": false,
        "underline": false,
        "background_color": "",
        "background_alpha": 1.0,
        "border_color": "#000000",
        "border_width": 2.0,
        "shadow": true,
        "shadow_color": "#000000",
        "shadow_offset_x": 1.0,
        "shadow_offset_y": 1.0
      },
      {
        "id": "30FB6BB8-FCCB-4D7E-997B-47177C3D1E97",
        "words": "銀行口座や保険の情報、",
        "font_family": "",
        "font_size": 5.0,
        "font_color": "#FFFFFF",
        "alignment": 0,
        "bold_width": 0.0,
        "italic": false,
        "underline": false,
        "background_color": "",
        "background_alpha": 1.0,
        "border_color": "#000000",
        "border_width": 2.0,
        "shadow": true,
        "shadow_color": "#000000",
        "shadow_offset_x": 1.0,
        "shadow_offset_y": 1.0
      },
      {
        "id": "79C5A85E-C3B5-417B-A38A-CC5821C54DFA",
        "words": "暗闇を照らす灯台の光のような、",
        "font_family": "",
        "font_size": 5.0,
        "font_color": "#FFFFFF",
        "alignment": 0,
        "bold_width": 0.0,
        "italic": false,
        "underline": false,
        "background_color": "",
        "background_alpha": 1.0,
        "border_color": "#000000",
        "border_width": 2.0,
        "shadow": true,
        "shadow_color": "#000000",
        "shadow_offset_x": 1.0,
        "shadow_offset_y": 1.0
      },
      {
        "id": "9BCAC525-A41D-4957-ACD7-D6F18A980AEF",
        "words": "「私のお墓のことなんだけど」と、",
        "font_family": "",
        "font_size": 5.0,
        "font_color": "#FFFFFF",
        "alignment": 0,
        "bold_width": 0.0,
        "italic": false,
        "underline": false,
        "background_color": "",
        "background_alpha": 1.0,
        "border_color": "#000000",
        "border_width": 2.0,
        "shadow": true,
        "shadow_color": "#000000",
        "shadow_offset_x": 1.0,
        "shadow_offset_y": 1.0
      },
      {
        "id": "98883AA0-4D28-4670-90F7-A86948711435",
        "words": "家族の負担を軽くするための重要な「人生会議」です\n。",
        "font_family": "",
        "font_size": 5.0,
        "font_color": "#FFFFFF",
        "alignment": 0,
        "bold_width": 0.0,
        "italic": false,
        "underline": false,
        "background_color": "",
        "background_alpha": 1.0,
        "border_color": "#000000",
        "border_width": 2.0,
        "shadow": true,
        "shadow_color": "#000000",
        "shadow_offset_x": 1.0,
        "shadow_offset_y": 1.0
      },
      {
        "id": "B1EEDF6F-19AA-4BD4-B731-9ACCDA8E31A7",
        "words": "スッキリと片付いた部屋で、",
        "font_family": "",
        "font_size": 5.0,
        "font_color": "#FFFFFF",
        "alignment": 0,
        "bold_width": 0.0,
        "italic": false,
        "underline": false,
        "background_color": "",
        "background_alpha": 1.0,
        "border_color": "#000000",
        "border_width": 2.0,
        "shadow": true,
        "shadow_color": "#000000",
        "shadow_offset_x": 1.0,
        "shadow_offset_y": 1.0
      },
      {
        "id": "ABF20587-EF1F-4F8B-AAD2-F30B97A8A16D",
        "words": "あなたの人生の締めくくりを、",
        "font_family": "",
        "font_size": 5.0,
        "font_color": "#FFFFFF",
        "alignment": 0,
        "bold_width": 0.0,
        "italic": false,
        "underline": false,
        "background_color": "",
        "background_alpha": 1.0,
        "border_color": "#000000",
        "border_width": 2.0,
        "shadow": true,
        "shadow_color": "#000000",
        "shadow_offset_x": 1.0,
        "shadow_offset_y": 1.0
      },
      {
        "id": "53AE6074-51D2-43AD-AC3E-F35ED885D748",
        "words": "そのための第一歩を、",
        "font_family": "",
        "font_size": 5.0,
        "font_color": "#FFFFFF",
        "alignment": 0,
        "bold_width": 0.0,
        "italic": false,
        "underline": false,
        "background_color": "",
        "background_alpha": 1.0,
        "border_color": "#000000",
        "border_width": 2.0,
        "shadow": true,
        "shadow_color": "#000000",
        "shadow_offset_x": 1.0,
        "shadow_offset_y": 1.0
      },
      {
        "id": "7EAA440E-4421-4A04-9AAA-DDBD38D92AC2",
        "words": "あなたとあなたの愛する家族の未来を、",
        "font_family": "",
        "font_size": 5.0,
        "font_color": "#FFFFFF",
        "alignment": 0,
        "bold_width": 0.0,
        "italic": false,
        "underline": false,
        "background_color": "",
        "background_alpha": 1.0,
        "border_color": "#000000",
        "border_width": 2.0,
        "shadow": true,
        "shadow_color": "#000000",
        "shadow_offset_x": 1.0,
        "shadow_offset_y": 1.0
      }
    ],
    "audios": [],
    "videos": [
      {
        "audio_fade": null,
        "category_id": "",
        "category_name": "local",
        "check_flag": 63487,
        "crop": {
          "upper_left_x": 0.0,
          "upper_left_y": 0.0,
          "upper_right_x": 1.0,
          "upper_right_y": 0.0,
          "lower_left_x": 0.0,
          "lower_left_y": 1.0,
          "lower_right_x": 1.0,
          "lower_right_y": 1.0
        },
        "crop_ratio": "free",
        "crop_scale": 1.0,
        "duration": 1300000,
        "height": 1080,
        "id": "1A0CCA7B-2050-4C2F-8504-B6894961B5B9",
        "local_material_id": "",
        "material_id": "1A0CCA7B-2050-4C2F-8504-B6894961B5B9",
        "material_name": "1.mp4",
        "media_path": "",
        "path": "/Users/dd/srt2images-timeline/最新(一括1) 見出しを追加/1.mp4",
        "remote_url": null,
        "type": "video",
        "width": 1920
      },
      {
        "audio_fade": null,
        "category_id": "",
        "category_name": "local",
        "check_flag": 63487,
        "crop": {
          "upper_left_x": 0.0,
          "upper_left_y": 0.0,
          "upper_right_x": 1.0,
          "upper_right_y": 0.0,
          "lower_left_x": 0.0,
          "lower_left_y": 1.0,
          "lower_right_x": 1.0,
          "lower_right_y": 1.0
        },
        "crop_ratio": "free",
        "crop_scale": 1.0,
        "duration": 1300000,
        "height": 1080,
        "id": "1C0F3E88-3214-493F-A2A7-733BE8D0AF8C",
        "local_material_id": "",
        "material_id": "1C0F3E88-3214-493F-A2A7-733BE8D0AF8C",
        "material_name": "2.mp4",
        "media_path": "",
        "path": "/Users/dd/srt2images-timeline/最新(一括1) 見出しを追加/2.mp4",
        "remote_url": null,
        "type": "video",
        "width": 1920
      },
      {
        "audio_fade": null,
        "category_id": "",
        "category_name": "local",
        "check_flag": 63487,
        "crop": {
          "upper_left_x": 0.0,
          "upper_left_y": 0.0,
          "upper_right_x": 1.0,
          "upper_right_y": 0.0,
          "lower_left_x": 0.0,
          "lower_left_y": 1.0,
          "lower_right_x": 1.0,
          "lower_right_y": 1.0
        },
        "crop_ratio": "free",
        "crop_scale": 1.0,
        "duration": 1300000,
        "height": 1080,
        "id": "B107B572-8BDF-4C26-9061-8FB8F1BD06DA",
        "local_material_id": "",
        "material_id": "B107B572-8BDF-4C26-9061-8FB8F1BD06DA",
        "material_name": "3.mp4",
        "media_path": "",
        "path": "/Users/dd/srt2images-timeline/最新(一括1) 見出しを追加/3.mp4",
        "remote_url": null,
        "type": "video",
        "width": 1920
      },
      {
        "audio_fade": null,
        "category_id": "",
        "category_name": "local",
        "check_flag": 63487,
        "crop": {
          "upper_left_x": 0.0,
          "upper_left_y": 0.0,
          "upper_right_x": 1.0,
          "upper_right_y": 0.0,
          "lower_left_x": 0.0,
          "lower_left_y": 1.0,
          "lower_right_x": 1.0,
          "lower_right_y": 1.0
        },
        "crop_ratio": "free",
        "crop_scale": 1.0,
        "duration": 1300000,
        "height": 1080,
        "id": "5AAD8AE6-0BC8-4317-9CC1-1C05B89A6595",
        "local_material_id": "",
        "material_id": "5AAD8AE6-0BC8-4317-9CC1-1C05B89A6595",
        "material_name": "4.mp4",
        "media_path": "",
        "path": "/Users/dd/srt2images-timeline/最新(一括1) 見出しを追加/4.mp4",
        "remote_url": null,
        "type": "video",
        "width": 1920
      },
      {
        "audio_fade": null,
        "category_id": "",
        "category_name": "local",
        "check_flag": 63487,
        "crop": {
          "upper_left_x": 0.0,
          "upper_left_y": 0.0,
          "upper_right_x": 1.0,
          "upper_right_y": 0.0,
          "lower_left_x": 0.0,
          "lower_left_y": 1.0,
          "lower_right_x": 1.0,
          "lower_right_y": 1.0
        },
        "crop_ratio": "free",
        "crop_scale": 1.0,
        "duration": 1300000,
        "height": 1080,
        "id": "BC543B99-623B-4F65-803A-19154999447E",
        "local_material_id": "",
        "material_id": "BC543B99-623B-4F65-803A-19154999447E",
        "material_name": "5.mp4",
        "media_path": "",
        "path": "/Users/dd/srt2images-timeline/最新(一括1) 見出しを追加/5.mp4",
        "remote_url": null,
        "type": "video",
        "width": 1920
      },
      {
        "audio_fade": null,
        "category_id": "",
        "category_name": "local",
        "check_flag": 63487,
        "crop": {
          "upper_left_x": 0.0,
          "upper_left_y": 0.0,
          "upper_right_x": 1.0,
          "upper_right_y": 0.0,
          "lower_left_x": 0.0,
          "lower_left_y": 1.0,
          "lower_right_x": 1.0,
          "lower_right_y": 1.0
        },
        "crop_ratio": "free",
        "crop_scale": 1.0,
        "duration": 1300000,
        "height": 1080,
        "id": "30166577-5D4F-4712-9502-D7BD07B1324E",
        "local_material_id": "",
        "material_id": "30166577-5D4F-4712-9502-D7BD07B1324E",
        "material_name": "6.mp4",
        "media_path": "",
        "path": "/Users/dd/srt2images-timeline/最新(一括1) 見出しを追加/6.mp4",
        "remote_url": null,
        "type": "video",
        "width": 1920
      },
      {
        "audio_fade": null,
        "category_id": "",
        "category_name": "local",
        "check_flag": 63487,
        "crop": {
          "upper_left_x": 0.0,
          "upper_left_y": 0.0,
          "upper_right_x": 1.0,
          "upper_right_y": 0.0,
          "lower_left_x": 0.0,
          "lower_left_y": 1.0,
          "lower_right_x": 1.0,
          "lower_right_y": 1.0
        },
        "crop_ratio": "free",
        "crop_scale": 1.0,
        "duration": 1300000,
        "height": 1080,
        "id": "B609FFF3-C374-4DDF-838D-C984C2E4AB31",
        "local_material_id": "",
        "material_id": "B609FFF3-C374-4DDF-838D-C984C2E4AB31",
        "material_name": "7.mp4",
        "media_path": "",
        "path": "/Users/dd/srt2images-timeline/最新(一括1) 見出しを追加/7.mp4",
        "remote_url": null,
        "type": "video",
        "width": 1920
      },
      {
        "audio_fade": null,
        "category_id": "",
        "category_name": "local",
        "check_flag": 63487,
        "crop": {
          "upper_left_x": 0.0,
          "upper_left_y": 0.0,
          "upper_right_x": 1.0,
          "upper_right_y": 0.0,
          "lower_left_x": 0.0,
          "lower_left_y": 1.0,
          "lower_right_x": 1.0,
          "lower_right_y": 1.0
        },
        "crop_ratio": "free",
        "crop_scale": 1.0,
        "duration": 1300000,
        "height": 1080,
        "id": "28A7BAF0-6A10-42EE-889E-17C42E9D0417",
        "local_material_id": "",
        "material_id": "28A7BAF0-6A10-42EE-889E-17C42E9D0417",
        "material_name": "8.mp4",
        "media_path": "",
        "path": "/Users/dd/srt2images-timeline/最新(一括1) 見出しを追加/8.mp4",
        "remote_url": null,
        "type": "video",
        "width": 1920
      },
      {
        "audio_fade": null,
        "category_id": "",
        "category_name": "local",
        "check_flag": 63487,
        "crop": {
          "upper_left_x": 0.0,
          "upper_left_y": 0.0,
          "upper_right_x": 1.0,
          "upper_right_y": 0.0,
          "lower_left_x": 0.0,
          "lower_left_y": 1.0,
          "lower_right_x": 1.0,
          "lower_right_y": 1.0
        },
        "crop_ratio": "free",
        "crop_scale": 1.0,
        "duration": 1300000,
        "height": 1080,
        "id": "E6430AE3-A549-45C4-896F-4829DD9C5321",
        "local_material_id": "",
        "material_id": "E6430AE3-A549-45C4-896F-4829DD9C5321",
        "material_name": "9.mp4",
        "media_path": "",
        "path": "/Users/dd/srt2images-timeline/最新(一括1) 見出しを追加/9.mp4",
        "remote_url": null,
        "type": "video",
        "width": 1920
      },
      {
        "audio_fade": null,
        "category_id": "",
        "category_name": "local",
        "check_flag": 63487,
        "crop": {
          "upper_left_x": 0.0,
          "upper_left_y": 0.0,
          "upper_right_x": 1.0,
          "upper_right_y": 0.0,
          "lower_left_x": 0.0,
          "lower_left_y": 1.0,
          "lower_right_x": 1.0,
          "lower_right_y": 1.0
        },
        "crop_ratio": "free",
        "crop_scale": 1.0,
        "duration": 1300000,
        "height": 1080,
        "id": "4D2D7529-E09F-4440-B9CF-B2E282C37353",
        "local_material_id": "",
        "material_id": "4D2D7529-E09F-4440-B9CF-B2E282C37353",
        "material_name": "10.mp4",
        "media_path": "",
        "path": "/Users/dd/srt2images-timeline/最新(一括1) 見出しを追加/10.mp4",
        "remote_url": null,
        "type": "video",
        "width": 1920
      },
      {
        "audio_fade": null,
        "category_id": "",
        "category_name": "local",
        "check_flag": 63487,
        "crop": {
          "upper_left_x": 0.0,
          "upper_left_y": 0.0,
          "upper_right_x": 1.0,
          "upper_right_y": 0.0,
          "lower_left_x": 0.0,
          "lower_left_y": 1.0,
          "lower_right_x": 1.0,
          "lower_right_y": 1.0
        },
        "crop_ratio": "free",
        "crop_scale": 1.0,
        "duration": 1300000,
        "height": 1080,
        "id": "BF15EDB6-60FD-41E9-9899-433477189D1C",
        "local_material_id": "",
        "material_id": "BF15EDB6-60FD-41E9-9899-433477189D1C",
        "material_name": "11.mp4",
        "media_path": "",
        "path": "/Users/dd/srt2images-timeline/最新(一括1) 見出しを追加/11.mp4",
        "remote_url": null,
        "type": "video",
        "width": 1920
      },
      {
        "audio_fade": null,
        "category_id": "",
        "category_name": "local",
        "check_flag": 63487,
        "crop": {
          "upper_left_x": 0.0,
          "upper_left_y": 0.0,
          "upper_right_x": 1.0,
          "upper_right_y": 0.0,
          "lower_left_x": 0.0,
          "lower_left_y": 1.0,
          "lower_right_x": 1.0,
          "lower_right_y": 1.0
        },
        "crop_ratio": "free",
        "crop_scale": 1.0,
        "duration": 1300000,
        "height": 1080,
        "id": "04CB1D87-68A7-4867-A8AA-88616DD6AA4D",
        "local_material_id": "",
        "material_id": "04CB1D87-68A7-4867-A8AA-88616DD6AA4D",
        "material_name": "12.mp4",
        "media_path": "",
        "path": "/Users/dd/srt2images-timeline/最新(一括1) 見出しを追加/12.mp4",
        "remote_url": null,
        "type": "video",
        "width": 1920
      },
      {
        "audio_fade": null,
        "category_id": "",
        "category_name": "local",
        "check_flag": 63487,
        "crop": {
          "upper_left_x": 0.0,
          "upper_left_y": 0.0,
          "upper_right_x": 1.0,
          "upper_right_y": 0.0,
          "lower_left_x": 0.0,
          "lower_left_y": 1.0,
          "lower_right_x": 1.0,
          "lower_right_y": 1.0
        },
        "crop_ratio": "free",
        "crop_scale": 1.0,
        "duration": 1300000,
        "height": 1080,
        "id": "720DE09E-A34C-48AD-B132-91DEF1EDF161",
        "local_material_id": "",
        "material_id": "720DE09E-A34C-48AD-B132-91DEF1EDF161",
        "material_name": "13.mp4",
        "media_path": "",
        "path": "/Users/dd/srt2images-timeline/最新(一括1) 見出しを追加/13.mp4",
        "remote_url": null,
        "type": "video",
        "width": 1920
      },
      {
        "audio_fade": null,
        "category_id": "",
        "category_name": "local",
        "check_flag": 63487,
        "crop": {
          "upper_left_x": 0.0,
          "upper_left_y": 0.0,
          "upper_right_x": 1.0,
          "upper_right_y": 0.0,
          "lower_left_x": 0.0,
          "lower_left_y": 1.0,
          "lower_right_x": 1.0,
          "lower_right_y": 1.0
        },
        "crop_ratio": "free",
        "crop_scale": 1.0,
        "duration": 1300000,
        "height": 1080,
        "id": "33DC7A90-B935-4BC0-8489-F4D7712E6F87",
        "local_material_id": "",
        "material_id": "33DC7A90-B935-4BC0-8489-F4D7712E6F87",
        "material_name": "14.mp4",
        "media_path": "",
        "path": "/Users/dd/srt2images-timeline/最新(一括1) 見出しを追加/14.mp4",
        "remote_url": null,
        "type": "video",
        "width": 1920
      },
      {
        "audio_fade": null,
        "category_id": "",
        "category_name": "local",
        "check_flag": 63487,
        "crop": {
          "upper_left_x": 0.0,
          "upper_left_y": 0.0,
          "upper_right_x": 1.0,
          "upper_right_y": 0.0,
          "lower_left_x": 0.0,
          "lower_left_y": 1.0,
          "lower_right_x": 1.0,
          "lower_right_y": 1.0
        },
        "crop_ratio": "free",
        "crop_scale": 1.0,
        "duration": 1300000,
        "height": 1080,
        "id": "5557CEA7-A584-4E7A-B346-832F2BD22EC1",
        "local_material_id": "",
        "material_id": "5557CEA7-A584-4E7A-B346-832F2BD22EC1",
        "material_name": "15.mp4",
        "media_path": "",
        "path": "/Users/dd/srt2images-timeline/最新(一括1) 見出しを追加/15.mp4",
        "remote_url": null,
        "type": "video",
        "width": 1920
      },
      {
        "audio_fade": null,
        "category_id": "",
        "category_name": "local",
        "check_flag": 63487,
        "crop": {
          "upper_left_x": 0.0,
          "upper_left_y": 0.0,
          "upper_right_x": 1.0,
          "upper_right_y": 0.0,
          "lower_left_x": 0.0,
          "lower_left_y": 1.0,
          "lower_right_x": 1.0,
          "lower_right_y": 1.0
        },
        "crop_ratio": "free",
        "crop_scale": 1.0,
        "duration": 1300000,
        "height": 1080,
        "id": "BCE5592A-8FF3-476C-9EBB-4F90DB8228B9",
        "local_material_id": "",
        "material_id": "BCE5592A-8FF3-476C-9EBB-4F90DB8228B9",
        "material_name": "16.mp4",
        "media_path": "",
        "path": "/Users/dd/srt2images-timeline/最新(一括1) 見出しを追加/16.mp4",
        "remote_url": null,
        "type": "video",
        "width": 1920
      },
      {
        "audio_fade": null,
        "category_id": "",
        "category_name": "local",
        "check_flag": 63487,
        "crop": {
          "upper_left_x": 0.0,
          "upper_left_y": 0.0,
          "upper_right_x": 1.0,
          "upper_right_y": 0.0,
          "lower_left_x": 0.0,
          "lower_left_y": 1.0,
          "lower_right_x": 1.0,
          "lower_right_y": 1.0
        },
        "crop_ratio": "free",
        "crop_scale": 1.0,
        "duration": 1300000,
        "height": 1080,
        "id": "3D411CC5-6645-4D0B-A88D-2D53A22F23B7",
        "local_material_id": "",
        "material_id": "3D411CC5-6645-4D0B-A88D-2D53A22F23B7",
        "material_name": "17.mp4",
        "media_path": "",
        "path": "/Users/dd/srt2images-timeline/最新(一括1) 見出しを追加/17.mp4",
        "remote_url": null,
        "type": "video",
        "width": 1920
      },
      {
        "audio_fade": null,
        "category_id": "",
        "category_name": "local",
        "check_flag": 63487,
        "crop": {
          "upper_left_x": 0.0,
          "upper_left_y": 0.0,
          "upper_right_x": 1.0,
          "upper_right_y": 0.0,
          "lower_left_x": 0.0,
          "lower_left_y": 1.0,
          "lower_right_x": 1.0,
          "lower_right_y": 1.0
        },
        "crop_ratio": "free",
        "crop_scale": 1.0,
        "duration": 1300000,
        "height": 1080,
        "id": "EE85099A-1766-4537-9372-894ED0613870",
        "local_material_id": "",
        "material_id": "EE85099A-1766-4537-9372-894ED0613870",
        "material_name": "18.mp4",
        "media_path": "",
        "path": "/Users/dd/srt2images-timeline/最新(一括1) 見出しを追加/18.mp4",
        "remote_url": null,
        "type": "video",
        "width": 1920
      },
      {
        "audio_fade": null,
        "category_id": "",
        "category_name": "local",
        "check_flag": 63487,
        "crop": {
          "upper_left_x": 0.0,
          "upper_left_y": 0.0,
          "upper_right_x": 1.0,
          "upper_right_y": 0.0,
          "lower_left_x": 0.0,
          "lower_left_y": 1.0,
          "lower_right_x": 1.0,
          "lower_right_y": 1.0
        },
        "crop_ratio": "free",
        "crop_scale": 1.0,
        "duration": 1300000,
        "height": 1080,
        "id": "EE0407EB-A61C-40D1-85A5-D1DFFDB080AD",
        "local_material_id": "",
        "material_id": "EE0407EB-A61C-40D1-85A5-D1DFFDB080AD",
        "material_name": "19.mp4",
        "media_path": "",
        "path": "/Users/dd/srt2images-timeline/最新(一括1) 見出しを追加/19.mp4",
        "remote_url": null,
        "type": "video",
        "width": 1920
      },
      {
        "audio_fade": null,
        "category_id": "",
        "category_name": "local",
        "check_flag": 63487,
        "crop": {
          "upper_left_x": 0.0,
          "upper_left_y": 0.0,
          "upper_right_x": 1.0,
          "upper_right_y": 0.0,
          "lower_left_x": 0.0,
          "lower_left_y": 1.0,
          "lower_right_x": 1.0,
          "lower_right_y": 1.0
        },
        "crop_ratio": "free",
        "crop_scale": 1.0,
        "duration": 1300000,
        "height": 1080,
        "id": "F5F78DD7-06CC-4634-9015-9F1DD5E9E147",
        "local_material_id": "",
        "material_id": "F5F78DD7-06CC-4634-9015-9F1DD5E9E147",
        "material_name": "20.mp4",
        "media_path": "",
        "path": "/Users/dd/srt2images-timeline/最新(一括1) 見出しを追加/20.mp4",
        "remote_url": null,
        "type": "video",
        "width": 1920
      },
      {
        "audio_fade": null,
        "category_id": "",
        "category_name": "local",
        "check_flag": 63487,
        "crop": {
          "upper_left_x": 0.0,
          "upper_left_y": 0.0,
          "upper_right_x": 1.0,
          "upper_right_y": 0.0,
          "lower_left_x": 0.0,
          "lower_left_y": 1.0,
          "lower_right_x": 1.0,
          "lower_right_y": 1.0
        },
        "crop_ratio": "free",
        "crop_scale": 1.0,
        "duration": 1300000,
        "height": 1080,
        "id": "FD45F6EF-6583-4879-AA63-B08219259DB1",
        "local_material_id": "",
        "material_id": "FD45F6EF-6583-4879-AA63-B08219259DB1",
        "material_name": "21.mp4",
        "media_path": "",
        "path": "/Users/dd/srt2images-timeline/最新(一括1) 見出しを追加/21.mp4",
        "remote_url": null,
        "type": "video",
        "width": 1920
      },
      {
        "audio_fade": null,
        "category_id": "",
        "category_name": "local",
        "check_flag": 63487,
        "crop": {
          "upper_left_x": 0.0,
          "upper_left_y": 0.0,
          "upper_right_x": 1.0,
          "upper_right_y": 0.0,
          "lower_left_x": 0.0,
          "lower_left_y": 1.0,
          "lower_right_x": 1.0,
          "lower_right_y": 1.0
        },
        "crop_ratio": "free",
        "crop_scale": 1.0,
        "duration": 1300000,
        "height": 1080,
        "id": "C41D811F-BE84-4B44-A7F7-F457C4923F70",
        "local_material_id": "",
        "material_id": "C41D811F-BE84-4B44-A7F7-F457C4923F70",
        "material_name": "22.mp4",
        "media_path": "",
        "path": "/Users/dd/srt2images-timeline/最新(一括1) 見出しを追加/22.mp4",
        "remote_url": null,
        "type": "video",
        "width": 1920
      },
      {
        "audio_fade": null,
        "category_id": "",
        "category_name": "local",
        "check_flag": 63487,
        "crop": {
          "upper_left_x": 0.0,
          "upper_left_y": 0.0,
          "upper_right_x": 1.0,
          "upper_right_y": 0.0,
          "lower_left_x": 0.0,
          "lower_left_y": 1.0,
          "lower_right_x": 1.0,
          "lower_right_y": 1.0
        },
        "crop_ratio": "free",
        "crop_scale": 1.0,
        "duration": 1300000,
        "height": 1080,
        "id": "636C6945-4B04-4A95-A39F-E7F3556EF177",
        "local_material_id": "",
        "material_id": "636C6945-4B04-4A95-A39F-E7F3556EF177",
        "material_name": "23.mp4",
        "media_path": "",
        "path": "/Users/dd/srt2images-timeline/最新(一括1) 見出しを追加/23.mp4",
        "remote_url": null,
        "type": "video",
        "width": 1920
      },
      {
        "audio_fade": null,
        "category_id": "",
        "category_name": "local",
        "check_flag": 63487,
        "crop": {
          "upper_left_x": 0.0,
          "upper_left_y": 0.0,
          "upper_right_x": 1.0,
          "upper_right_y": 0.0,
          "lower_left_x": 0.0,
          "lower_left_y": 1.0,
          "lower_right_x": 1.0,
          "lower_right_y": 1.0
        },
        "crop_ratio": "free",
        "crop_scale": 1.0,
        "duration": 1300000,
        "height": 1080,
        "id": "4F314C88-C091-4ED6-BFAC-7AF6ED49A9DB",
        "local_material_id": "",
        "material_id": "4F314C88-C091-4ED6-BFAC-7AF6ED49A9DB",
        "material_name": "24.mp4",
        "media_path": "",
        "path": "/Users/dd/srt2images-timeline/最新(一括1) 見出しを追加/24.mp4",
        "remote_url": null,
        "type": "video",
        "width": 1920
      },
      {
        "audio_fade": null,
        "category_id": "",
        "category_name": "local",
        "check_flag": 63487,
        "crop": {
          "upper_left_x": 0.0,
          "upper_left_y": 0.0,
          "upper_right_x": 1.0,
          "upper_right_y": 0.0,
          "lower_left_x": 0.0,
          "lower_left_y": 1.0,
          "lower_right_x": 1.0,
          "lower_right_y": 1.0
        },
        "crop_ratio": "free",
        "crop_scale": 1.0,
        "duration": 1300000,
        "height": 1080,
        "id": "7A6FEAC5-C25F-4688-B5F5-F5FAF9CA29E5",
        "local_material_id": "",
        "material_id": "7A6FEAC5-C25F-4688-B5F5-F5FAF9CA29E5",
        "material_name": "25.mp4",
        "media_path": "",
        "path": "/Users/dd/srt2images-timeline/最新(一括1) 見出しを追加/25.mp4",
        "remote_url": null,
        "type": "video",
        "width": 1920
      },
      {
        "audio_fade": null,
        "category_id": "",
        "category_name": "local",
        "check_flag": 63487,
        "crop": {
          "upper_left_x": 0.0,
          "upper_left_y": 0.0,
          "upper_right_x": 1.0,
          "upper_right_y": 0.0,
          "lower_left_x": 0.0,
          "lower_left_y": 1.0,
          "lower_right_x": 1.0,
          "lower_right_y": 1.0
        },
        "crop_ratio": "free",
        "crop_scale": 1.0,
        "duration": 1300000,
        "height": 1080,
        "id": "0BB11944-53E4-4249-AD34-4D0101610163",
        "local_material_id": "",
        "material_id": "0BB11944-53E4-4249-AD34-4D0101610163",
        "material_name": "26.mp4",
        "media_path": "",
        "path": "/Users/dd/srt2images-timeline/最新(一括1) 見出しを追加/26.mp4",
        "remote_url": null,
        "type": "video",
        "width": 1920
      },
      {
        "audio_fade": null,
        "category_id": "",
        "category_name": "local",
        "check_flag": 63487,
        "crop": {
          "upper_left_x": 0.0,
          "upper_left_y": 0.0,
          "upper_right_x": 1.0,
          "upper_right_y": 0.0,
          "lower_left_x": 0.0,
          "lower_left_y": 1.0,
          "lower_right_x": 1.0,
          "lower_right_y": 1.0
        },
        "crop_ratio": "free",
        "crop_scale": 1.0,
        "duration": 1300000,
        "height": 1080,
        "id": "35599989-FADB-496A-8962-0ADE5BE05B91",
        "local_material_id": "",
        "material_id": "35599989-FADB-496A-8962-0ADE5BE05B91",
        "material_name": "27.mp4",
        "media_path": "",
        "path": "/Users/dd/srt2images-timeline/最新(一括1) 見出しを追加/27.mp4",
        "remote_url": null,
        "type": "video",
        "width": 1920
      },
      {
        "audio_fade": null,
        "category_id": "",
        "category_name": "local",
        "check_flag": 63487,
        "crop": {
          "upper_left_x": 0.0,
          "upper_left_y": 0.0,
          "upper_right_x": 1.0,
          "upper_right_y": 0.0,
          "lower_left_x": 0.0,
          "lower_left_y": 1.0,
          "lower_right_x": 1.0,
          "lower_right_y": 1.0
        },
        "crop_ratio": "free",
        "crop_scale": 1.0,
        "duration": 1300000,
        "height": 1080,
        "id": "59645D81-F7C1-4F71-B5FB-F35883E2BF03",
        "local_material_id": "",
        "material_id": "59645D81-F7C1-4F71-B5FB-F35883E2BF03",
        "material_name": "28.mp4",
        "media_path": "",
        "path": "/Users/dd/srt2images-timeline/最新(一括1) 見出しを追加/28.mp4",
        "remote_url": null,
        "type": "video",
        "width": 1920
      },
      {
        "audio_fade": null,
        "category_id": "",
        "category_name": "local",
        "check_flag": 63487,
        "crop": {
          "upper_left_x": 0.0,
          "upper_left_y": 0.0,
          "upper_right_x": 1.0,
          "upper_right_y": 0.0,
          "lower_left_x": 0.0,
          "lower_left_y": 1.0,
          "lower_right_x": 1.0,
          "lower_right_y": 1.0
        },
        "crop_ratio": "free",
        "crop_scale": 1.0,
        "duration": 1300000,
        "height": 1080,
        "id": "2D33EBB1-A802-466F-B553-C0B9E6EF7523",
        "local_material_id": "",
        "material_id": "2D33EBB1-A802-466F-B553-C0B9E6EF7523",
        "material_name": "29.mp4",
        "media_path": "",
        "path": "/Users/dd/srt2images-timeline/最新(一括1) 見出しを追加/29.mp4",
        "remote_url": null,
        "type": "video",
        "width": 1920
      },
      {
        "audio_fade": null,
        "category_id": "",
        "category_name": "local",
        "check_flag": 63487,
        "crop": {
          "upper_left_x": 0.0,
          "upper_left_y": 0.0,
          "upper_right_x": 1.0,
          "upper_right_y": 0.0,
          "lower_left_x": 0.0,
          "lower_left_y": 1.0,
          "lower_right_x": 1.0,
          "lower_right_y": 1.0
        },
        "crop_ratio": "free",
        "crop_scale": 1.0,
        "duration": 1300000,
        "height": 1080,
        "id": "64ED9569-AFDA-4246-8ED0-0F7D7B314ADD",
        "local_material_id": "",
        "material_id": "64ED9569-AFDA-4246-8ED0-0F7D7B314ADD",
        "material_name": "30.mp4",
        "media_path": "",
        "path": "/Users/dd/srt2images-timeline/最新(一括1) 見出しを追加/30.mp4",
        "remote_url": null,
        "type": "video",
        "width": 1920
      }
    ],
    "effects": [],
    "stickers": [],
    "images": []
  },
  "tracks": [
    {
      "type": "video",
      "name": "review_videos",
      "segments": [
        {
          "enable_adjust": true,
          "enable_color_correct_adjust": false,
          "enable_color_curves": true,
          "enable_color_match_adjust": false,
          "enable_color_wheels": true,
          "enable_lut": true,
          "enable_smart_color_adjust": false,
          "last_nonzero_volume": 1.0,
          "reverse": false,
          "track_attribute": 0,
          "track_render_index": 0,
          "visible": true,
          "id": "94EC54F8-3E1F-48B3-A21E-E418C4CD046D",
          "material_id": "1A0CCA7B-2050-4C2F-8504-B6894961B5B9",
          "target_timerange": {
            "start": 0,
            "duration": 1300000
          },
          "common_keyframes": [],
          "keyframe_refs": [],
          "source_timerange": {
            "start": 0,
            "duration": 1300000
          },
          "speed": 1.0,
          "volume": 1.0,
          "extra_material_refs": [],
          "clip": {
            "alpha": 1.0,
            "flip": {
              "horizontal": false,
              "vertical": false
            },
            "rotation": 0.0,
            "scale": {
              "x": 1.0,
              "y": 1.0
            },
            "transform": {
              "x": 0.0,
              "y": 0.0
            }
          },
          "uniform_scale": {
            "on": true,
            "value": 1.0
          },
          "hdr_settings": {
            "intensity": 1.0,
            "mode": 1,
            "nits": 1000
          }
        },
        {
          "enable_adjust": true,
          "enable_color_correct_adjust": false,
          "enable_color_curves": true,
          "enable_color_match_adjust": false,
          "enable_color_wheels": true,
          "enable_lut": true,
          "enable_smart_color_adjust": false,
          "last_nonzero_volume": 1.0,
          "reverse": false,
          "track_attribute": 0,
          "track_render_index": 0,
          "visible": true,
          "id": "8555977B-75F3-4AB7-A7B4-173E966ADA81",
          "material_id": "1C0F3E88-3214-493F-A2A7-733BE8D0AF8C",
          "target_timerange": {
            "start": 60450000,
            "duration": 1179999
          },
          "common_keyframes": [],
          "keyframe_refs": [],
          "source_timerange": {
            "start": 0,
            "duration": 1179999
          },
          "speed": 1.0,
          "volume": 1.0,
          "extra_material_refs": [],
          "clip": {
            "alpha": 1.0,
            "flip": {
              "horizontal": false,
              "vertical": false
            },
            "rotation": 0.0,
            "scale": {
              "x": 1.0,
              "y": 1.0
            },
            "transform": {
              "x": 0.0,
              "y": 0.0
            }
          },
          "uniform_scale": {
            "on": true,
            "value": 1.0
          },
          "hdr_settings": {
            "intensity": 1.0,
            "mode": 1,
            "nits": 1000
          }
        },
        {
          "enable_adjust": true,
          "enable_color_correct_adjust": false,
          "enable_color_curves": true,
          "enable_color_match_adjust": false,
          "enable_color_wheels": true,
          "enable_lut": true,
          "enable_smart_color_adjust": false,
          "last_nonzero_volume": 1.0,
          "reverse": false,
          "track_attribute": 0,
          "track_render_index": 0,
          "visible": true,
          "id": "EF1FF7BE-1E1C-4026-B58A-EA7CDA7D15D5",
          "material_id": "B107B572-8BDF-4C26-9061-8FB8F1BD06DA",
          "target_timerange": {
            "start": 88380000,
            "duration": 1200000
          },
          "common_keyframes": [],
          "keyframe_refs": [],
          "source_timerange": {
            "start": 0,
            "duration": 1200000
          },
          "speed": 1.0,
          "volume": 1.0,
          "extra_material_refs": [],
          "clip": {
            "alpha": 1.0,
            "flip": {
              "horizontal": false,
              "vertical": false
            },
            "rotation": 0.0,
            "scale": {
              "x": 1.0,
              "y": 1.0
            },
            "transform": {
              "x": 0.0,
              "y": 0.0
            }
          },
          "uniform_scale": {
            "on": true,
            "value": 1.0
          },
          "hdr_settings": {
            "intensity": 1.0,
            "mode": 1,
            "nits": 1000
          }
        },
        {
          "enable_adjust": true,
          "enable_color_correct_adjust": false,
          "enable_color_curves": true,
          "enable_color_match_adjust": false,
          "enable_color_wheels": true,
          "enable_lut": true,
          "enable_smart_color_adjust": false,
          "last_nonzero_volume": 1.0,
          "reverse": false,
          "track_attribute": 0,
          "track_render_index": 0,
          "visible": true,
          "id": "CF407F22-6400-4A0B-BA65-8CD4A63788DD",
          "material_id": "5AAD8AE6-0BC8-4317-9CC1-1C05B89A6595",
          "target_timerange": {
            "start": 116720000,
            "duration": 1180000
          },
          "common_keyframes": [],
          "keyframe_refs": [],
          "source_timerange": {
            "start": 0,
            "duration": 1180000
          },
          "speed": 1.0,
          "volume": 1.0,
          "extra_material_refs": [],
          "clip": {
            "alpha": 1.0,
            "flip": {
              "horizontal": false,
              "vertical": false
            },
            "rotation": 0.0,
            "scale": {
              "x": 1.0,
              "y": 1.0
            },
            "transform": {
              "x": 0.0,
              "y": 0.0
            }
          },
          "uniform_scale": {
            "on": true,
            "value": 1.0
          },
          "hdr_settings": {
            "intensity": 1.0,
            "mode": 1,
            "nits": 1000
          }
        },
        {
          "enable_adjust": true,
          "enable_color_correct_adjust": false,
          "enable_color_curves": true,
          "enable_color_match_adjust": false,
          "enable_color_wheels": true,
          "enable_lut": true,
          "enable_smart_color_adjust": false,
          "last_nonzero_volume": 1.0,
          "reverse": false,
          "track_attribute": 0,
          "track_render_index": 0,
          "visible": true,
          "id": "934157E5-64B5-4B5D-A802-0354252A0AF9",
          "material_id": "BC543B99-623B-4F65-803A-19154999447E",
          "target_timerange": {
            "start": 145220000,
            "duration": 1180000
          },
          "common_keyframes": [],
          "keyframe_refs": [],
          "source_timerange": {
            "start": 0,
            "duration": 1180000
          },
          "speed": 1.0,
          "volume": 1.0,
          "extra_material_refs": [],
          "clip": {
            "alpha": 1.0,
            "flip": {
              "horizontal": false,
              "vertical": false
            },
            "rotation": 0.0,
            "scale": {
              "x": 1.0,
              "y": 1.0
            },
            "transform": {
              "x": 0.0,
              "y": 0.0
            }
          },
          "uniform_scale": {
            "on": true,
            "value": 1.0
          },
          "hdr_settings": {
            "intensity": 1.0,
            "mode": 1,
            "nits": 1000
          }
        },
        {
          "enable_adjust": true,
          "enable_color_correct_adjust": false,
          "enable_color_curves": true,
          "enable_color_match_adjust": false,
          "enable_color_wheels": true,
          "enable_lut": true,
          "enable_smart_color_adjust": false,
          "last_nonzero_volume": 1.0,
          "reverse": false,
          "track_attribute": 0,
          "track_render_index": 0,
          "visible": true,
          "id": "4165ACAC-5658-43BE-9FAB-4E980842088B",
          "material_id": "30166577-5D4F-4712-9502-D7BD07B1324E",
          "target_timerange": {
            "start": 171920000,
            "duration": 1300000
          },
          "common_keyframes": [],
          "keyframe_refs": [],
          "source_timerange": {
            "start": 0,
            "duration": 1300000
          },
          "speed": 1.0,
          "volume": 1.0,
          "extra_material_refs": [],
          "clip": {
            "alpha": 1.0,
            "flip": {
              "horizontal": false,
              "vertical": false
            },
            "rotation": 0.0,
            "scale": {
              "x": 1.0,
              "y": 1.0
            },
            "transform": {
              "x": 0.0,
              "y": 0.0
            }
          },
          "uniform_scale": {
            "on": true,
            "value": 1.0
          },
          "hdr_settings": {
            "intensity": 1.0,
            "mode": 1,
            "nits": 1000
          }
        },
        {
          "enable_adjust": true,
          "enable_color_correct_adjust": false,
          "enable_color_curves": true,
          "enable_color_match_adjust": false,
          "enable_color_wheels": true,
          "enable_lut": true,
          "enable_smart_color_adjust": false,
          "last_nonzero_volume": 1.0,
          "reverse": false,
          "track_attribute": 0,
          "track_render_index": 0,
          "visible": true,
          "id": "D4C54B09-DD8D-42A3-B077-6B6C66749D67",
          "material_id": "B609FFF3-C374-4DDF-838D-C984C2E4AB31",
          "target_timerange": {
            "start": 197810000,
            "duration": 509999
          },
          "common_keyframes": [],
          "keyframe_refs": [],
          "source_timerange": {
            "start": 0,
            "duration": 509999
          },
          "speed": 1.0,
          "volume": 1.0,
          "extra_material_refs": [],
          "clip": {
            "alpha": 1.0,
            "flip": {
              "horizontal": false,
              "vertical": false
            },
            "rotation": 0.0,
            "scale": {
              "x": 1.0,
              "y": 1.0
            },
            "transform": {
              "x": 0.0,
              "y": 0.0
            }
          },
          "uniform_scale": {
            "on": true,
            "value": 1.0
          },
          "hdr_settings": {
            "intensity": 1.0,
            "mode": 1,
            "nits": 1000
          }
        },
        {
          "enable_adjust": true,
          "enable_color_correct_adjust": false,
          "enable_color_curves": true,
          "enable_color_match_adjust": false,
          "enable_color_wheels": true,
          "enable_lut": true,
          "enable_smart_color_adjust": false,
          "last_nonzero_volume": 1.0,
          "reverse": false,
          "track_attribute": 0,
          "track_render_index": 0,
          "visible": true,
          "id": "5353AE2B-7DE2-4B08-87FE-0B2F97A38DE4",
          "material_id": "28A7BAF0-6A10-42EE-889E-17C42E9D0417",
          "target_timerange": {
            "start": 224100000,
            "duration": 1300000
          },
          "common_keyframes": [],
          "keyframe_refs": [],
          "source_timerange": {
            "start": 0,
            "duration": 1300000
          },
          "speed": 1.0,
          "volume": 1.0,
          "extra_material_refs": [],
          "clip": {
            "alpha": 1.0,
            "flip": {
              "horizontal": false,
              "vertical": false
            },
            "rotation": 0.0,
            "scale": {
              "x": 1.0,
              "y": 1.0
            },
            "transform": {
              "x": 0.0,
              "y": 0.0
            }
          },
          "uniform_scale": {
            "on": true,
            "value": 1.0
          },
          "hdr_settings": {
            "intensity": 1.0,
            "mode": 1,
            "nits": 1000
          }
        },
        {
          "enable_adjust": true,
          "enable_color_correct_adjust": false,
          "enable_color_curves": true,
          "enable_color_match_adjust": false,
          "enable_color_wheels": true,
          "enable_lut": true,
          "enable_smart_color_adjust": false,
          "last_nonzero_volume": 1.0,
          "reverse": false,
          "track_attribute": 0,
          "track_render_index": 0,
          "visible": true,
          "id": "029C75CB-BEFD-48BD-87FB-C006590FCEAC",
          "material_id": "E6430AE3-A549-45C4-896F-4829DD9C5321",
          "target_timerange": {
            "start": 250780000,
            "duration": 1300000
          },
          "common_keyframes": [],
          "keyframe_refs": [],
          "source_timerange": {
            "start": 0,
            "duration": 1300000
          },
          "speed": 1.0,
          "volume": 1.0,
          "extra_material_refs": [],
          "clip": {
            "alpha": 1.0,
            "flip": {
              "horizontal": false,
              "vertical": false
            },
            "rotation": 0.0,
            "scale": {
              "x": 1.0,
              "y": 1.0
            },
            "transform": {
              "x": 0.0,
              "y": 0.0
            }
          },
          "uniform_scale": {
            "on": true,
            "value": 1.0
          },
          "hdr_settings": {
            "intensity": 1.0,
            "mode": 1,
            "nits": 1000
          }
        },
        {
          "enable_adjust": true,
          "enable_color_correct_adjust": false,
          "enable_color_curves": true,
          "enable_color_match_adjust": false,
          "enable_color_wheels": true,
          "enable_lut": true,
          "enable_smart_color_adjust": false,
          "last_nonzero_volume": 1.0,
          "reverse": false,
          "track_attribute": 0,
          "track_render_index": 0,
          "visible": true,
          "id": "540C7683-FB56-49FA-98B2-648E1E97876B",
          "material_id": "4D2D7529-E09F-4440-B9CF-B2E282C37353",
          "target_timerange": {
            "start": 272520000,
            "duration": 1270000
          },
          "common_keyframes": [],
          "keyframe_refs": [],
          "source_timerange": {
            "start": 0,
            "duration": 1270000
          },
          "speed": 1.0,
          "volume": 1.0,
          "extra_material_refs": [],
          "clip": {
            "alpha": 1.0,
            "flip": {
              "horizontal": false,
              "vertical": false
            },
            "rotation": 0.0,
            "scale": {
              "x": 1.0,
              "y": 1.0
            },
            "transform": {
              "x": 0.0,
              "y": 0.0
            }
          },
          "uniform_scale": {
            "on": true,
            "value": 1.0
          },
          "hdr_settings": {
            "intensity": 1.0,
            "mode": 1,
            "nits": 1000
          }
        },
        {
          "enable_adjust": true,
          "enable_color_correct_adjust": false,
          "enable_color_curves": true,
          "enable_color_match_adjust": false,
          "enable_color_wheels": true,
          "enable_lut": true,
          "enable_smart_color_adjust": false,
          "last_nonzero_volume": 1.0,
          "reverse": false,
          "track_attribute": 0,
          "track_render_index": 0,
          "visible": true,
          "id": "528A0D4A-26A9-4D5E-8955-424805A58F24",
          "material_id": "BF15EDB6-60FD-41E9-9899-433477189D1C",
          "target_timerange": {
            "start": 300470000,
            "duration": 1300000
          },
          "common_keyframes": [],
          "keyframe_refs": [],
          "source_timerange": {
            "start": 0,
            "duration": 1300000
          },
          "speed": 1.0,
          "volume": 1.0,
          "extra_material_refs": [],
          "clip": {
            "alpha": 1.0,
            "flip": {
              "horizontal": false,
              "vertical": false
            },
            "rotation": 0.0,
            "scale": {
              "x": 1.0,
              "y": 1.0
            },
            "transform": {
              "x": 0.0,
              "y": 0.0
            }
          },
          "uniform_scale": {
            "on": true,
            "value": 1.0
          },
          "hdr_settings": {
            "intensity": 1.0,
            "mode": 1,
            "nits": 1000
          }
        },
        {
          "enable_adjust": true,
          "enable_color_correct_adjust": false,
          "enable_color_curves": true,
          "enable_color_match_adjust": false,
          "enable_color_wheels": true,
          "enable_lut": true,
          "enable_smart_color_adjust": false,
          "last_nonzero_volume": 1.0,
          "reverse": false,
          "track_attribute": 0,
          "track_render_index": 0,
          "visible": true,
          "id": "8EC75888-DC32-4EB8-A300-188E6E288201",
          "material_id": "04CB1D87-68A7-4867-A8AA-88616DD6AA4D",
          "target_timerange": {
            "start": 327100000,
            "duration": 1300000
          },
          "common_keyframes": [],
          "keyframe_refs": [],
          "source_timerange": {
            "start": 0,
            "duration": 1300000
          },
          "speed": 1.0,
          "volume": 1.0,
          "extra_material_refs": [],
          "clip": {
            "alpha": 1.0,
            "flip": {
              "horizontal": false,
              "vertical": false
            },
            "rotation": 0.0,
            "scale": {
              "x": 1.0,
              "y": 1.0
            },
            "transform": {
              "x": 0.0,
              "y": 0.0
            }
          },
          "uniform_scale": {
            "on": true,
            "value": 1.0
          },
          "hdr_settings": {
            "intensity": 1.0,
            "mode": 1,
            "nits": 1000
          }
        },
        {
          "enable_adjust": true,
          "enable_color_correct_adjust": false,
          "enable_color_curves": true,
          "enable_color_match_adjust": false,
          "enable_color_wheels": true,
          "enable_lut": true,
          "enable_smart_color_adjust": false,
          "last_nonzero_volume": 1.0,
          "reverse": false,
          "track_attribute": 0,
          "track_render_index": 0,
          "visible": true,
          "id": "FF22AC4B-3C51-4267-8B73-23A7C1945FA3",
          "material_id": "720DE09E-A34C-48AD-B132-91DEF1EDF161",
          "target_timerange": {
            "start": 352880000,
            "duration": 1300000
          },
          "common_keyframes": [],
          "keyframe_refs": [],
          "source_timerange": {
            "start": 0,
            "duration": 1300000
          },
          "speed": 1.0,
          "volume": 1.0,
          "extra_material_refs": [],
          "clip": {
            "alpha": 1.0,
            "flip": {
              "horizontal": false,
              "vertical": false
            },
            "rotation": 0.0,
            "scale": {
              "x": 1.0,
              "y": 1.0
            },
            "transform": {
              "x": 0.0,
              "y": 0.0
            }
          },
          "uniform_scale": {
            "on": true,
            "value": 1.0
          },
          "hdr_settings": {
            "intensity": 1.0,
            "mode": 1,
            "nits": 1000
          }
        },
        {
          "enable_adjust": true,
          "enable_color_correct_adjust": false,
          "enable_color_curves": true,
          "enable_color_match_adjust": false,
          "enable_color_wheels": true,
          "enable_lut": true,
          "enable_smart_color_adjust": false,
          "last_nonzero_volume": 1.0,
          "reverse": false,
          "track_attribute": 0,
          "track_render_index": 0,
          "visible": true,
          "id": "67BB3C75-893F-43E3-9815-4EAF552710D9",
          "material_id": "33DC7A90-B935-4BC0-8489-F4D7712E6F87",
          "target_timerange": {
            "start": 373780000,
            "duration": 1300000
          },
          "common_keyframes": [],
          "keyframe_refs": [],
          "source_timerange": {
            "start": 0,
            "duration": 1300000
          },
          "speed": 1.0,
          "volume": 1.0,
          "extra_material_refs": [],
          "clip": {
            "alpha": 1.0,
            "flip": {
              "horizontal": false,
              "vertical": false
            },
            "rotation": 0.0,
            "scale": {
              "x": 1.0,
              "y": 1.0
            },
            "transform": {
              "x": 0.0,
              "y": 0.0
            }
          },
          "uniform_scale": {
            "on": true,
            "value": 1.0
          },
          "hdr_settings": {
            "intensity": 1.0,
            "mode": 1,
            "nits": 1000
          }
        },
        {
          "enable_adjust": true,
          "enable_color_correct_adjust": false,
          "enable_color_curves": true,
          "enable_color_match_adjust": false,
          "enable_color_wheels": true,
          "enable_lut": true,
          "enable_smart_color_adjust": false,
          "last_nonzero_volume": 1.0,
          "reverse": false,
          "track_attribute": 0,
          "track_render_index": 0,
          "visible": true,
          "id": "94DF461E-6FA5-4063-86A5-640DF2086C06",
          "material_id": "5557CEA7-A584-4E7A-B346-832F2BD22EC1",
          "target_timerange": {
            "start": 393350000,
            "duration": 1300000
          },
          "common_keyframes": [],
          "keyframe_refs": [],
          "source_timerange": {
            "start": 0,
            "duration": 1300000
          },
          "speed": 1.0,
          "volume": 1.0,
          "extra_material_refs": [],
          "clip": {
            "alpha": 1.0,
            "flip": {
              "horizontal": false,
              "vertical": false
            },
            "rotation": 0.0,
            "scale": {
              "x": 1.0,
              "y": 1.0
            },
            "transform": {
              "x": 0.0,
              "y": 0.0
            }
          },
          "uniform_scale": {
            "on": true,
            "value": 1.0
          },
          "hdr_settings": {
            "intensity": 1.0,
            "mode": 1,
            "nits": 1000
          }
        },
        {
          "enable_adjust": true,
          "enable_color_correct_adjust": false,
          "enable_color_curves": true,
          "enable_color_match_adjust": false,
          "enable_color_wheels": true,
          "enable_lut": true,
          "enable_smart_color_adjust": false,
          "last_nonzero_volume": 1.0,
          "reverse": false,
          "track_attribute": 0,
          "track_render_index": 0,
          "visible": true,
          "id": "B645FA59-5B6A-480D-9928-59B229082CAC",
          "material_id": "BCE5592A-8FF3-476C-9EBB-4F90DB8228B9",
          "target_timerange": {
            "start": 415840000,
            "duration": 1300000
          },
          "common_keyframes": [],
          "keyframe_refs": [],
          "source_timerange": {
            "start": 0,
            "duration": 1300000
          },
          "speed": 1.0,
          "volume": 1.0,
          "extra_material_refs": [],
          "clip": {
            "alpha": 1.0,
            "flip": {
              "horizontal": false,
              "vertical": false
            },
            "rotation": 0.0,
            "scale": {
              "x": 1.0,
              "y": 1.0
            },
            "transform": {
              "x": 0.0,
              "y": 0.0
            }
          },
          "uniform_scale": {
            "on": true,
            "value": 1.0
          },
          "hdr_settings": {
            "intensity": 1.0,
            "mode": 1,
            "nits": 1000
          }
        },
        {
          "enable_adjust": true,
          "enable_color_correct_adjust": false,
          "enable_color_curves": true,
          "enable_color_match_adjust": false,
          "enable_color_wheels": true,
          "enable_lut": true,
          "enable_smart_color_adjust": false,
          "last_nonzero_volume": 1.0,
          "reverse": false,
          "track_attribute": 0,
          "track_render_index": 0,
          "visible": true,
          "id": "0A6CAA1E-4516-4DF0-9094-B966037F11DF",
          "material_id": "3D411CC5-6645-4D0B-A88D-2D53A22F23B7",
          "target_timerange": {
            "start": 437300000,
            "duration": 1300000
          },
          "common_keyframes": [],
          "keyframe_refs": [],
          "source_timerange": {
            "start": 0,
            "duration": 1300000
          },
          "speed": 1.0,
          "volume": 1.0,
          "extra_material_refs": [],
          "clip": {
            "alpha": 1.0,
            "flip": {
              "horizontal": false,
              "vertical": false
            },
            "rotation": 0.0,
            "scale": {
              "x": 1.0,
              "y": 1.0
            },
            "transform": {
              "x": 0.0,
              "y": 0.0
            }
          },
          "uniform_scale": {
            "on": true,
            "value": 1.0
          },
          "hdr_settings": {
            "intensity": 1.0,
            "mode": 1,
            "nits": 1000
          }
        },
        {
          "enable_adjust": true,
          "enable_color_correct_adjust": false,
          "enable_color_curves": true,
          "enable_color_match_adjust": false,
          "enable_color_wheels": true,
          "enable_lut": true,
          "enable_smart_color_adjust": false,
          "last_nonzero_volume": 1.0,
          "reverse": false,
          "track_attribute": 0,
          "track_render_index": 0,
          "visible": true,
          "id": "3B7CBA4C-4811-4705-A3A4-A1594E6DC92D",
          "material_id": "EE85099A-1766-4537-9372-894ED0613870",
          "target_timerange": {
            "start": 460290000,
            "duration": 1300000
          },
          "common_keyframes": [],
          "keyframe_refs": [],
          "source_timerange": {
            "start": 0,
            "duration": 1300000
          },
          "speed": 1.0,
          "volume": 1.0,
          "extra_material_refs": [],
          "clip": {
            "alpha": 1.0,
            "flip": {
              "horizontal": false,
              "vertical": false
            },
            "rotation": 0.0,
            "scale": {
              "x": 1.0,
              "y": 1.0
            },
            "transform": {
              "x": 0.0,
              "y": 0.0
            }
          },
          "uniform_scale": {
            "on": true,
            "value": 1.0
          },
          "hdr_settings": {
            "intensity": 1.0,
            "mode": 1,
            "nits": 1000
          }
        },
        {
          "enable_adjust": true,
          "enable_color_correct_adjust": false,
          "enable_color_curves": true,
          "enable_color_match_adjust": false,
          "enable_color_wheels": true,
          "enable_lut": true,
          "enable_smart_color_adjust": false,
          "last_nonzero_volume": 1.0,
          "reverse": false,
          "track_attribute": 0,
          "track_render_index": 0,
          "visible": true,
          "id": "E6735BDE-B755-4945-84D3-08EDC816448A",
          "material_id": "EE0407EB-A61C-40D1-85A5-D1DFFDB080AD",
          "target_timerange": {
            "start": 473220000,
            "duration": 1300000
          },
          "common_keyframes": [],
          "keyframe_refs": [],
          "source_timerange": {
            "start": 0,
            "duration": 1300000
          },
          "speed": 1.0,
          "volume": 1.0,
          "extra_material_refs": [],
          "clip": {
            "alpha": 1.0,
            "flip": {
              "horizontal": false,
              "vertical": false
            },
            "rotation": 0.0,
            "scale": {
              "x": 1.0,
              "y": 1.0
            },
            "transform": {
              "x": 0.0,
              "y": 0.0
            }
          },
          "uniform_scale": {
            "on": true,
            "value": 1.0
          },
          "hdr_settings": {
            "intensity": 1.0,
            "mode": 1,
            "nits": 1000
          }
        },
        {
          "enable_adjust": true,
          "enable_color_correct_adjust": false,
          "enable_color_curves": true,
          "enable_color_match_adjust": false,
          "enable_color_wheels": true,
          "enable_lut": true,
          "enable_smart_color_adjust": false,
          "last_nonzero_volume": 1.0,
          "reverse": false,
          "track_attribute": 0,
          "track_render_index": 0,
          "visible": true,
          "id": "E8047CC8-6BC6-47E1-989D-6B49FAD01BB0",
          "material_id": "F5F78DD7-06CC-4634-9015-9F1DD5E9E147",
          "target_timerange": {
            "start": 502500000,
            "duration": 1300000
          },
          "common_keyframes": [],
          "keyframe_refs": [],
          "source_timerange": {
            "start": 0,
            "duration": 1300000
          },
          "speed": 1.0,
          "volume": 1.0,
          "extra_material_refs": [],
          "clip": {
            "alpha": 1.0,
            "flip": {
              "horizontal": false,
              "vertical": false
            },
            "rotation": 0.0,
            "scale": {
              "x": 1.0,
              "y": 1.0
            },
            "transform": {
              "x": 0.0,
              "y": 0.0
            }
          },
          "uniform_scale": {
            "on": true,
            "value": 1.0
          },
          "hdr_settings": {
            "intensity": 1.0,
            "mode": 1,
            "nits": 1000
          }
        },
        {
          "enable_adjust": true,
          "enable_color_correct_adjust": false,
          "enable_color_curves": true,
          "enable_color_match_adjust": false,
          "enable_color_wheels": true,
          "enable_lut": true,
          "enable_smart_color_adjust": false,
          "last_nonzero_volume": 1.0,
          "reverse": false,
          "track_attribute": 0,
          "track_render_index": 0,
          "visible": true,
          "id": "F5D6400D-2AE1-41F9-BB64-FB706EAB8C1D",
          "material_id": "FD45F6EF-6583-4879-AA63-B08219259DB1",
          "target_timerange": {
            "start": 526030000,
            "duration": 1300000
          },
          "common_keyframes": [],
          "keyframe_refs": [],
          "source_timerange": {
            "start": 0,
            "duration": 1300000
          },
          "speed": 1.0,
          "volume": 1.0,
          "extra_material_refs": [],
          "clip": {
            "alpha": 1.0,
            "flip": {
              "horizontal": false,
              "vertical": false
            },
            "rotation": 0.0,
            "scale": {
              "x": 1.0,
              "y": 1.0
            },
            "transform": {
              "x": 0.0,
              "y": 0.0
            }
          },
          "uniform_scale": {
            "on": true,
            "value": 1.0
          },
          "hdr_settings": {
            "intensity": 1.0,
            "mode": 1,
            "nits": 1000
          }
        },
        {
          "enable_adjust": true,
          "enable_color_correct_adjust": false,
          "enable_color_curves": true,
          "enable_color_match_adjust": false,
          "enable_color_wheels": true,
          "enable_lut": true,
          "enable_smart_color_adjust": false,
          "last_nonzero_volume": 1.0,
          "reverse": false,
          "track_attribute": 0,
          "track_render_index": 0,
          "visible": true,
          "id": "F102124C-B1B3-4B29-99A5-26EA392B5107",
          "material_id": "C41D811F-BE84-4B44-A7F7-F457C4923F70",
          "target_timerange": {
            "start": 545240000,
            "duration": 1300000
          },
          "common_keyframes": [],
          "keyframe_refs": [],
          "source_timerange": {
            "start": 0,
            "duration": 1300000
          },
          "speed": 1.0,
          "volume": 1.0,
          "extra_material_refs": [],
          "clip": {
            "alpha": 1.0,
            "flip": {
              "horizontal": false,
              "vertical": false
            },
            "rotation": 0.0,
            "scale": {
              "x": 1.0,
              "y": 1.0
            },
            "transform": {
              "x": 0.0,
              "y": 0.0
            }
          },
          "uniform_scale": {
            "on": true,
            "value": 1.0
          },
          "hdr_settings": {
            "intensity": 1.0,
            "mode": 1,
            "nits": 1000
          }
        },
        {
          "enable_adjust": true,
          "enable_color_correct_adjust": false,
          "enable_color_curves": true,
          "enable_color_match_adjust": false,
          "enable_color_wheels": true,
          "enable_lut": true,
          "enable_smart_color_adjust": false,
          "last_nonzero_volume": 1.0,
          "reverse": false,
          "track_attribute": 0,
          "track_render_index": 0,
          "visible": true,
          "id": "DDB07C6F-C47B-4D1B-A50D-79F6CC38B6DA",
          "material_id": "636C6945-4B04-4A95-A39F-E7F3556EF177",
          "target_timerange": {
            "start": 568600000,
            "duration": 1300000
          },
          "common_keyframes": [],
          "keyframe_refs": [],
          "source_timerange": {
            "start": 0,
            "duration": 1300000
          },
          "speed": 1.0,
          "volume": 1.0,
          "extra_material_refs": [],
          "clip": {
            "alpha": 1.0,
            "flip": {
              "horizontal": false,
              "vertical": false
            },
            "rotation": 0.0,
            "scale": {
              "x": 1.0,
              "y": 1.0
            },
            "transform": {
              "x": 0.0,
              "y": 0.0
            }
          },
          "uniform_scale": {
            "on": true,
            "value": 1.0
          },
          "hdr_settings": {
            "intensity": 1.0,
            "mode": 1,
            "nits": 1000
          }
        },
        {
          "enable_adjust": true,
          "enable_color_correct_adjust": false,
          "enable_color_curves": true,
          "enable_color_match_adjust": false,
          "enable_color_wheels": true,
          "enable_lut": true,
          "enable_smart_color_adjust": false,
          "last_nonzero_volume": 1.0,
          "reverse": false,
          "track_attribute": 0,
          "track_render_index": 0,
          "visible": true,
          "id": "E746F2F4-EB48-4E69-B3CF-E9C0C4CD39FA",
          "material_id": "4F314C88-C091-4ED6-BFAC-7AF6ED49A9DB",
          "target_timerange": {
            "start": 587540000,
            "duration": 1300000
          },
          "common_keyframes": [],
          "keyframe_refs": [],
          "source_timerange": {
            "start": 0,
            "duration": 1300000
          },
          "speed": 1.0,
          "volume": 1.0,
          "extra_material_refs": [],
          "clip": {
            "alpha": 1.0,
            "flip": {
              "horizontal": false,
              "vertical": false
            },
            "rotation": 0.0,
            "scale": {
              "x": 1.0,
              "y": 1.0
            },
            "transform": {
              "x": 0.0,
              "y": 0.0
            }
          },
          "uniform_scale": {
            "on": true,
            "value": 1.0
          },
          "hdr_settings": {
            "intensity": 1.0,
            "mode": 1,
            "nits": 1000
          }
        },
        {
          "enable_adjust": true,
          "enable_color_correct_adjust": false,
          "enable_color_curves": true,
          "enable_color_match_adjust": false,
          "enable_color_wheels": true,
          "enable_lut": true,
          "enable_smart_color_adjust": false,
          "last_nonzero_volume": 1.0,
          "reverse": false,
          "track_attribute": 0,
          "track_render_index": 0,
          "visible": true,
          "id": "569929E9-5E8A-4E98-842E-44819E36AA3A",
          "material_id": "7A6FEAC5-C25F-4688-B5F5-F5FAF9CA29E5",
          "target_timerange": {
            "start": 609850000,
            "duration": 1300000
          },
          "common_keyframes": [],
          "keyframe_refs": [],
          "source_timerange": {
            "start": 0,
            "duration": 1300000
          },
          "speed": 1.0,
          "volume": 1.0,
          "extra_material_refs": [],
          "clip": {
            "alpha": 1.0,
            "flip": {
              "horizontal": false,
              "vertical": false
            },
            "rotation": 0.0,
            "scale": {
              "x": 1.0,
              "y": 1.0
            },
            "transform": {
              "x": 0.0,
              "y": 0.0
            }
          },
          "uniform_scale": {
            "on": true,
            "value": 1.0
          },
          "hdr_settings": {
            "intensity": 1.0,
            "mode": 1,
            "nits": 1000
          }
        },
        {
          "enable_adjust": true,
          "enable_color_correct_adjust": false,
          "enable_color_curves": true,
          "enable_color_match_adjust": false,
          "enable_color_wheels": true,
          "enable_lut": true,
          "enable_smart_color_adjust": false,
          "last_nonzero_volume": 1.0,
          "reverse": false,
          "track_attribute": 0,
          "track_render_index": 0,
          "visible": true,
          "id": "66F9DC92-49AB-45C1-A99B-CDED0328FB06",
          "material_id": "0BB11944-53E4-4249-AD34-4D0101610163",
          "target_timerange": {
            "start": 630180000,
            "duration": 1300000
          },
          "common_keyframes": [],
          "keyframe_refs": [],
          "source_timerange": {
            "start": 0,
            "duration": 1300000
          },
          "speed": 1.0,
          "volume": 1.0,
          "extra_material_refs": [],
          "clip": {
            "alpha": 1.0,
            "flip": {
              "horizontal": false,
              "vertical": false
            },
            "rotation": 0.0,
            "scale": {
              "x": 1.0,
              "y": 1.0
            },
            "transform": {
              "x": 0.0,
              "y": 0.0
            }
          },
          "uniform_scale": {
            "on": true,
            "value": 1.0
          },
          "hdr_settings": {
            "intensity": 1.0,
            "mode": 1,
            "nits": 1000
          }
        },
        {
          "enable_adjust": true,
          "enable_color_correct_adjust": false,
          "enable_color_curves": true,
          "enable_color_match_adjust": false,
          "enable_color_wheels": true,
          "enable_lut": true,
          "enable_smart_color_adjust": false,
          "last_nonzero_volume": 1.0,
          "reverse": false,
          "track_attribute": 0,
          "track_render_index": 0,
          "visible": true,
          "id": "F1E9D421-3660-4D06-8F37-7F315DDDD117",
          "material_id": "35599989-FADB-496A-8962-0ADE5BE05B91",
          "target_timerange": {
            "start": 647250000,
            "duration": 1300000
          },
          "common_keyframes": [],
          "keyframe_refs": [],
          "source_timerange": {
            "start": 0,
            "duration": 1300000
          },
          "speed": 1.0,
          "volume": 1.0,
          "extra_material_refs": [],
          "clip": {
            "alpha": 1.0,
            "flip": {
              "horizontal": false,
              "vertical": false
            },
            "rotation": 0.0,
            "scale": {
              "x": 1.0,
              "y": 1.0
            },
            "transform": {
              "x": 0.0,
              "y": 0.0
            }
          },
          "uniform_scale": {
            "on": true,
            "value": 1.0
          },
          "hdr_settings": {
            "intensity": 1.0,
            "mode": 1,
            "nits": 1000
          }
        },
        {
          "enable_adjust": true,
          "enable_color_correct_adjust": false,
          "enable_color_curves": true,
          "enable_color_match_adjust": false,
          "enable_color_wheels": true,
          "enable_lut": true,
          "enable_smart_color_adjust": false,
          "last_nonzero_volume": 1.0,
          "reverse": false,
          "track_attribute": 0,
          "track_render_index": 0,
          "visible": true,
          "id": "5E8C1A22-A16F-44E3-97E5-6CABA39CE6ED",
          "material_id": "59645D81-F7C1-4F71-B5FB-F35883E2BF03",
          "target_timerange": {
            "start": 666180000,
            "duration": 1300000
          },
          "common_keyframes": [],
          "keyframe_refs": [],
          "source_timerange": {
            "start": 0,
            "duration": 1300000
          },
          "speed": 1.0,
          "volume": 1.0,
          "extra_material_refs": [],
          "clip": {
            "alpha": 1.0,
            "flip": {
              "horizontal": false,
              "vertical": false
            },
            "rotation": 0.0,
            "scale": {
              "x": 1.0,
              "y": 1.0
            },
            "transform": {
              "x": 0.0,
              "y": 0.0
            }
          },
          "uniform_scale": {
            "on": true,
            "value": 1.0
          },
          "hdr_settings": {
            "intensity": 1.0,
            "mode": 1,
            "nits": 1000
          }
        },
        {
          "enable_adjust": true,
          "enable_color_correct_adjust": false,
          "enable_color_curves": true,
          "enable_color_match_adjust": false,
          "enable_color_wheels": true,
          "enable_lut": true,
          "enable_smart_color_adjust": false,
          "last_nonzero_volume": 1.0,
          "reverse": false,
          "track_attribute": 0,
          "track_render_index": 0,
          "visible": true,
          "id": "249C4E71-19AA-4235-BF4C-9B60ED691193",
          "material_id": "2D33EBB1-A802-466F-B553-C0B9E6EF7523",
          "target_timerange": {
            "start": 684760000,
            "duration": 1300000
          },
          "common_keyframes": [],
          "keyframe_refs": [],
          "source_timerange": {
            "start": 0,
            "duration": 1300000
          },
          "speed": 1.0,
          "volume": 1.0,
          "extra_material_refs": [],
          "clip": {
            "alpha": 1.0,
            "flip": {
              "horizontal": false,
              "vertical": false
            },
            "rotation": 0.0,
            "scale": {
              "x": 1.0,
              "y": 1.0
            },
            "transform": {
              "x": 0.0,
              "y": 0.0
            }
          },
          "uniform_scale": {
            "on": true,
            "value": 1.0
          },
          "hdr_settings": {
            "intensity": 1.0,
            "mode": 1,
            "nits": 1000
          }
        },
        {
          "enable_adjust": true,
          "enable_color_correct_adjust": false,
          "enable_color_curves": true,
          "enable_color_match_adjust": false,
          "enable_color_wheels": true,
          "enable_lut": true,
          "enable_smart_color_adjust": false,
          "last_nonzero_volume": 1.0,
          "reverse": false,
          "track_attribute": 0,
          "track_render_index": 0,
          "visible": true,
          "id": "5D9CEEA0-A900-44F8-BD05-F235C62DDA03",
          "material_id": "64ED9569-AFDA-4246-8ED0-0F7D7B314ADD",
          "target_timerange": {
            "start": 701140000,
            "duration": 1300000
          },
          "common_keyframes": [],
          "keyframe_refs": [],
          "source_timerange": {
            "start": 0,
            "duration": 1300000
          },
          "speed": 1.0,
          "volume": 1.0,
          "extra_material_refs": [],
          "clip": {
            "alpha": 1.0,
            "flip": {
              "horizontal": false,
              "vertical": false
            },
            "rotation": 0.0,
            "scale": {
              "x": 1.0,
              "y": 1.0
            },
            "transform": {
              "x": 0.0,
              "y": 0.0
            }
          },
          "uniform_scale": {
            "on": true,
            "value": 1.0
          },
          "hdr_settings": {
            "intensity": 1.0,
            "mode": 1,
            "nits": 1000
          }
        }
      ]
    },
    {
      "type": "text",
      "segments": []
    },
    {
      "type": "text",
      "segments": [
        {
          "id": "7AB0B969-A875-4D53-BDAB-A134FC1843F6",
          "material_id": "A8C67211-832B-4B83-A5AF-A122BB2B4B99",
          "target_timerange": {
            "start": 0,
            "duration": 14438000
          },
          "visible": true,
          "clip": {
            "transform": {
              "x": -0.5,
              "y": -0.2777777777777778
            },
            "scale": {
              "x": 1.0,
              "y": 1.0
            },
            "rotation": 0.0,
            "alpha": 1.0
          },
          "extra_material_refs": [],
          "source_timerange": {
            "start": 0,
            "duration": 14438000
          },
          "common_keyframes": [],
          "keyframe_refs": [],
          "render_timerange": {
            "start": 0,
            "duration": 0
          },
          "speed": 1.0,
          "volume": 1.0
        },
        {
          "id": "5BC930E7-0B64-47D6-9C4C-742E8AE9FF17",
          "material_id": "90349C75-3488-43B9-9D17-DE77B1A63005",
          "target_timerange": {
            "start": 14439000,
            "duration": 12193999
          },
          "visible": true,
          "clip": {
            "transform": {
              "x": -0.5,
              "y": -0.2777777777777778
            },
            "scale": {
              "x": 1.0,
              "y": 1.0
            },
            "rotation": 0.0,
            "alpha": 1.0
          },
          "extra_material_refs": [],
          "source_timerange": {
            "start": 0,
            "duration": 12193999
          },
          "common_keyframes": [],
          "keyframe_refs": [],
          "render_timerange": {
            "start": 0,
            "duration": 0
          },
          "speed": 1.0,
          "volume": 1.0
        },
        {
          "id": "9542A976-A43B-466D-830D-9D0138D4D1FD",
          "material_id": "FACCB5C7-6D49-488A-B1CC-494C08D562FE",
          "target_timerange": {
            "start": 26634000,
            "duration": 10749000
          },
          "visible": true,
          "clip": {
            "transform": {
              "x": -0.5,
              "y": -0.2777777777777778
            },
            "scale": {
              "x": 1.0,
              "y": 1.0
            },
            "rotation": 0.0,
            "alpha": 1.0
          },
          "extra_material_refs": [],
          "source_timerange": {
            "start": 0,
            "duration": 10749000
          },
          "common_keyframes": [],
          "keyframe_refs": [],
          "render_timerange": {
            "start": 0,
            "duration": 0
          },
          "speed": 1.0,
          "volume": 1.0
        },
        {
          "id": "C7FACE8A-6BCC-4BB7-A69C-869D00F66954",
          "material_id": "ED959195-AFC3-4F86-9B06-D1394EADB56C",
          "target_timerange": {
            "start": 37384000,
            "duration": 8509000
          },
          "visible": true,
          "clip": {
            "transform": {
              "x": -0.5,
              "y": -0.2777777777777778
            },
            "scale": {
              "x": 1.0,
              "y": 1.0
            },
            "rotation": 0.0,
            "alpha": 1.0
          },
          "extra_material_refs": [],
          "source_timerange": {
            "start": 0,
            "duration": 8509000
          },
          "common_keyframes": [],
          "keyframe_refs": [],
          "render_timerange": {
            "start": 0,
            "duration": 0
          },
          "speed": 1.0,
          "volume": 1.0
        },
        {
          "id": "2837F29E-5B01-4B4F-B70B-3BB96082E60E",
          "material_id": "F68761C4-25B1-4ED5-AED5-DC518A830CBA",
          "target_timerange": {
            "start": 45894000,
            "duration": 10639000
          },
          "visible": true,
          "clip": {
            "transform": {
              "x": -0.5,
              "y": -0.2777777777777778
            },
            "scale": {
              "x": 1.0,
              "y": 1.0
            },
            "rotation": 0.0,
            "alpha": 1.0
          },
          "extra_material_refs": [],
          "source_timerange": {
            "start": 0,
            "duration": 10639000
          },
          "common_keyframes": [],
          "keyframe_refs": [],
          "render_timerange": {
            "start": 0,
            "duration": 0
          },
          "speed": 1.0,
          "volume": 1.0
        },
        {
          "id": "C20288F8-7225-4B80-A3E9-6B4A7FF7B316",
          "material_id": "68FA41BC-ED0F-4AD8-86B5-9C7EDEF093FE",
          "target_timerange": {
            "start": 56534000,
            "duration": 12713999
          },
          "visible": true,
          "clip": {
            "transform": {
              "x": -0.5,
              "y": -0.2777777777777778
            },
            "scale": {
              "x": 1.0,
              "y": 1.0
            },
            "rotation": 0.0,
            "alpha": 1.0
          },
          "extra_material_refs": [],
          "source_timerange": {
            "start": 0,
            "duration": 12713999
          },
          "common_keyframes": [],
          "keyframe_refs": [],
          "render_timerange": {
            "start": 0,
            "duration": 0
          },
          "speed": 1.0,
          "volume": 1.0
        },
        {
          "id": "7E6D04AC-6888-4E1E-885D-ED24B87D87A7",
          "material_id": "9EE3C759-BF46-45B0-AAEF-4FCC938063A4",
          "target_timerange": {
            "start": 69249000,
            "duration": 12218999
          },
          "visible": true,
          "clip": {
            "transform": {
              "x": -0.5,
              "y": -0.2777777777777778
            },
            "scale": {
              "x": 1.0,
              "y": 1.0
            },
            "rotation": 0.0,
            "alpha": 1.0
          },
          "extra_material_refs": [],
          "source_timerange": {
            "start": 0,
            "duration": 12218999
          },
          "common_keyframes": [],
          "keyframe_refs": [],
          "render_timerange": {
            "start": 0,
            "duration": 0
          },
          "speed": 1.0,
          "volume": 1.0
        },
        {
          "id": "1B6D0481-8BB0-4252-B203-1B501DC5BCBD",
          "material_id": "B318AEAC-0FDC-415D-8D0C-D60BC8BC1524",
          "target_timerange": {
            "start": 81469000,
            "duration": 18714000
          },
          "visible": true,
          "clip": {
            "transform": {
              "x": -0.5,
              "y": -0.2777777777777778
            },
            "scale": {
              "x": 1.0,
              "y": 1.0
            },
            "rotation": 0.0,
            "alpha": 1.0
          },
          "extra_material_refs": [],
          "source_timerange": {
            "start": 0,
            "duration": 18714000
          },
          "common_keyframes": [],
          "keyframe_refs": [],
          "render_timerange": {
            "start": 0,
            "duration": 0
          },
          "speed": 1.0,
          "volume": 1.0
        },
        {
          "id": "740ADB84-C22D-4E95-AF5B-F4C5AC008659",
          "material_id": "1EDE0DFD-59B9-4A0A-8467-7FE4FE52CF80",
          "target_timerange": {
            "start": 100184000,
            "duration": 10548999
          },
          "visible": true,
          "clip": {
            "transform": {
              "x": -0.5,
              "y": -0.2777777777777778
            },
            "scale": {
              "x": 1.0,
              "y": 1.0
            },
            "rotation": 0.0,
            "alpha": 1.0
          },
          "extra_material_refs": [],
          "source_timerange": {
            "start": 0,
            "duration": 10548999
          },
          "common_keyframes": [],
          "keyframe_refs": [],
          "render_timerange": {
            "start": 0,
            "duration": 0
          },
          "speed": 1.0,
          "volume": 1.0
        },
        {
          "id": "EC33D51D-6688-4B0D-8F86-81D44311D058",
          "material_id": "1D8D3E73-960E-4E82-94CC-75858CF13C5B",
          "target_timerange": {
            "start": 110734000,
            "duration": 9739000
          },
          "visible": true,
          "clip": {
            "transform": {
              "x": -0.5,
              "y": -0.2777777777777778
            },
            "scale": {
              "x": 1.0,
              "y": 1.0
            },
            "rotation": 0.0,
            "alpha": 1.0
          },
          "extra_material_refs": [],
          "source_timerange": {
            "start": 0,
            "duration": 9739000
          },
          "common_keyframes": [],
          "keyframe_refs": [],
          "render_timerange": {
            "start": 0,
            "duration": 0
          },
          "speed": 1.0,
          "volume": 1.0
        },
        {
          "id": "97D04D7F-C82D-4115-861E-0D77A1C01A13",
          "material_id": "7A3EF666-3214-4ADC-B63C-EB9FCCB8E7A0",
          "target_timerange": {
            "start": 120474000,
            "duration": 8358999
          },
          "visible": true,
          "clip": {
            "transform": {
              "x": -0.5,
              "y": -0.2777777777777778
            },
            "scale": {
              "x": 1.0,
              "y": 1.0
            },
            "rotation": 0.0,
            "alpha": 1.0
          },
          "extra_material_refs": [],
          "source_timerange": {
            "start": 0,
            "duration": 8358999
          },
          "common_keyframes": [],
          "keyframe_refs": [],
          "render_timerange": {
            "start": 0,
            "duration": 0
          },
          "speed": 1.0,
          "volume": 1.0
        },
        {
          "id": "80BCBFB0-2826-42BB-A314-2E2D590D3211",
          "material_id": "34C24DA6-F20A-4595-9B04-4402A310D050",
          "target_timerange": {
            "start": 128834000,
            "duration": 13054000
          },
          "visible": true,
          "clip": {
            "transform": {
              "x": -0.5,
              "y": -0.2777777777777778
            },
            "scale": {
              "x": 1.0,
              "y": 1.0
            },
            "rotation": 0.0,
            "alpha": 1.0
          },
          "extra_material_refs": [],
          "source_timerange": {
            "start": 0,
            "duration": 13054000
          },
          "common_keyframes": [],
          "keyframe_refs": [],
          "render_timerange": {
            "start": 0,
            "duration": 0
          },
          "speed": 1.0,
          "volume": 1.0
        },
        {
          "id": "39B6C3CB-11EA-435E-B946-C0DB72FA0F82",
          "material_id": "9F45BAE8-3000-418A-A2A7-292F326AC50B",
          "target_timerange": {
            "start": 141889000,
            "duration": 16848999
          },
          "visible": true,
          "clip": {
            "transform": {
              "x": -0.5,
              "y": -0.2777777777777778
            },
            "scale": {
              "x": 1.0,
              "y": 1.0
            },
            "rotation": 0.0,
            "alpha": 1.0
          },
          "extra_material_refs": [],
          "source_timerange": {
            "start": 0,
            "duration": 16848999
          },
          "common_keyframes": [],
          "keyframe_refs": [],
          "render_timerange": {
            "start": 0,
            "duration": 0
          },
          "speed": 1.0,
          "volume": 1.0
        },
        {
          "id": "9DF7CD9B-03A2-46E7-B650-F0A5F2D073E9",
          "material_id": "E1B849D3-3B73-4427-8ACB-4C957D356D87",
          "target_timerange": {
            "start": 158739000,
            "duration": 15423999
          },
          "visible": true,
          "clip": {
            "transform": {
              "x": -0.5,
              "y": -0.2777777777777778
            },
            "scale": {
              "x": 1.0,
              "y": 1.0
            },
            "rotation": 0.0,
            "alpha": 1.0
          },
          "extra_material_refs": [],
          "source_timerange": {
            "start": 0,
            "duration": 15423999
          },
          "common_keyframes": [],
          "keyframe_refs": [],
          "render_timerange": {
            "start": 0,
            "duration": 0
          },
          "speed": 1.0,
          "volume": 1.0
        },
        {
          "id": "8589B32A-14E8-4FC0-9AF6-EBFB42680993",
          "material_id": "CA65E66E-A736-4379-8A24-6EB482289496",
          "target_timerange": {
            "start": 174164000,
            "duration": 10709000
          },
          "visible": true,
          "clip": {
            "transform": {
              "x": -0.5,
              "y": -0.2777777777777778
            },
            "scale": {
              "x": 1.0,
              "y": 1.0
            },
            "rotation": 0.0,
            "alpha": 1.0
          },
          "extra_material_refs": [],
          "source_timerange": {
            "start": 0,
            "duration": 10709000
          },
          "common_keyframes": [],
          "keyframe_refs": [],
          "render_timerange": {
            "start": 0,
            "duration": 0
          },
          "speed": 1.0,
          "volume": 1.0
        },
        {
          "id": "947EFBEE-049F-46E4-9851-00E27F85A136",
          "material_id": "11EC3DFA-68DC-4403-95A9-1601A09DCDB1",
          "target_timerange": {
            "start": 184874000,
            "duration": 8593999
          },
          "visible": true,
          "clip": {
            "transform": {
              "x": -0.5,
              "y": -0.2777777777777778
            },
            "scale": {
              "x": 1.0,
              "y": 1.0
            },
            "rotation": 0.0,
            "alpha": 1.0
          },
          "extra_material_refs": [],
          "source_timerange": {
            "start": 0,
            "duration": 8593999
          },
          "common_keyframes": [],
          "keyframe_refs": [],
          "render_timerange": {
            "start": 0,
            "duration": 0
          },
          "speed": 1.0,
          "volume": 1.0
        },
        {
          "id": "E0967FC7-B8DB-4FD3-8640-74B98937FC91",
          "material_id": "89DF3796-FC50-4A32-A186-AA28E3A14872",
          "target_timerange": {
            "start": 193469000,
            "duration": 15058999
          },
          "visible": true,
          "clip": {
            "transform": {
              "x": -0.5,
              "y": -0.2777777777777778
            },
            "scale": {
              "x": 1.0,
              "y": 1.0
            },
            "rotation": 0.0,
            "alpha": 1.0
          },
          "extra_material_refs": [],
          "source_timerange": {
            "start": 0,
            "duration": 15058999
          },
          "common_keyframes": [],
          "keyframe_refs": [],
          "render_timerange": {
            "start": 0,
            "duration": 0
          },
          "speed": 1.0,
          "volume": 1.0
        },
        {
          "id": "19CEC401-A1FC-4692-941C-5B2D6042896B",
          "material_id": "E15EF3C1-5170-4655-AD29-E1AEC84B17E4",
          "target_timerange": {
            "start": 208529000,
            "duration": 11788999
          },
          "visible": true,
          "clip": {
            "transform": {
              "x": -0.5,
              "y": -0.2777777777777778
            },
            "scale": {
              "x": 1.0,
              "y": 1.0
            },
            "rotation": 0.0,
            "alpha": 1.0
          },
          "extra_material_refs": [],
          "source_timerange": {
            "start": 0,
            "duration": 11788999
          },
          "common_keyframes": [],
          "keyframe_refs": [],
          "render_timerange": {
            "start": 0,
            "duration": 0
          },
          "speed": 1.0,
          "volume": 1.0
        },
        {
          "id": "2327BA6A-5558-4706-8FA2-2C5113070DD5",
          "material_id": "27465945-9302-4BC1-8A01-59B37A1E8FF0",
          "target_timerange": {
            "start": 220319000,
            "duration": 12744000
          },
          "visible": true,
          "clip": {
            "transform": {
              "x": -0.5,
              "y": -0.2777777777777778
            },
            "scale": {
              "x": 1.0,
              "y": 1.0
            },
            "rotation": 0.0,
            "alpha": 1.0
          },
          "extra_material_refs": [],
          "source_timerange": {
            "start": 0,
            "duration": 12744000
          },
          "common_keyframes": [],
          "keyframe_refs": [],
          "render_timerange": {
            "start": 0,
            "duration": 0
          },
          "speed": 1.0,
          "volume": 1.0
        },
        {
          "id": "123285F1-09DB-4B4E-B495-2089462246A9",
          "material_id": "4899ED77-FDD9-4963-BA32-71BC579010FB",
          "target_timerange": {
            "start": 233064000,
            "duration": 13943999
          },
          "visible": true,
          "clip": {
            "transform": {
              "x": -0.5,
              "y": -0.2777777777777778
            },
            "scale": {
              "x": 1.0,
              "y": 1.0
            },
            "rotation": 0.0,
            "alpha": 1.0
          },
          "extra_material_refs": [],
          "source_timerange": {
            "start": 0,
            "duration": 13943999
          },
          "common_keyframes": [],
          "keyframe_refs": [],
          "render_timerange": {
            "start": 0,
            "duration": 0
          },
          "speed": 1.0,
          "volume": 1.0
        },
        {
          "id": "4DF95B75-408D-4A18-B722-4F21856FEBF4",
          "material_id": "6FACD8BD-C7F9-4ACE-9EC5-8CA961571F36",
          "target_timerange": {
            "start": 247009000,
            "duration": 12334000
          },
          "visible": true,
          "clip": {
            "transform": {
              "x": -0.5,
              "y": -0.2777777777777778
            },
            "scale": {
              "x": 1.0,
              "y": 1.0
            },
            "rotation": 0.0,
            "alpha": 1.0
          },
          "extra_material_refs": [],
          "source_timerange": {
            "start": 0,
            "duration": 12334000
          },
          "common_keyframes": [],
          "keyframe_refs": [],
          "render_timerange": {
            "start": 0,
            "duration": 0
          },
          "speed": 1.0,
          "volume": 1.0
        },
        {
          "id": "632C6B1F-14E2-48F6-A351-CBB5A1C6DC18",
          "material_id": "2078D29E-6042-4428-8318-4DA3D31775C4",
          "target_timerange": {
            "start": 259344000,
            "duration": 12109000
          },
          "visible": true,
          "clip": {
            "transform": {
              "x": -0.5,
              "y": -0.2777777777777778
            },
            "scale": {
              "x": 1.0,
              "y": 1.0
            },
            "rotation": 0.0,
            "alpha": 1.0
          },
          "extra_material_refs": [],
          "source_timerange": {
            "start": 0,
            "duration": 12109000
          },
          "common_keyframes": [],
          "keyframe_refs": [],
          "render_timerange": {
            "start": 0,
            "duration": 0
          },
          "speed": 1.0,
          "volume": 1.0
        },
        {
          "id": "EEC22C1D-F35F-4A26-8D04-5272CB17D473",
          "material_id": "02017F80-3ABE-489E-BDF2-07CDDFFABC1A",
          "target_timerange": {
            "start": 271454000,
            "duration": 14449000
          },
          "visible": true,
          "clip": {
            "transform": {
              "x": -0.5,
              "y": -0.2777777777777778
            },
            "scale": {
              "x": 1.0,
              "y": 1.0
            },
            "rotation": 0.0,
            "alpha": 1.0
          },
          "extra_material_refs": [],
          "source_timerange": {
            "start": 0,
            "duration": 14449000
          },
          "common_keyframes": [],
          "keyframe_refs": [],
          "render_timerange": {
            "start": 0,
            "duration": 0
          },
          "speed": 1.0,
          "volume": 1.0
        },
        {
          "id": "892AAFF3-49B0-4254-97AC-BD2587F4FAA9",
          "material_id": "ED2BB61E-1545-4AD7-88F3-2B819B96715C",
          "target_timerange": {
            "start": 285904000,
            "duration": 11014000
          },
          "visible": true,
          "clip": {
            "transform": {
              "x": -0.5,
              "y": -0.2777777777777778
            },
            "scale": {
              "x": 1.0,
              "y": 1.0
            },
            "rotation": 0.0,
            "alpha": 1.0
          },
          "extra_material_refs": [],
          "source_timerange": {
            "start": 0,
            "duration": 11014000
          },
          "common_keyframes": [],
          "keyframe_refs": [],
          "render_timerange": {
            "start": 0,
            "duration": 0
          },
          "speed": 1.0,
          "volume": 1.0
        },
        {
          "id": "F560B85A-7F08-41A8-9F52-1873225DFB69",
          "material_id": "4E73B3CC-1086-406E-8462-9D97D9A822F7",
          "target_timerange": {
            "start": 296919000,
            "duration": 10669000
          },
          "visible": true,
          "clip": {
            "transform": {
              "x": -0.5,
              "y": -0.2777777777777778
            },
            "scale": {
              "x": 1.0,
              "y": 1.0
            },
            "rotation": 0.0,
            "alpha": 1.0
          },
          "extra_material_refs": [],
          "source_timerange": {
            "start": 0,
            "duration": 10669000
          },
          "common_keyframes": [],
          "keyframe_refs": [],
          "render_timerange": {
            "start": 0,
            "duration": 0
          },
          "speed": 1.0,
          "volume": 1.0
        },
        {
          "id": "8147FC58-0323-40EF-A6CB-D362B1DB1A83",
          "material_id": "7FBFCAB9-25BA-43C2-BAC7-9B1E4F41F91A",
          "target_timerange": {
            "start": 307589000,
            "duration": 11559000
          },
          "visible": true,
          "clip": {
            "transform": {
              "x": -0.5,
              "y": -0.2777777777777778
            },
            "scale": {
              "x": 1.0,
              "y": 1.0
            },
            "rotation": 0.0,
            "alpha": 1.0
          },
          "extra_material_refs": [],
          "source_timerange": {
            "start": 0,
            "duration": 11559000
          },
          "common_keyframes": [],
          "keyframe_refs": [],
          "render_timerange": {
            "start": 0,
            "duration": 0
          },
          "speed": 1.0,
          "volume": 1.0
        },
        {
          "id": "83E9C095-4CBB-4436-B783-9A8C9AEBCC0D",
          "material_id": "618BD08F-891E-4D4A-AD24-8E0A026D0749",
          "target_timerange": {
            "start": 319149000,
            "duration": 9814000
          },
          "visible": true,
          "clip": {
            "transform": {
              "x": -0.5,
              "y": -0.2777777777777778
            },
            "scale": {
              "x": 1.0,
              "y": 1.0
            },
            "rotation": 0.0,
            "alpha": 1.0
          },
          "extra_material_refs": [],
          "source_timerange": {
            "start": 0,
            "duration": 9814000
          },
          "common_keyframes": [],
          "keyframe_refs": [],
          "render_timerange": {
            "start": 0,
            "duration": 0
          },
          "speed": 1.0,
          "volume": 1.0
        },
        {
          "id": "12D07CFC-48BE-458A-B9A1-838046A79595",
          "material_id": "C1E3D1F4-BB70-4E59-A2F7-4DC755AB7ED1",
          "target_timerange": {
            "start": 328964000,
            "duration": 10764000
          },
          "visible": true,
          "clip": {
            "transform": {
              "x": -0.5,
              "y": -0.2777777777777778
            },
            "scale": {
              "x": 1.0,
              "y": 1.0
            },
            "rotation": 0.0,
            "alpha": 1.0
          },
          "extra_material_refs": [],
          "source_timerange": {
            "start": 0,
            "duration": 10764000
          },
          "common_keyframes": [],
          "keyframe_refs": [],
          "render_timerange": {
            "start": 0,
            "duration": 0
          },
          "speed": 1.0,
          "volume": 1.0
        },
        {
          "id": "31E17CF3-7F39-4CBA-9FB3-26CADADDA704",
          "material_id": "98DAAEFC-F5CF-48E0-B1A3-0212745A53C0",
          "target_timerange": {
            "start": 339729000,
            "duration": 8554000
          },
          "visible": true,
          "clip": {
            "transform": {
              "x": -0.5,
              "y": -0.2777777777777778
            },
            "scale": {
              "x": 1.0,
              "y": 1.0
            },
            "rotation": 0.0,
            "alpha": 1.0
          },
          "extra_material_refs": [],
          "source_timerange": {
            "start": 0,
            "duration": 8554000
          },
          "common_keyframes": [],
          "keyframe_refs": [],
          "render_timerange": {
            "start": 0,
            "duration": 0
          },
          "speed": 1.0,
          "volume": 1.0
        },
        {
          "id": "AFF8094D-3EB9-4617-B3FE-DEFF9884B39B",
          "material_id": "8C4DFBBB-4E34-4DE6-9161-86A4D191CA9F",
          "target_timerange": {
            "start": 348284000,
            "duration": 13509000
          },
          "visible": true,
          "clip": {
            "transform": {
              "x": -0.5,
              "y": -0.2777777777777778
            },
            "scale": {
              "x": 1.0,
              "y": 1.0
            },
            "rotation": 0.0,
            "alpha": 1.0
          },
          "extra_material_refs": [],
          "source_timerange": {
            "start": 0,
            "duration": 13509000
          },
          "common_keyframes": [],
          "keyframe_refs": [],
          "render_timerange": {
            "start": 0,
            "duration": 0
          },
          "speed": 1.0,
          "volume": 1.0
        },
        {
          "id": "FB73B427-AAC5-42E8-BDD7-2028CDFABAA6",
          "material_id": "061EC567-2AA9-4982-B704-9DDCDA52AD01",
          "target_timerange": {
            "start": 361794000,
            "duration": 13089000
          },
          "visible": true,
          "clip": {
            "transform": {
              "x": -0.5,
              "y": -0.2777777777777778
            },
            "scale": {
              "x": 1.0,
              "y": 1.0
            },
            "rotation": 0.0,
            "alpha": 1.0
          },
          "extra_material_refs": [],
          "source_timerange": {
            "start": 0,
            "duration": 13089000
          },
          "common_keyframes": [],
          "keyframe_refs": [],
          "render_timerange": {
            "start": 0,
            "duration": 0
          },
          "speed": 1.0,
          "volume": 1.0
        },
        {
          "id": "9AEF9E87-24FF-42C6-B65A-FB5B93C004BF",
          "material_id": "D692B05F-4C92-4CA8-8F98-D806F9DA7A90",
          "target_timerange": {
            "start": 374884000,
            "duration": 14929000
          },
          "visible": true,
          "clip": {
            "transform": {
              "x": -0.5,
              "y": -0.2777777777777778
            },
            "scale": {
              "x": 1.0,
              "y": 1.0
            },
            "rotation": 0.0,
            "alpha": 1.0
          },
          "extra_material_refs": [],
          "source_timerange": {
            "start": 0,
            "duration": 14929000
          },
          "common_keyframes": [],
          "keyframe_refs": [],
          "render_timerange": {
            "start": 0,
            "duration": 0
          },
          "speed": 1.0,
          "volume": 1.0
        },
        {
          "id": "ED5C0428-53B5-4A29-8FFE-390C528A26EE",
          "material_id": "EC356BCE-39C0-4AF3-A316-6D752FE5F8C7",
          "target_timerange": {
            "start": 389814000,
            "duration": 13783999
          },
          "visible": true,
          "clip": {
            "transform": {
              "x": -0.5,
              "y": -0.2777777777777778
            },
            "scale": {
              "x": 1.0,
              "y": 1.0
            },
            "rotation": 0.0,
            "alpha": 1.0
          },
          "extra_material_refs": [],
          "source_timerange": {
            "start": 0,
            "duration": 13783999
          },
          "common_keyframes": [],
          "keyframe_refs": [],
          "render_timerange": {
            "start": 0,
            "duration": 0
          },
          "speed": 1.0,
          "volume": 1.0
        },
        {
          "id": "D32A4713-A046-4CFB-81AB-F6B045B643BD",
          "material_id": "12D1600F-B35D-4BA3-84DE-AD3388E2AF8F",
          "target_timerange": {
            "start": 403599000,
            "duration": 11434000
          },
          "visible": true,
          "clip": {
            "transform": {
              "x": -0.5,
              "y": -0.2777777777777778
            },
            "scale": {
              "x": 1.0,
              "y": 1.0
            },
            "rotation": 0.0,
            "alpha": 1.0
          },
          "extra_material_refs": [],
          "source_timerange": {
            "start": 0,
            "duration": 11434000
          },
          "common_keyframes": [],
          "keyframe_refs": [],
          "render_timerange": {
            "start": 0,
            "duration": 0
          },
          "speed": 1.0,
          "volume": 1.0
        },
        {
          "id": "0C98568A-DB49-48DD-AA32-07B58654B8CC",
          "material_id": "947FD517-AA5E-4C76-AE09-4F61810BCB9D",
          "target_timerange": {
            "start": 415034000,
            "duration": 13269000
          },
          "visible": true,
          "clip": {
            "transform": {
              "x": -0.5,
              "y": -0.2777777777777778
            },
            "scale": {
              "x": 1.0,
              "y": 1.0
            },
            "rotation": 0.0,
            "alpha": 1.0
          },
          "extra_material_refs": [],
          "source_timerange": {
            "start": 0,
            "duration": 13269000
          },
          "common_keyframes": [],
          "keyframe_refs": [],
          "render_timerange": {
            "start": 0,
            "duration": 0
          },
          "speed": 1.0,
          "volume": 1.0
        },
        {
          "id": "148F7B53-F732-46D4-9E53-91A16C00FA3D",
          "material_id": "298823B9-29B3-4E5D-B751-D7C215641F68",
          "target_timerange": {
            "start": 428304000,
            "duration": 11499000
          },
          "visible": true,
          "clip": {
            "transform": {
              "x": -0.5,
              "y": -0.2777777777777778
            },
            "scale": {
              "x": 1.0,
              "y": 1.0
            },
            "rotation": 0.0,
            "alpha": 1.0
          },
          "extra_material_refs": [],
          "source_timerange": {
            "start": 0,
            "duration": 11499000
          },
          "common_keyframes": [],
          "keyframe_refs": [],
          "render_timerange": {
            "start": 0,
            "duration": 0
          },
          "speed": 1.0,
          "volume": 1.0
        },
        {
          "id": "8A8F68AB-0CC4-41E0-92FF-AE19A03502B6",
          "material_id": "4D56B97D-F692-4317-8ACF-9FDB5DEDFC1F",
          "target_timerange": {
            "start": 439804000,
            "duration": 10214000
          },
          "visible": true,
          "clip": {
            "transform": {
              "x": -0.5,
              "y": -0.2777777777777778
            },
            "scale": {
              "x": 1.0,
              "y": 1.0
            },
            "rotation": 0.0,
            "alpha": 1.0
          },
          "extra_material_refs": [],
          "source_timerange": {
            "start": 0,
            "duration": 10214000
          },
          "common_keyframes": [],
          "keyframe_refs": [],
          "render_timerange": {
            "start": 0,
            "duration": 0
          },
          "speed": 1.0,
          "volume": 1.0
        },
        {
          "id": "F1610097-0228-4EC2-85FA-AE84B974AD96",
          "material_id": "40FF1811-31DE-4EBC-9B2B-21F28CFF48D5",
          "target_timerange": {
            "start": 450019000,
            "duration": 10689000
          },
          "visible": true,
          "clip": {
            "transform": {
              "x": -0.5,
              "y": -0.2777777777777778
            },
            "scale": {
              "x": 1.0,
              "y": 1.0
            },
            "rotation": 0.0,
            "alpha": 1.0
          },
          "extra_material_refs": [],
          "source_timerange": {
            "start": 0,
            "duration": 10689000
          },
          "common_keyframes": [],
          "keyframe_refs": [],
          "render_timerange": {
            "start": 0,
            "duration": 0
          },
          "speed": 1.0,
          "volume": 1.0
        },
        {
          "id": "CA7FD851-C8A9-475E-8E5F-6F850BFF943A",
          "material_id": "B28EA47B-1621-470D-AAD4-CEBFF637C624",
          "target_timerange": {
            "start": 460709000,
            "duration": 11224000
          },
          "visible": true,
          "clip": {
            "transform": {
              "x": -0.5,
              "y": -0.2777777777777778
            },
            "scale": {
              "x": 1.0,
              "y": 1.0
            },
            "rotation": 0.0,
            "alpha": 1.0
          },
          "extra_material_refs": [],
          "source_timerange": {
            "start": 0,
            "duration": 11224000
          },
          "common_keyframes": [],
          "keyframe_refs": [],
          "render_timerange": {
            "start": 0,
            "duration": 0
          },
          "speed": 1.0,
          "volume": 1.0
        },
        {
          "id": "948B4910-B79A-4365-A91F-1247AD61D0BF",
          "material_id": "09E6963F-ADDA-4A1B-9569-C959A7E06EF7",
          "target_timerange": {
            "start": 471934000,
            "duration": 9478999
          },
          "visible": true,
          "clip": {
            "transform": {
              "x": -0.5,
              "y": -0.2777777777777778
            },
            "scale": {
              "x": 1.0,
              "y": 1.0
            },
            "rotation": 0.0,
            "alpha": 1.0
          },
          "extra_material_refs": [],
          "source_timerange": {
            "start": 0,
            "duration": 9478999
          },
          "common_keyframes": [],
          "keyframe_refs": [],
          "render_timerange": {
            "start": 0,
            "duration": 0
          },
          "speed": 1.0,
          "volume": 1.0
        },
        {
          "id": "3F43A79E-FD02-43F2-8174-32416A5964D2",
          "material_id": "969FA5BC-EFAC-4EFD-9E6C-7C6D7B9D1B59",
          "target_timerange": {
            "start": 481414000,
            "duration": 1705000
          },
          "visible": true,
          "clip": {
            "transform": {
              "x": -0.5,
              "y": -0.2777777777777778
            },
            "scale": {
              "x": 1.0,
              "y": 1.0
            },
            "rotation": 0.0,
            "alpha": 1.0
          },
          "extra_material_refs": [],
          "source_timerange": {
            "start": 0,
            "duration": 1705000
          },
          "common_keyframes": [],
          "keyframe_refs": [],
          "render_timerange": {
            "start": 0,
            "duration": 0
          },
          "speed": 1.0,
          "volume": 1.0
        }
      ]
    },
    {
      "type": "text",
      "segments": [
        {
          "id": "F944AABA-F0A0-4218-9872-9C65AFBD7A2F",
          "material_id": "A9DDC39E-1F3C-4A00-B925-FCA68825BE7C",
          "target_timerange": {
            "start": 1784000,
            "duration": 12654000
          },
          "visible": true,
          "clip": {
            "transform": {
              "x": -0.5,
              "y": 0.09259259259259259
            },
            "scale": {
              "x": 1.0,
              "y": 1.0
            },
            "rotation": 0.0,
            "alpha": 1.0
          },
          "extra_material_refs": [],
          "source_timerange": {
            "start": 0,
            "duration": 12654000
          },
          "common_keyframes": [],
          "keyframe_refs": [],
          "render_timerange": {
            "start": 0,
            "duration": 0
          },
          "speed": 1.0,
          "volume": 1.0
        },
        {
          "id": "210A0D0B-AEF8-4AB9-946D-BDAD3FB108B5",
          "material_id": "26FD3282-7F77-4CF2-997D-8F8A583D4EDE",
          "target_timerange": {
            "start": 16239000,
            "duration": 10393999
          },
          "visible": true,
          "clip": {
            "transform": {
              "x": -0.5,
              "y": 0.09259259259259259
            },
            "scale": {
              "x": 1.0,
              "y": 1.0
            },
            "rotation": 0.0,
            "alpha": 1.0
          },
          "extra_material_refs": [],
          "source_timerange": {
            "start": 0,
            "duration": 10393999
          },
          "common_keyframes": [],
          "keyframe_refs": [],
          "render_timerange": {
            "start": 0,
            "duration": 0
          },
          "speed": 1.0,
          "volume": 1.0
        },
        {
          "id": "F8C8DA59-4C8A-471C-A8A2-617A5D3AF8B5",
          "material_id": "9A55003F-A075-4251-A963-BFBB381A2CF4",
          "target_timerange": {
            "start": 29419000,
            "duration": 7964000
          },
          "visible": true,
          "clip": {
            "transform": {
              "x": -0.5,
              "y": 0.09259259259259259
            },
            "scale": {
              "x": 1.0,
              "y": 1.0
            },
            "rotation": 0.0,
            "alpha": 1.0
          },
          "extra_material_refs": [],
          "source_timerange": {
            "start": 0,
            "duration": 7964000
          },
          "common_keyframes": [],
          "keyframe_refs": [],
          "render_timerange": {
            "start": 0,
            "duration": 0
          },
          "speed": 1.0,
          "volume": 1.0
        },
        {
          "id": "F956AA0C-1588-40A5-8487-8C8ED605D5EB",
          "material_id": "F0609F5C-D9A3-4710-BD0E-7241ABD6891E",
          "target_timerange": {
            "start": 39569000,
            "duration": 6323999
          },
          "visible": true,
          "clip": {
            "transform": {
              "x": -0.5,
              "y": 0.09259259259259259
            },
            "scale": {
              "x": 1.0,
              "y": 1.0
            },
            "rotation": 0.0,
            "alpha": 1.0
          },
          "extra_material_refs": [],
          "source_timerange": {
            "start": 0,
            "duration": 6323999
          },
          "common_keyframes": [],
          "keyframe_refs": [],
          "render_timerange": {
            "start": 0,
            "duration": 0
          },
          "speed": 1.0,
          "volume": 1.0
        },
        {
          "id": "B84C17E9-9677-4F82-A38E-53001D4F037C",
          "material_id": "A95964B6-F6A2-4CA1-8051-0FACE008A217",
          "target_timerange": {
            "start": 48489000,
            "duration": 8044000
          },
          "visible": true,
          "clip": {
            "transform": {
              "x": -0.5,
              "y": 0.09259259259259259
            },
            "scale": {
              "x": 1.0,
              "y": 1.0
            },
            "rotation": 0.0,
            "alpha": 1.0
          },
          "extra_material_refs": [],
          "source_timerange": {
            "start": 0,
            "duration": 8044000
          },
          "common_keyframes": [],
          "keyframe_refs": [],
          "render_timerange": {
            "start": 0,
            "duration": 0
          },
          "speed": 1.0,
          "volume": 1.0
        },
        {
          "id": "F3BF79DD-3973-4F95-ACEE-83F3F45A42F9",
          "material_id": "A8E2DC35-82E4-4758-B094-787814050B52",
          "target_timerange": {
            "start": 58549000,
            "duration": 10698999
          },
          "visible": true,
          "clip": {
            "transform": {
              "x": -0.5,
              "y": 0.09259259259259259
            },
            "scale": {
              "x": 1.0,
              "y": 1.0
            },
            "rotation": 0.0,
            "alpha": 1.0
          },
          "extra_material_refs": [],
          "source_timerange": {
            "start": 0,
            "duration": 10698999
          },
          "common_keyframes": [],
          "keyframe_refs": [],
          "render_timerange": {
            "start": 0,
            "duration": 0
          },
          "speed": 1.0,
          "volume": 1.0
        },
        {
          "id": "2C9452EC-BDA6-491C-B220-2B92423B9026",
          "material_id": "404A7630-C387-413C-8A83-37586052A0CB",
          "target_timerange": {
            "start": 74269000,
            "duration": 7198999
          },
          "visible": true,
          "clip": {
            "transform": {
              "x": -0.5,
              "y": 0.09259259259259259
            },
            "scale": {
              "x": 1.0,
              "y": 1.0
            },
            "rotation": 0.0,
            "alpha": 1.0
          },
          "extra_material_refs": [],
          "source_timerange": {
            "start": 0,
            "duration": 7198999
          },
          "common_keyframes": [],
          "keyframe_refs": [],
          "render_timerange": {
            "start": 0,
            "duration": 0
          },
          "speed": 1.0,
          "volume": 1.0
        },
        {
          "id": "9C256F85-2815-43DC-B0D7-339A5DD99D3A",
          "material_id": "08CA670C-FC3F-4CBD-B440-E2E4BAF3E10B",
          "target_timerange": {
            "start": 87144000,
            "duration": 13038999
          },
          "visible": true,
          "clip": {
            "transform": {
              "x": -0.5,
              "y": 0.09259259259259259
            },
            "scale": {
              "x": 1.0,
              "y": 1.0
            },
            "rotation": 0.0,
            "alpha": 1.0
          },
          "extra_material_refs": [],
          "source_timerange": {
            "start": 0,
            "duration": 13038999
          },
          "common_keyframes": [],
          "keyframe_refs": [],
          "render_timerange": {
            "start": 0,
            "duration": 0
          },
          "speed": 1.0,
          "volume": 1.0
        },
        {
          "id": "1F937223-DFB8-44E8-B9E1-9C9A01C5AA50",
          "material_id": "409BC84E-5FB7-43A0-8725-DCB0623AD471",
          "target_timerange": {
            "start": 103219000,
            "duration": 7513999
          },
          "visible": true,
          "clip": {
            "transform": {
              "x": -0.5,
              "y": 0.09259259259259259
            },
            "scale": {
              "x": 1.0,
              "y": 1.0
            },
            "rotation": 0.0,
            "alpha": 1.0
          },
          "extra_material_refs": [],
          "source_timerange": {
            "start": 0,
            "duration": 7513999
          },
          "common_keyframes": [],
          "keyframe_refs": [],
          "render_timerange": {
            "start": 0,
            "duration": 0
          },
          "speed": 1.0,
          "volume": 1.0
        },
        {
          "id": "EB79B9AC-534B-41F5-8E8E-AC6B29BA365A",
          "material_id": "FCCF7817-2EB9-47CC-B3B7-82A8183E8A95",
          "target_timerange": {
            "start": 113559000,
            "duration": 6914000
          },
          "visible": true,
          "clip": {
            "transform": {
              "x": -0.5,
              "y": 0.09259259259259259
            },
            "scale": {
              "x": 1.0,
              "y": 1.0
            },
            "rotation": 0.0,
            "alpha": 1.0
          },
          "extra_material_refs": [],
          "source_timerange": {
            "start": 0,
            "duration": 6914000
          },
          "common_keyframes": [],
          "keyframe_refs": [],
          "render_timerange": {
            "start": 0,
            "duration": 0
          },
          "speed": 1.0,
          "volume": 1.0
        },
        {
          "id": "C90BAD86-2A12-470C-9E07-2070D85F7E54",
          "material_id": "61022AFF-0A28-4686-A53F-61002FEF0C2F",
          "target_timerange": {
            "start": 121929000,
            "duration": 6903999
          },
          "visible": true,
          "clip": {
            "transform": {
              "x": -0.5,
              "y": 0.09259259259259259
            },
            "scale": {
              "x": 1.0,
              "y": 1.0
            },
            "rotation": 0.0,
            "alpha": 1.0
          },
          "extra_material_refs": [],
          "source_timerange": {
            "start": 0,
            "duration": 6903999
          },
          "common_keyframes": [],
          "keyframe_refs": [],
          "render_timerange": {
            "start": 0,
            "duration": 0
          },
          "speed": 1.0,
          "volume": 1.0
        },
        {
          "id": "E818E545-D7E5-4775-8BBE-0FBF3C744BE4",
          "material_id": "D83319EA-54F9-4A3B-9F05-30B451229F8E",
          "target_timerange": {
            "start": 130258999,
            "duration": 11629000
          },
          "visible": true,
          "clip": {
            "transform": {
              "x": -0.5,
              "y": 0.09259259259259259
            },
            "scale": {
              "x": 1.0,
              "y": 1.0
            },
            "rotation": 0.0,
            "alpha": 1.0
          },
          "extra_material_refs": [],
          "source_timerange": {
            "start": 0,
            "duration": 11629000
          },
          "common_keyframes": [],
          "keyframe_refs": [],
          "render_timerange": {
            "start": 0,
            "duration": 0
          },
          "speed": 1.0,
          "volume": 1.0
        },
        {
          "id": "BFCAB6DF-C191-4939-9E33-BA3C799E1891",
          "material_id": "E3799248-5C0F-4283-90E1-7FC2994CB22E",
          "target_timerange": {
            "start": 145839000,
            "duration": 12899000
          },
          "visible": true,
          "clip": {
            "transform": {
              "x": -0.5,
              "y": 0.09259259259259259
            },
            "scale": {
              "x": 1.0,
              "y": 1.0
            },
            "rotation": 0.0,
            "alpha": 1.0
          },
          "extra_material_refs": [],
          "source_timerange": {
            "start": 0,
            "duration": 12899000
          },
          "common_keyframes": [],
          "keyframe_refs": [],
          "render_timerange": {
            "start": 0,
            "duration": 0
          },
          "speed": 1.0,
          "volume": 1.0
        },
        {
          "id": "A6AB353E-450B-44E2-A947-BD65976B5B99",
          "material_id": "116404B4-1013-4AD7-8A5E-3AD7DAB3A710",
          "target_timerange": {
            "start": 162139000,
            "duration": 12023999
          },
          "visible": true,
          "clip": {
            "transform": {
              "x": -0.5,
              "y": 0.09259259259259259
            },
            "scale": {
              "x": 1.0,
              "y": 1.0
            },
            "rotation": 0.0,
            "alpha": 1.0
          },
          "extra_material_refs": [],
          "source_timerange": {
            "start": 0,
            "duration": 12023999
          },
          "common_keyframes": [],
          "keyframe_refs": [],
          "render_timerange": {
            "start": 0,
            "duration": 0
          },
          "speed": 1.0,
          "volume": 1.0
        },
        {
          "id": "976CA9D8-00D9-488E-ABD3-DF47F77CBFF2",
          "material_id": "205A8218-685B-425F-8C68-BD08478A8411",
          "target_timerange": {
            "start": 177359000,
            "duration": 7513999
          },
          "visible": true,
          "clip": {
            "transform": {
              "x": -0.5,
              "y": 0.09259259259259259
            },
            "scale": {
              "x": 1.0,
              "y": 1.0
            },
            "rotation": 0.0,
            "alpha": 1.0
          },
          "extra_material_refs": [],
          "source_timerange": {
            "start": 0,
            "duration": 7513999
          },
          "common_keyframes": [],
          "keyframe_refs": [],
          "render_timerange": {
            "start": 0,
            "duration": 0
          },
          "speed": 1.0,
          "volume": 1.0
        },
        {
          "id": "990500DA-76D3-4C36-AB04-CA39248143B2",
          "material_id": "1CA81B46-6B78-48FF-B9D7-AF70845EDAC0",
          "target_timerange": {
            "start": 186679000,
            "duration": 6788999
          },
          "visible": true,
          "clip": {
            "transform": {
              "x": -0.5,
              "y": 0.09259259259259259
            },
            "scale": {
              "x": 1.0,
              "y": 1.0
            },
            "rotation": 0.0,
            "alpha": 1.0
          },
          "extra_material_refs": [],
          "source_timerange": {
            "start": 0,
            "duration": 6788999
          },
          "common_keyframes": [],
          "keyframe_refs": [],
          "render_timerange": {
            "start": 0,
            "duration": 0
          },
          "speed": 1.0,
          "volume": 1.0
        },
        {
          "id": "DA0B1008-3958-4710-90F5-F8E53D6DDA47",
          "material_id": "B70A06A6-DBF0-429A-92F5-42B1BE6C42E3",
          "target_timerange": {
            "start": 196864000,
            "duration": 11663999
          },
          "visible": true,
          "clip": {
            "transform": {
              "x": -0.5,
              "y": 0.09259259259259259
            },
            "scale": {
              "x": 1.0,
              "y": 1.0
            },
            "rotation": 0.0,
            "alpha": 1.0
          },
          "extra_material_refs": [],
          "source_timerange": {
            "start": 0,
            "duration": 11663999
          },
          "common_keyframes": [],
          "keyframe_refs": [],
          "render_timerange": {
            "start": 0,
            "duration": 0
          },
          "speed": 1.0,
          "volume": 1.0
        },
        {
          "id": "5FC38F6E-EF8C-439A-8916-FC4670E85C3F",
          "material_id": "6C245EC3-F4CF-4B25-8D7E-7E7EC5173346",
          "target_timerange": {
            "start": 211229000,
            "duration": 9088999
          },
          "visible": true,
          "clip": {
            "transform": {
              "x": -0.5,
              "y": 0.09259259259259259
            },
            "scale": {
              "x": 1.0,
              "y": 1.0
            },
            "rotation": 0.0,
            "alpha": 1.0
          },
          "extra_material_refs": [],
          "source_timerange": {
            "start": 0,
            "duration": 9088999
          },
          "common_keyframes": [],
          "keyframe_refs": [],
          "render_timerange": {
            "start": 0,
            "duration": 0
          },
          "speed": 1.0,
          "volume": 1.0
        },
        {
          "id": "2F7E7C6C-A95D-4050-B778-B4A8778807CC",
          "material_id": "1357561A-B583-4AEA-AAC0-8F51ACF44209",
          "target_timerange": {
            "start": 224709000,
            "duration": 8353999
          },
          "visible": true,
          "clip": {
            "transform": {
              "x": -0.5,
              "y": 0.09259259259259259
            },
            "scale": {
              "x": 1.0,
              "y": 1.0
            },
            "rotation": 0.0,
            "alpha": 1.0
          },
          "extra_material_refs": [],
          "source_timerange": {
            "start": 0,
            "duration": 8353999
          },
          "common_keyframes": [],
          "keyframe_refs": [],
          "render_timerange": {
            "start": 0,
            "duration": 0
          },
          "speed": 1.0,
          "volume": 1.0
        },
        {
          "id": "47C9FB84-67E3-4D07-8CE7-6C1B0D6E2B8D",
          "material_id": "6AC95394-5A87-40BA-BA6D-CBA84C2A6033",
          "target_timerange": {
            "start": 236464000,
            "duration": 10543999
          },
          "visible": true,
          "clip": {
            "transform": {
              "x": -0.5,
              "y": 0.09259259259259259
            },
            "scale": {
              "x": 1.0,
              "y": 1.0
            },
            "rotation": 0.0,
            "alpha": 1.0
          },
          "extra_material_refs": [],
          "source_timerange": {
            "start": 0,
            "duration": 10543999
          },
          "common_keyframes": [],
          "keyframe_refs": [],
          "render_timerange": {
            "start": 0,
            "duration": 0
          },
          "speed": 1.0,
          "volume": 1.0
        },
        {
          "id": "4093DF6D-D9BA-4EAC-9AE1-BC1FF3ABCD2B",
          "material_id": "218AE75C-266F-4752-998B-DD5839698DD2",
          "target_timerange": {
            "start": 251254000,
            "duration": 8089000
          },
          "visible": true,
          "clip": {
            "transform": {
              "x": -0.5,
              "y": 0.09259259259259259
            },
            "scale": {
              "x": 1.0,
              "y": 1.0
            },
            "rotation": 0.0,
            "alpha": 1.0
          },
          "extra_material_refs": [],
          "source_timerange": {
            "start": 0,
            "duration": 8089000
          },
          "common_keyframes": [],
          "keyframe_refs": [],
          "render_timerange": {
            "start": 0,
            "duration": 0
          },
          "speed": 1.0,
          "volume": 1.0
        },
        {
          "id": "65812CDA-7DC6-471A-A067-17B94547CE89",
          "material_id": "0DDA6DAF-B616-476E-B137-F66C3E37236D",
          "target_timerange": {
            "start": 261269000,
            "duration": 10184000
          },
          "visible": true,
          "clip": {
            "transform": {
              "x": -0.5,
              "y": 0.09259259259259259
            },
            "scale": {
              "x": 1.0,
              "y": 1.0
            },
            "rotation": 0.0,
            "alpha": 1.0
          },
          "extra_material_refs": [],
          "source_timerange": {
            "start": 0,
            "duration": 10184000
          },
          "common_keyframes": [],
          "keyframe_refs": [],
          "render_timerange": {
            "start": 0,
            "duration": 0
          },
          "speed": 1.0,
          "volume": 1.0
        },
        {
          "id": "8D187367-0E38-44E8-9F59-6A862721591D",
          "material_id": "EEDBD566-AC25-4704-9745-58B0C378A563",
          "target_timerange": {
            "start": 273604000,
            "duration": 12299000
          },
          "visible": true,
          "clip": {
            "transform": {
              "x": -0.5,
              "y": 0.09259259259259259
            },
            "scale": {
              "x": 1.0,
              "y": 1.0
            },
            "rotation": 0.0,
            "alpha": 1.0
          },
          "extra_material_refs": [],
          "source_timerange": {
            "start": 0,
            "duration": 12299000
          },
          "common_keyframes": [],
          "keyframe_refs": [],
          "render_timerange": {
            "start": 0,
            "duration": 0
          },
          "speed": 1.0,
          "volume": 1.0
        },
        {
          "id": "207A41F3-3F1D-4F38-AE68-7F1A9FB8693D",
          "material_id": "ECB9A600-4EB4-46AA-81FA-8AB660179A8A",
          "target_timerange": {
            "start": 288654000,
            "duration": 8264000
          },
          "visible": true,
          "clip": {
            "transform": {
              "x": -0.5,
              "y": 0.09259259259259259
            },
            "scale": {
              "x": 1.0,
              "y": 1.0
            },
            "rotation": 0.0,
            "alpha": 1.0
          },
          "extra_material_refs": [],
          "source_timerange": {
            "start": 0,
            "duration": 8264000
          },
          "common_keyframes": [],
          "keyframe_refs": [],
          "render_timerange": {
            "start": 0,
            "duration": 0
          },
          "speed": 1.0,
          "volume": 1.0
        },
        {
          "id": "6A1A84F9-AFE6-439B-8228-72318812144A",
          "material_id": "FE6D142F-793E-4227-9444-136CFEED19C8",
          "target_timerange": {
            "start": 299494000,
            "duration": 8093999
          },
          "visible": true,
          "clip": {
            "transform": {
              "x": -0.5,
              "y": 0.09259259259259259
            },
            "scale": {
              "x": 1.0,
              "y": 1.0
            },
            "rotation": 0.0,
            "alpha": 1.0
          },
          "extra_material_refs": [],
          "source_timerange": {
            "start": 0,
            "duration": 8093999
          },
          "common_keyframes": [],
          "keyframe_refs": [],
          "render_timerange": {
            "start": 0,
            "duration": 0
          },
          "speed": 1.0,
          "volume": 1.0
        },
        {
          "id": "3259526E-DE18-4F74-871F-D92B2EA560F0",
          "material_id": "CDE7904C-28D0-4433-BEE6-F31DC29D84F8",
          "target_timerange": {
            "start": 310399000,
            "duration": 8749000
          },
          "visible": true,
          "clip": {
            "transform": {
              "x": -0.5,
              "y": 0.09259259259259259
            },
            "scale": {
              "x": 1.0,
              "y": 1.0
            },
            "rotation": 0.0,
            "alpha": 1.0
          },
          "extra_material_refs": [],
          "source_timerange": {
            "start": 0,
            "duration": 8749000
          },
          "common_keyframes": [],
          "keyframe_refs": [],
          "render_timerange": {
            "start": 0,
            "duration": 0
          },
          "speed": 1.0,
          "volume": 1.0
        },
        {
          "id": "4CCAEB8D-BEA9-435D-BF2D-AD647A8F17EC",
          "material_id": "DEDB8ED1-4486-4621-8666-B20FB2EDFDCD",
          "target_timerange": {
            "start": 321949000,
            "duration": 7014000
          },
          "visible": true,
          "clip": {
            "transform": {
              "x": -0.5,
              "y": 0.09259259259259259
            },
            "scale": {
              "x": 1.0,
              "y": 1.0
            },
            "rotation": 0.0,
            "alpha": 1.0
          },
          "extra_material_refs": [],
          "source_timerange": {
            "start": 0,
            "duration": 7014000
          },
          "common_keyframes": [],
          "keyframe_refs": [],
          "render_timerange": {
            "start": 0,
            "duration": 0
          },
          "speed": 1.0,
          "volume": 1.0
        },
        {
          "id": "FC506E60-FF5B-47FD-9F81-F1D7BE9B673E",
          "material_id": "39D5EB83-95A1-41B8-B745-264237C17D11",
          "target_timerange": {
            "start": 330614000,
            "duration": 9114000
          },
          "visible": true,
          "clip": {
            "transform": {
              "x": -0.5,
              "y": 0.09259259259259259
            },
            "scale": {
              "x": 1.0,
              "y": 1.0
            },
            "rotation": 0.0,
            "alpha": 1.0
          },
          "extra_material_refs": [],
          "source_timerange": {
            "start": 0,
            "duration": 9114000
          },
          "common_keyframes": [],
          "keyframe_refs": [],
          "render_timerange": {
            "start": 0,
            "duration": 0
          },
          "speed": 1.0,
          "volume": 1.0
        },
        {
          "id": "703A5DE4-F54C-4F4A-B73A-6F80EC692F8F",
          "material_id": "C8C6AE84-24A1-4B56-AF79-20C9063D6BDC",
          "target_timerange": {
            "start": 341569000,
            "duration": 6713999
          },
          "visible": true,
          "clip": {
            "transform": {
              "x": -0.5,
              "y": 0.09259259259259259
            },
            "scale": {
              "x": 1.0,
              "y": 1.0
            },
            "rotation": 0.0,
            "alpha": 1.0
          },
          "extra_material_refs": [],
          "source_timerange": {
            "start": 0,
            "duration": 6713999
          },
          "common_keyframes": [],
          "keyframe_refs": [],
          "render_timerange": {
            "start": 0,
            "duration": 0
          },
          "speed": 1.0,
          "volume": 1.0
        },
        {
          "id": "A14F3BD1-E316-4D19-ACE3-D08523584509",
          "material_id": "B7537BED-D347-433D-AED0-AECECE4CF696",
          "target_timerange": {
            "start": 350194000,
            "duration": 11598999
          },
          "visible": true,
          "clip": {
            "transform": {
              "x": -0.5,
              "y": 0.09259259259259259
            },
            "scale": {
              "x": 1.0,
              "y": 1.0
            },
            "rotation": 0.0,
            "alpha": 1.0
          },
          "extra_material_refs": [],
          "source_timerange": {
            "start": 0,
            "duration": 11598999
          },
          "common_keyframes": [],
          "keyframe_refs": [],
          "render_timerange": {
            "start": 0,
            "duration": 0
          },
          "speed": 1.0,
          "volume": 1.0
        },
        {
          "id": "0AFF804A-33DA-408D-AB96-A19BF3BE7100",
          "material_id": "B5B8562A-2A55-4384-960F-DFBB9053318F",
          "target_timerange": {
            "start": 365179000,
            "duration": 9704000
          },
          "visible": true,
          "clip": {
            "transform": {
              "x": -0.5,
              "y": 0.09259259259259259
            },
            "scale": {
              "x": 1.0,
              "y": 1.0
            },
            "rotation": 0.0,
            "alpha": 1.0
          },
          "extra_material_refs": [],
          "source_timerange": {
            "start": 0,
            "duration": 9704000
          },
          "common_keyframes": [],
          "keyframe_refs": [],
          "render_timerange": {
            "start": 0,
            "duration": 0
          },
          "speed": 1.0,
          "volume": 1.0
        },
        {
          "id": "AEED1418-672D-4759-A491-52D742AC1908",
          "material_id": "A0EB18AD-E595-4CA9-98CD-C918C2480E5C",
          "target_timerange": {
            "start": 380434000,
            "duration": 9379000
          },
          "visible": true,
          "clip": {
            "transform": {
              "x": -0.5,
              "y": 0.09259259259259259
            },
            "scale": {
              "x": 1.0,
              "y": 1.0
            },
            "rotation": 0.0,
            "alpha": 1.0
          },
          "extra_material_refs": [],
          "source_timerange": {
            "start": 0,
            "duration": 9379000
          },
          "common_keyframes": [],
          "keyframe_refs": [],
          "render_timerange": {
            "start": 0,
            "duration": 0
          },
          "speed": 1.0,
          "volume": 1.0
        },
        {
          "id": "1F7C13DD-D6B8-40F9-9D92-62EF28751454",
          "material_id": "DE67D672-C0A8-42D1-8DF7-382B41EDCB3C",
          "target_timerange": {
            "start": 392909000,
            "duration": 10689000
          },
          "visible": true,
          "clip": {
            "transform": {
              "x": -0.5,
              "y": 0.09259259259259259
            },
            "scale": {
              "x": 1.0,
              "y": 1.0
            },
            "rotation": 0.0,
            "alpha": 1.0
          },
          "extra_material_refs": [],
          "source_timerange": {
            "start": 0,
            "duration": 10689000
          },
          "common_keyframes": [],
          "keyframe_refs": [],
          "render_timerange": {
            "start": 0,
            "duration": 0
          },
          "speed": 1.0,
          "volume": 1.0
        },
        {
          "id": "DD9A1AC1-22D3-448C-8FA9-6D2D22F26BD1",
          "material_id": "C5BDC40F-1E3D-4410-ADD5-850EF23DA6E0",
          "target_timerange": {
            "start": 405604000,
            "duration": 9429000
          },
          "visible": true,
          "clip": {
            "transform": {
              "x": -0.5,
              "y": 0.09259259259259259
            },
            "scale": {
              "x": 1.0,
              "y": 1.0
            },
            "rotation": 0.0,
            "alpha": 1.0
          },
          "extra_material_refs": [],
          "source_timerange": {
            "start": 0,
            "duration": 9429000
          },
          "common_keyframes": [],
          "keyframe_refs": [],
          "render_timerange": {
            "start": 0,
            "duration": 0
          },
          "speed": 1.0,
          "volume": 1.0
        },
        {
          "id": "EA16E9F1-4684-40FF-B47D-708FFD7FA9C1",
          "material_id": "D6447401-984C-4616-88EF-C1D9CB6A351A",
          "target_timerange": {
            "start": 417759000,
            "duration": 10543999
          },
          "visible": true,
          "clip": {
            "transform": {
              "x": -0.5,
              "y": 0.09259259259259259
            },
            "scale": {
              "x": 1.0,
              "y": 1.0
            },
            "rotation": 0.0,
            "alpha": 1.0
          },
          "extra_material_refs": [],
          "source_timerange": {
            "start": 0,
            "duration": 10543999
          },
          "common_keyframes": [],
          "keyframe_refs": [],
          "render_timerange": {
            "start": 0,
            "duration": 0
          },
          "speed": 1.0,
          "volume": 1.0
        },
        {
          "id": "FF6C1EA3-CA58-44ED-8DE7-5F681BF45093",
          "material_id": "E0C33796-2494-4B79-8D6F-39E9C0BE8D5F",
          "target_timerange": {
            "start": 430964000,
            "duration": 8838999
          },
          "visible": true,
          "clip": {
            "transform": {
              "x": -0.5,
              "y": 0.09259259259259259
            },
            "scale": {
              "x": 1.0,
              "y": 1.0
            },
            "rotation": 0.0,
            "alpha": 1.0
          },
          "extra_material_refs": [],
          "source_timerange": {
            "start": 0,
            "duration": 8838999
          },
          "common_keyframes": [],
          "keyframe_refs": [],
          "render_timerange": {
            "start": 0,
            "duration": 0
          },
          "speed": 1.0,
          "volume": 1.0
        },
        {
          "id": "1C6E38B4-A315-473F-828C-7AC51894699A",
          "material_id": "74DEA985-4CDA-44C0-9A8E-47F5681E88E0",
          "target_timerange": {
            "start": 441639000,
            "duration": 8379000
          },
          "visible": true,
          "clip": {
            "transform": {
              "x": -0.5,
              "y": 0.09259259259259259
            },
            "scale": {
              "x": 1.0,
              "y": 1.0
            },
            "rotation": 0.0,
            "alpha": 1.0
          },
          "extra_material_refs": [],
          "source_timerange": {
            "start": 0,
            "duration": 8379000
          },
          "common_keyframes": [],
          "keyframe_refs": [],
          "render_timerange": {
            "start": 0,
            "duration": 0
          },
          "speed": 1.0,
          "volume": 1.0
        },
        {
          "id": "FD846F6F-122D-4ADA-9B0A-3AD0BC020090",
          "material_id": "BE5ADFBB-5EC1-4DF0-B60F-184EEA455995",
          "target_timerange": {
            "start": 452139000,
            "duration": 8569000
          },
          "visible": true,
          "clip": {
            "transform": {
              "x": -0.5,
              "y": 0.09259259259259259
            },
            "scale": {
              "x": 1.0,
              "y": 1.0
            },
            "rotation": 0.0,
            "alpha": 1.0
          },
          "extra_material_refs": [],
          "source_timerange": {
            "start": 0,
            "duration": 8569000
          },
          "common_keyframes": [],
          "keyframe_refs": [],
          "render_timerange": {
            "start": 0,
            "duration": 0
          },
          "speed": 1.0,
          "volume": 1.0
        },
        {
          "id": "8FC19DB5-8696-41E7-9113-2F481980C667",
          "material_id": "DDE85FAB-DAD7-473D-833E-16B57794806D",
          "target_timerange": {
            "start": 463714000,
            "duration": 8219000
          },
          "visible": true,
          "clip": {
            "transform": {
              "x": -0.5,
              "y": 0.09259259259259259
            },
            "scale": {
              "x": 1.0,
              "y": 1.0
            },
            "rotation": 0.0,
            "alpha": 1.0
          },
          "extra_material_refs": [],
          "source_timerange": {
            "start": 0,
            "duration": 8219000
          },
          "common_keyframes": [],
          "keyframe_refs": [],
          "render_timerange": {
            "start": 0,
            "duration": 0
          },
          "speed": 1.0,
          "volume": 1.0
        },
        {
          "id": "CE38493A-1CB6-4D53-B072-CE125C7FA1CC",
          "material_id": "6359A063-A518-428A-9ACD-7EAD3951C0D7",
          "target_timerange": {
            "start": 474274000,
            "duration": 7139000
          },
          "visible": true,
          "clip": {
            "transform": {
              "x": -0.5,
              "y": 0.09259259259259259
            },
            "scale": {
              "x": 1.0,
              "y": 1.0
            },
            "rotation": 0.0,
            "alpha": 1.0
          },
          "extra_material_refs": [],
          "source_timerange": {
            "start": 0,
            "duration": 7139000
          },
          "common_keyframes": [],
          "keyframe_refs": [],
          "render_timerange": {
            "start": 0,
            "duration": 0
          },
          "speed": 1.0,
          "volume": 1.0
        }
      ]
    },
    {
      "type": "text",
      "segments": [
        {
          "id": "FA477C22-3011-4B4B-A90E-C9B4232F2AEB",
          "material_id": "E33388F4-97AC-4D48-B0EB-4A1D9CA3D866",
          "target_timerange": {
            "start": 6614000,
            "duration": 7824000
          },
          "visible": true,
          "clip": {
            "transform": {
              "x": -0.5,
              "y": 0.46296296296296297
            },
            "scale": {
              "x": 1.0,
              "y": 1.0
            },
            "rotation": 0.0,
            "alpha": 1.0
          },
          "extra_material_refs": [],
          "source_timerange": {
            "start": 0,
            "duration": 7824000
          },
          "common_keyframes": [],
          "keyframe_refs": [],
          "render_timerange": {
            "start": 0,
            "duration": 0
          },
          "speed": 1.0,
          "volume": 1.0
        },
        {
          "id": "6D01AE2B-412E-4E18-B032-365E165F6646",
          "material_id": "F28869FE-2A42-4E69-9A41-86C66B1A3F5A",
          "target_timerange": {
            "start": 19804000,
            "duration": 6829000
          },
          "visible": true,
          "clip": {
            "transform": {
              "x": -0.5,
              "y": 0.46296296296296297
            },
            "scale": {
              "x": 1.0,
              "y": 1.0
            },
            "rotation": 0.0,
            "alpha": 1.0
          },
          "extra_material_refs": [],
          "source_timerange": {
            "start": 0,
            "duration": 6829000
          },
          "common_keyframes": [],
          "keyframe_refs": [],
          "render_timerange": {
            "start": 0,
            "duration": 0
          },
          "speed": 1.0,
          "volume": 1.0
        },
        {
          "id": "137E611F-256E-45BD-8B6A-231F58B1D15F",
          "material_id": "8FDD4DCF-1CE4-489F-9BD2-4954ED5E0217",
          "target_timerange": {
            "start": 32918999,
            "duration": 4464000
          },
          "visible": true,
          "clip": {
            "transform": {
              "x": -0.5,
              "y": 0.46296296296296297
            },
            "scale": {
              "x": 1.0,
              "y": 1.0
            },
            "rotation": 0.0,
            "alpha": 1.0
          },
          "extra_material_refs": [],
          "source_timerange": {
            "start": 0,
            "duration": 4464000
          },
          "common_keyframes": [],
          "keyframe_refs": [],
          "render_timerange": {
            "start": 0,
            "duration": 0
          },
          "speed": 1.0,
          "volume": 1.0
        },
        {
          "id": "3823D98D-F69B-4100-A421-60F939C0D001",
          "material_id": "08F86BF8-1672-4799-990B-76E9B0BD186F",
          "target_timerange": {
            "start": 42759000,
            "duration": 3134000
          },
          "visible": true,
          "clip": {
            "transform": {
              "x": -0.5,
              "y": 0.46296296296296297
            },
            "scale": {
              "x": 1.0,
              "y": 1.0
            },
            "rotation": 0.0,
            "alpha": 1.0
          },
          "extra_material_refs": [],
          "source_timerange": {
            "start": 0,
            "duration": 3134000
          },
          "common_keyframes": [],
          "keyframe_refs": [],
          "render_timerange": {
            "start": 0,
            "duration": 0
          },
          "speed": 1.0,
          "volume": 1.0
        },
        {
          "id": "380AC3A1-045F-4F5D-80BC-6E275F2405EC",
          "material_id": "C02CA436-D583-4A24-AA01-342FACFF9BF3",
          "target_timerange": {
            "start": 50384000,
            "duration": 6149000
          },
          "visible": true,
          "clip": {
            "transform": {
              "x": -0.5,
              "y": 0.46296296296296297
            },
            "scale": {
              "x": 1.0,
              "y": 1.0
            },
            "rotation": 0.0,
            "alpha": 1.0
          },
          "extra_material_refs": [],
          "source_timerange": {
            "start": 0,
            "duration": 6149000
          },
          "common_keyframes": [],
          "keyframe_refs": [],
          "render_timerange": {
            "start": 0,
            "duration": 0
          },
          "speed": 1.0,
          "volume": 1.0
        },
        {
          "id": "79AA697B-33C4-4A27-8E9D-9E640665E321",
          "material_id": "57640C6D-97A5-4CF2-AF5B-D0FEDBBCD0F1",
          "target_timerange": {
            "start": 62654000,
            "duration": 6593999
          },
          "visible": true,
          "clip": {
            "transform": {
              "x": -0.5,
              "y": 0.46296296296296297
            },
            "scale": {
              "x": 1.0,
              "y": 1.0
            },
            "rotation": 0.0,
            "alpha": 1.0
          },
          "extra_material_refs": [],
          "source_timerange": {
            "start": 0,
            "duration": 6593999
          },
          "common_keyframes": [],
          "keyframe_refs": [],
          "render_timerange": {
            "start": 0,
            "duration": 0
          },
          "speed": 1.0,
          "volume": 1.0
        },
        {
          "id": "D7545D19-9480-4FB0-B489-AE3228A13AC6",
          "material_id": "4D018FF1-1835-46FE-902C-2EE477397406",
          "target_timerange": {
            "start": 76619000,
            "duration": 4848999
          },
          "visible": true,
          "clip": {
            "transform": {
              "x": -0.5,
              "y": 0.46296296296296297
            },
            "scale": {
              "x": 1.0,
              "y": 1.0
            },
            "rotation": 0.0,
            "alpha": 1.0
          },
          "extra_material_refs": [],
          "source_timerange": {
            "start": 0,
            "duration": 4848999
          },
          "common_keyframes": [],
          "keyframe_refs": [],
          "render_timerange": {
            "start": 0,
            "duration": 0
          },
          "speed": 1.0,
          "volume": 1.0
        },
        {
          "id": "B5013309-DDAC-4CA9-AEFF-9C4E4E3A1294",
          "material_id": "9E68BCE6-EA81-436B-B71A-44EEE3A4C40D",
          "target_timerange": {
            "start": 89124000,
            "duration": 11058999
          },
          "visible": true,
          "clip": {
            "transform": {
              "x": -0.5,
              "y": 0.46296296296296297
            },
            "scale": {
              "x": 1.0,
              "y": 1.0
            },
            "rotation": 0.0,
            "alpha": 1.0
          },
          "extra_material_refs": [],
          "source_timerange": {
            "start": 0,
            "duration": 11058999
          },
          "common_keyframes": [],
          "keyframe_refs": [],
          "render_timerange": {
            "start": 0,
            "duration": 0
          },
          "speed": 1.0,
          "volume": 1.0
        },
        {
          "id": "F968273D-CAEE-47A5-AD56-1C1B400956C3",
          "material_id": "33C131A0-1755-4A8C-A71C-3C4567C18719",
          "target_timerange": {
            "start": 105099000,
            "duration": 5633999
          },
          "visible": true,
          "clip": {
            "transform": {
              "x": -0.5,
              "y": 0.46296296296296297
            },
            "scale": {
              "x": 1.0,
              "y": 1.0
            },
            "rotation": 0.0,
            "alpha": 1.0
          },
          "extra_material_refs": [],
          "source_timerange": {
            "start": 0,
            "duration": 5633999
          },
          "common_keyframes": [],
          "keyframe_refs": [],
          "render_timerange": {
            "start": 0,
            "duration": 0
          },
          "speed": 1.0,
          "volume": 1.0
        },
        {
          "id": "04E33778-BD9A-4481-874C-0766CA160FDD",
          "material_id": "4C87393C-AD6F-486F-8B37-99AF3BE205E2",
          "target_timerange": {
            "start": 116294000,
            "duration": 4179000
          },
          "visible": true,
          "clip": {
            "transform": {
              "x": -0.5,
              "y": 0.46296296296296297
            },
            "scale": {
              "x": 1.0,
              "y": 1.0
            },
            "rotation": 0.0,
            "alpha": 1.0
          },
          "extra_material_refs": [],
          "source_timerange": {
            "start": 0,
            "duration": 4179000
          },
          "common_keyframes": [],
          "keyframe_refs": [],
          "render_timerange": {
            "start": 0,
            "duration": 0
          },
          "speed": 1.0,
          "volume": 1.0
        },
        {
          "id": "3DF8D7E5-FE34-4BCE-AF61-DF382822A93D",
          "material_id": "437F693D-00D5-4AA3-8C81-F33B6E1CE797",
          "target_timerange": {
            "start": 124289000,
            "duration": 4543999
          },
          "visible": true,
          "clip": {
            "transform": {
              "x": -0.5,
              "y": 0.46296296296296297
            },
            "scale": {
              "x": 1.0,
              "y": 1.0
            },
            "rotation": 0.0,
            "alpha": 1.0
          },
          "extra_material_refs": [],
          "source_timerange": {
            "start": 0,
            "duration": 4543999
          },
          "common_keyframes": [],
          "keyframe_refs": [],
          "render_timerange": {
            "start": 0,
            "duration": 0
          },
          "speed": 1.0,
          "volume": 1.0
        },
        {
          "id": "9F2981D7-9940-44EF-9F26-D4B6DEDE6FDD",
          "material_id": "C2CFF5A7-E451-4667-8A0B-A6DEFEB6D35A",
          "target_timerange": {
            "start": 134954000,
            "duration": 6933999
          },
          "visible": true,
          "clip": {
            "transform": {
              "x": -0.5,
              "y": 0.46296296296296297
            },
            "scale": {
              "x": 1.0,
              "y": 1.0
            },
            "rotation": 0.0,
            "alpha": 1.0
          },
          "extra_material_refs": [],
          "source_timerange": {
            "start": 0,
            "duration": 6933999
          },
          "common_keyframes": [],
          "keyframe_refs": [],
          "render_timerange": {
            "start": 0,
            "duration": 0
          },
          "speed": 1.0,
          "volume": 1.0
        },
        {
          "id": "8C89EDA6-37AB-4D51-99B8-605DB1B9E054",
          "material_id": "1D97F1F7-E6D5-4EB4-8625-AF2612EDB5AF",
          "target_timerange": {
            "start": 148159000,
            "duration": 10579000
          },
          "visible": true,
          "clip": {
            "transform": {
              "x": -0.5,
              "y": 0.46296296296296297
            },
            "scale": {
              "x": 1.0,
              "y": 1.0
            },
            "rotation": 0.0,
            "alpha": 1.0
          },
          "extra_material_refs": [],
          "source_timerange": {
            "start": 0,
            "duration": 10579000
          },
          "common_keyframes": [],
          "keyframe_refs": [],
          "render_timerange": {
            "start": 0,
            "duration": 0
          },
          "speed": 1.0,
          "volume": 1.0
        },
        {
          "id": "B11432FA-F96A-4EBA-BAB9-13FA0D69C35F",
          "material_id": "B373B77D-44F3-4FE6-8AE4-C420CD1BE330",
          "target_timerange": {
            "start": 167894000,
            "duration": 6268999
          },
          "visible": true,
          "clip": {
            "transform": {
              "x": -0.5,
              "y": 0.46296296296296297
            },
            "scale": {
              "x": 1.0,
              "y": 1.0
            },
            "rotation": 0.0,
            "alpha": 1.0
          },
          "extra_material_refs": [],
          "source_timerange": {
            "start": 0,
            "duration": 6268999
          },
          "common_keyframes": [],
          "keyframe_refs": [],
          "render_timerange": {
            "start": 0,
            "duration": 0
          },
          "speed": 1.0,
          "volume": 1.0
        },
        {
          "id": "6586E70D-F4CA-4662-8C3F-F322D56B61D8",
          "material_id": "14B5B6EB-3252-4215-8AFA-E9E5C0D08A00",
          "target_timerange": {
            "start": 180634000,
            "duration": 4239000
          },
          "visible": true,
          "clip": {
            "transform": {
              "x": -0.5,
              "y": 0.46296296296296297
            },
            "scale": {
              "x": 1.0,
              "y": 1.0
            },
            "rotation": 0.0,
            "alpha": 1.0
          },
          "extra_material_refs": [],
          "source_timerange": {
            "start": 0,
            "duration": 4239000
          },
          "common_keyframes": [],
          "keyframe_refs": [],
          "render_timerange": {
            "start": 0,
            "duration": 0
          },
          "speed": 1.0,
          "volume": 1.0
        },
        {
          "id": "4F90F0B1-71DA-4193-AF4D-E215DB3E164E",
          "material_id": "5141A9D5-25B6-4C4F-972E-0B80404CB0C2",
          "target_timerange": {
            "start": 188944000,
            "duration": 4524000
          },
          "visible": true,
          "clip": {
            "transform": {
              "x": -0.5,
              "y": 0.46296296296296297
            },
            "scale": {
              "x": 1.0,
              "y": 1.0
            },
            "rotation": 0.0,
            "alpha": 1.0
          },
          "extra_material_refs": [],
          "source_timerange": {
            "start": 0,
            "duration": 4524000
          },
          "common_keyframes": [],
          "keyframe_refs": [],
          "render_timerange": {
            "start": 0,
            "duration": 0
          },
          "speed": 1.0,
          "volume": 1.0
        },
        {
          "id": "94E6D260-03D6-4FAD-8760-4A35A4786616",
          "material_id": "518258A9-9E7E-4B36-8C0B-20944FD0E7D2",
          "target_timerange": {
            "start": 200109000,
            "duration": 8418999
          },
          "visible": true,
          "clip": {
            "transform": {
              "x": -0.5,
              "y": 0.46296296296296297
            },
            "scale": {
              "x": 1.0,
              "y": 1.0
            },
            "rotation": 0.0,
            "alpha": 1.0
          },
          "extra_material_refs": [],
          "source_timerange": {
            "start": 0,
            "duration": 8418999
          },
          "common_keyframes": [],
          "keyframe_refs": [],
          "render_timerange": {
            "start": 0,
            "duration": 0
          },
          "speed": 1.0,
          "volume": 1.0
        },
        {
          "id": "A464BA4B-56E9-4F64-B36D-E7FC6B369517",
          "material_id": "873F1323-B936-40D0-9E9F-5041747774B5",
          "target_timerange": {
            "start": 217349000,
            "duration": 2968999
          },
          "visible": true,
          "clip": {
            "transform": {
              "x": -0.5,
              "y": 0.46296296296296297
            },
            "scale": {
              "x": 1.0,
              "y": 1.0
            },
            "rotation": 0.0,
            "alpha": 1.0
          },
          "extra_material_refs": [],
          "source_timerange": {
            "start": 0,
            "duration": 2968999
          },
          "common_keyframes": [],
          "keyframe_refs": [],
          "render_timerange": {
            "start": 0,
            "duration": 0
          },
          "speed": 1.0,
          "volume": 1.0
        },
        {
          "id": "815F2C76-6067-439B-99A6-08610D0F9D56",
          "material_id": "6BB7C866-A131-4649-86B7-6EF5F40AB345",
          "target_timerange": {
            "start": 227844000,
            "duration": 5218999
          },
          "visible": true,
          "clip": {
            "transform": {
              "x": -0.5,
              "y": 0.46296296296296297
            },
            "scale": {
              "x": 1.0,
              "y": 1.0
            },
            "rotation": 0.0,
            "alpha": 1.0
          },
          "extra_material_refs": [],
          "source_timerange": {
            "start": 0,
            "duration": 5218999
          },
          "common_keyframes": [],
          "keyframe_refs": [],
          "render_timerange": {
            "start": 0,
            "duration": 0
          },
          "speed": 1.0,
          "volume": 1.0
        },
        {
          "id": "6693F5FA-BCAC-493A-A7D1-29FF67C303A8",
          "material_id": "B19E4D95-3FE1-4236-9E65-601FAF96E501",
          "target_timerange": {
            "start": 239774000,
            "duration": 7233999
          },
          "visible": true,
          "clip": {
            "transform": {
              "x": -0.5,
              "y": 0.46296296296296297
            },
            "scale": {
              "x": 1.0,
              "y": 1.0
            },
            "rotation": 0.0,
            "alpha": 1.0
          },
          "extra_material_refs": [],
          "source_timerange": {
            "start": 0,
            "duration": 7233999
          },
          "common_keyframes": [],
          "keyframe_refs": [],
          "render_timerange": {
            "start": 0,
            "duration": 0
          },
          "speed": 1.0,
          "volume": 1.0
        },
        {
          "id": "02B35971-E4A6-41D9-84D1-233D6D3E3B21",
          "material_id": "738CEFB9-B2A7-48A9-AEAB-EF5509BCE87E",
          "target_timerange": {
            "start": 254764000,
            "duration": 4579000
          },
          "visible": true,
          "clip": {
            "transform": {
              "x": -0.5,
              "y": 0.46296296296296297
            },
            "scale": {
              "x": 1.0,
              "y": 1.0
            },
            "rotation": 0.0,
            "alpha": 1.0
          },
          "extra_material_refs": [],
          "source_timerange": {
            "start": 0,
            "duration": 4579000
          },
          "common_keyframes": [],
          "keyframe_refs": [],
          "render_timerange": {
            "start": 0,
            "duration": 0
          },
          "speed": 1.0,
          "volume": 1.0
        },
        {
          "id": "900ABB15-297F-4B5E-A712-0DF6C73C1004",
          "material_id": "5BCC9A4B-69F3-487F-851C-DB65A4792D83",
          "target_timerange": {
            "start": 265939000,
            "duration": 5514000
          },
          "visible": true,
          "clip": {
            "transform": {
              "x": -0.5,
              "y": 0.46296296296296297
            },
            "scale": {
              "x": 1.0,
              "y": 1.0
            },
            "rotation": 0.0,
            "alpha": 1.0
          },
          "extra_material_refs": [],
          "source_timerange": {
            "start": 0,
            "duration": 5514000
          },
          "common_keyframes": [],
          "keyframe_refs": [],
          "render_timerange": {
            "start": 0,
            "duration": 0
          },
          "speed": 1.0,
          "volume": 1.0
        },
        {
          "id": "78D3054C-54A4-4BD6-BC97-A5ADB23B2899",
          "material_id": "FA47B7DD-699A-4D71-9193-BE9F85B08610",
          "target_timerange": {
            "start": 279279000,
            "duration": 6624000
          },
          "visible": true,
          "clip": {
            "transform": {
              "x": -0.5,
              "y": 0.46296296296296297
            },
            "scale": {
              "x": 1.0,
              "y": 1.0
            },
            "rotation": 0.0,
            "alpha": 1.0
          },
          "extra_material_refs": [],
          "source_timerange": {
            "start": 0,
            "duration": 6624000
          },
          "common_keyframes": [],
          "keyframe_refs": [],
          "render_timerange": {
            "start": 0,
            "duration": 0
          },
          "speed": 1.0,
          "volume": 1.0
        },
        {
          "id": "7B3A9220-8D1F-44B5-A6B6-CCFDDDE495A0",
          "material_id": "FC1C081A-940E-4FA5-AD30-B4C1140F8622",
          "target_timerange": {
            "start": 290284000,
            "duration": 6634000
          },
          "visible": true,
          "clip": {
            "transform": {
              "x": -0.5,
              "y": 0.46296296296296297
            },
            "scale": {
              "x": 1.0,
              "y": 1.0
            },
            "rotation": 0.0,
            "alpha": 1.0
          },
          "extra_material_refs": [],
          "source_timerange": {
            "start": 0,
            "duration": 6634000
          },
          "common_keyframes": [],
          "keyframe_refs": [],
          "render_timerange": {
            "start": 0,
            "duration": 0
          },
          "speed": 1.0,
          "volume": 1.0
        },
        {
          "id": "BF90B464-3672-463C-B04E-A9C1D994CED4",
          "material_id": "1BE037F9-6DF4-47D8-92F3-ABF2A26D25BA",
          "target_timerange": {
            "start": 301464000,
            "duration": 6124000
          },
          "visible": true,
          "clip": {
            "transform": {
              "x": -0.5,
              "y": 0.46296296296296297
            },
            "scale": {
              "x": 1.0,
              "y": 1.0
            },
            "rotation": 0.0,
            "alpha": 1.0
          },
          "extra_material_refs": [],
          "source_timerange": {
            "start": 0,
            "duration": 6124000
          },
          "common_keyframes": [],
          "keyframe_refs": [],
          "render_timerange": {
            "start": 0,
            "duration": 0
          },
          "speed": 1.0,
          "volume": 1.0
        },
        {
          "id": "D3587AC0-22E5-420D-AE07-29A7F4D17234",
          "material_id": "9614AB3C-407F-4F1C-8F1A-5EAB1CC2049D",
          "target_timerange": {
            "start": 313229000,
            "duration": 5919000
          },
          "visible": true,
          "clip": {
            "transform": {
              "x": -0.5,
              "y": 0.46296296296296297
            },
            "scale": {
              "x": 1.0,
              "y": 1.0
            },
            "rotation": 0.0,
            "alpha": 1.0
          },
          "extra_material_refs": [],
          "source_timerange": {
            "start": 0,
            "duration": 5919000
          },
          "common_keyframes": [],
          "keyframe_refs": [],
          "render_timerange": {
            "start": 0,
            "duration": 0
          },
          "speed": 1.0,
          "volume": 1.0
        },
        {
          "id": "75D5614D-D406-4E93-9C27-F3060050A0C8",
          "material_id": "475BFB77-8167-4772-B05D-97CFFAF6F6C2",
          "target_timerange": {
            "start": 323874000,
            "duration": 5088999
          },
          "visible": true,
          "clip": {
            "transform": {
              "x": -0.5,
              "y": 0.46296296296296297
            },
            "scale": {
              "x": 1.0,
              "y": 1.0
            },
            "rotation": 0.0,
            "alpha": 1.0
          },
          "extra_material_refs": [],
          "source_timerange": {
            "start": 0,
            "duration": 5088999
          },
          "common_keyframes": [],
          "keyframe_refs": [],
          "render_timerange": {
            "start": 0,
            "duration": 0
          },
          "speed": 1.0,
          "volume": 1.0
        },
        {
          "id": "E36E542C-4BE4-4DF3-93D0-DECB118F3F1B",
          "material_id": "94D26843-457F-4E90-B3A0-DBCDC578A529",
          "target_timerange": {
            "start": 332649000,
            "duration": 7079000
          },
          "visible": true,
          "clip": {
            "transform": {
              "x": -0.5,
              "y": 0.46296296296296297
            },
            "scale": {
              "x": 1.0,
              "y": 1.0
            },
            "rotation": 0.0,
            "alpha": 1.0
          },
          "extra_material_refs": [],
          "source_timerange": {
            "start": 0,
            "duration": 7079000
          },
          "common_keyframes": [],
          "keyframe_refs": [],
          "render_timerange": {
            "start": 0,
            "duration": 0
          },
          "speed": 1.0,
          "volume": 1.0
        },
        {
          "id": "1442405F-0FA9-43FB-81CF-7608B2AB0401",
          "material_id": "AB593B3E-52E9-4CE3-81EE-124CB81F65D7",
          "target_timerange": {
            "start": 343469000,
            "duration": 4814000
          },
          "visible": true,
          "clip": {
            "transform": {
              "x": -0.5,
              "y": 0.46296296296296297
            },
            "scale": {
              "x": 1.0,
              "y": 1.0
            },
            "rotation": 0.0,
            "alpha": 1.0
          },
          "extra_material_refs": [],
          "source_timerange": {
            "start": 0,
            "duration": 4814000
          },
          "common_keyframes": [],
          "keyframe_refs": [],
          "render_timerange": {
            "start": 0,
            "duration": 0
          },
          "speed": 1.0,
          "volume": 1.0
        },
        {
          "id": "8963C285-3674-4B1A-95FA-754D9BD75C58",
          "material_id": "9D1E863A-2978-4418-97B9-820D818000A0",
          "target_timerange": {
            "start": 353724000,
            "duration": 8069000
          },
          "visible": true,
          "clip": {
            "transform": {
              "x": -0.5,
              "y": 0.46296296296296297
            },
            "scale": {
              "x": 1.0,
              "y": 1.0
            },
            "rotation": 0.0,
            "alpha": 1.0
          },
          "extra_material_refs": [],
          "source_timerange": {
            "start": 0,
            "duration": 8069000
          },
          "common_keyframes": [],
          "keyframe_refs": [],
          "render_timerange": {
            "start": 0,
            "duration": 0
          },
          "speed": 1.0,
          "volume": 1.0
        },
        {
          "id": "F0D6C6E5-51BC-42D9-AF0B-0CC45331B0B5",
          "material_id": "D1B06758-B268-4889-A031-20867E013BAB",
          "target_timerange": {
            "start": 367529000,
            "duration": 7354000
          },
          "visible": true,
          "clip": {
            "transform": {
              "x": -0.5,
              "y": 0.46296296296296297
            },
            "scale": {
              "x": 1.0,
              "y": 1.0
            },
            "rotation": 0.0,
            "alpha": 1.0
          },
          "extra_material_refs": [],
          "source_timerange": {
            "start": 0,
            "duration": 7354000
          },
          "common_keyframes": [],
          "keyframe_refs": [],
          "render_timerange": {
            "start": 0,
            "duration": 0
          },
          "speed": 1.0,
          "volume": 1.0
        },
        {
          "id": "E1A2368A-B973-4CD3-854B-C315FF175669",
          "material_id": "E878ECFC-DE07-4ECA-B0BA-3ECE06DA3C1F",
          "target_timerange": {
            "start": 383619000,
            "duration": 6194000
          },
          "visible": true,
          "clip": {
            "transform": {
              "x": -0.5,
              "y": 0.46296296296296297
            },
            "scale": {
              "x": 1.0,
              "y": 1.0
            },
            "rotation": 0.0,
            "alpha": 1.0
          },
          "extra_material_refs": [],
          "source_timerange": {
            "start": 0,
            "duration": 6194000
          },
          "common_keyframes": [],
          "keyframe_refs": [],
          "render_timerange": {
            "start": 0,
            "duration": 0
          },
          "speed": 1.0,
          "volume": 1.0
        },
        {
          "id": "0D7366EC-7622-4FC8-BA95-4E87C402ED23",
          "material_id": "E5FAB115-29AC-435C-B0AF-AF332619DED7",
          "target_timerange": {
            "start": 395229000,
            "duration": 8369000
          },
          "visible": true,
          "clip": {
            "transform": {
              "x": -0.5,
              "y": 0.46296296296296297
            },
            "scale": {
              "x": 1.0,
              "y": 1.0
            },
            "rotation": 0.0,
            "alpha": 1.0
          },
          "extra_material_refs": [],
          "source_timerange": {
            "start": 0,
            "duration": 8369000
          },
          "common_keyframes": [],
          "keyframe_refs": [],
          "render_timerange": {
            "start": 0,
            "duration": 0
          },
          "speed": 1.0,
          "volume": 1.0
        },
        {
          "id": "858C9EB1-1868-45B5-9CA8-98C8DD6BB950",
          "material_id": "409F75AD-C6E9-4672-9989-12D0F933C4C6",
          "target_timerange": {
            "start": 410009000,
            "duration": 5024000
          },
          "visible": true,
          "clip": {
            "transform": {
              "x": -0.5,
              "y": 0.46296296296296297
            },
            "scale": {
              "x": 1.0,
              "y": 1.0
            },
            "rotation": 0.0,
            "alpha": 1.0
          },
          "extra_material_refs": [],
          "source_timerange": {
            "start": 0,
            "duration": 5024000
          },
          "common_keyframes": [],
          "keyframe_refs": [],
          "render_timerange": {
            "start": 0,
            "duration": 0
          },
          "speed": 1.0,
          "volume": 1.0
        },
        {
          "id": "171AAD74-E4EF-42C7-BD9B-7D0E11A8A0CB",
          "material_id": "BA2546A2-4166-4EBD-8676-B1254D20A807",
          "target_timerange": {
            "start": 422374000,
            "duration": 5928999
          },
          "visible": true,
          "clip": {
            "transform": {
              "x": -0.5,
              "y": 0.46296296296296297
            },
            "scale": {
              "x": 1.0,
              "y": 1.0
            },
            "rotation": 0.0,
            "alpha": 1.0
          },
          "extra_material_refs": [],
          "source_timerange": {
            "start": 0,
            "duration": 5928999
          },
          "common_keyframes": [],
          "keyframe_refs": [],
          "render_timerange": {
            "start": 0,
            "duration": 0
          },
          "speed": 1.0,
          "volume": 1.0
        },
        {
          "id": "FA75CDEF-3805-44EF-8AC9-A59BC898BADB",
          "material_id": "B2B2747B-04C9-4EA4-9EFD-1D7566CD7A36",
          "target_timerange": {
            "start": 433364000,
            "duration": 6439000
          },
          "visible": true,
          "clip": {
            "transform": {
              "x": -0.5,
              "y": 0.46296296296296297
            },
            "scale": {
              "x": 1.0,
              "y": 1.0
            },
            "rotation": 0.0,
            "alpha": 1.0
          },
          "extra_material_refs": [],
          "source_timerange": {
            "start": 0,
            "duration": 6439000
          },
          "common_keyframes": [],
          "keyframe_refs": [],
          "render_timerange": {
            "start": 0,
            "duration": 0
          },
          "speed": 1.0,
          "volume": 1.0
        },
        {
          "id": "6F13B1BB-2C52-4C5B-94F4-688D5B7E9945",
          "material_id": "A5C4FAD3-1C58-422B-9903-E181DCC023A0",
          "target_timerange": {
            "start": 444074000,
            "duration": 5944000
          },
          "visible": true,
          "clip": {
            "transform": {
              "x": -0.5,
              "y": 0.46296296296296297
            },
            "scale": {
              "x": 1.0,
              "y": 1.0
            },
            "rotation": 0.0,
            "alpha": 1.0
          },
          "extra_material_refs": [],
          "source_timerange": {
            "start": 0,
            "duration": 5944000
          },
          "common_keyframes": [],
          "keyframe_refs": [],
          "render_timerange": {
            "start": 0,
            "duration": 0
          },
          "speed": 1.0,
          "volume": 1.0
        },
        {
          "id": "F33A54DD-7585-4551-A01B-1DF13E8AC7CE",
          "material_id": "20FF8892-F7CA-43B4-8550-40BF0561CD62",
          "target_timerange": {
            "start": 454389000,
            "duration": 6319000
          },
          "visible": true,
          "clip": {
            "transform": {
              "x": -0.5,
              "y": 0.46296296296296297
            },
            "scale": {
              "x": 1.0,
              "y": 1.0
            },
            "rotation": 0.0,
            "alpha": 1.0
          },
          "extra_material_refs": [],
          "source_timerange": {
            "start": 0,
            "duration": 6319000
          },
          "common_keyframes": [],
          "keyframe_refs": [],
          "render_timerange": {
            "start": 0,
            "duration": 0
          },
          "speed": 1.0,
          "volume": 1.0
        },
        {
          "id": "F43DD54A-0B8A-4B5D-A50D-2C86A3BBEB25",
          "material_id": "D9E3079A-B7FE-4C19-A466-2BEC10150523",
          "target_timerange": {
            "start": 466489000,
            "duration": 5444000
          },
          "visible": true,
          "clip": {
            "transform": {
              "x": -0.5,
              "y": 0.46296296296296297
            },
            "scale": {
              "x": 1.0,
              "y": 1.0
            },
            "rotation": 0.0,
            "alpha": 1.0
          },
          "extra_material_refs": [],
          "source_timerange": {
            "start": 0,
            "duration": 5444000
          },
          "common_keyframes": [],
          "keyframe_refs": [],
          "render_timerange": {
            "start": 0,
            "duration": 0
          },
          "speed": 1.0,
          "volume": 1.0
        },
        {
          "id": "2F8DCD57-AA50-4CFE-9221-2CF6E31099E6",
          "material_id": "1C9653FD-3BB1-4F39-BB62-E15B6E93DC5B",
          "target_timerange": {
            "start": 476844000,
            "duration": 4569000
          },
          "visible": true,
          "clip": {
            "transform": {
              "x": -0.5,
              "y": 0.46296296296296297
            },
            "scale": {
              "x": 1.0,
              "y": 1.0
            },
            "rotation": 0.0,
            "alpha": 1.0
          },
          "extra_material_refs": [],
          "source_timerange": {
            "start": 0,
            "duration": 4569000
          },
          "common_keyframes": [],
          "keyframe_refs": [],
          "render_timerange": {
            "start": 0,
            "duration": 0
          },
          "speed": 1.0,
          "volume": 1.0
        }
      ]
    },
    {
      "type": "text",
      "segments": [
        {
          "id": "A06E1603-0C42-4E93-A095-FF5C356FE66E",
          "material_id": "A79EED0A-1A01-4406-A3C5-83023ACC3AE4",
          "target_timerange": {
            "start": 11849000,
            "duration": 2590000
          },
          "visible": true,
          "clip": {
            "transform": {
              "x": -0.5,
              "y": 0.8537037037037037
            },
            "scale": {
              "x": 1.0,
              "y": 1.0
            },
            "rotation": 0.0,
            "alpha": 1.0
          },
          "extra_material_refs": [],
          "source_timerange": {
            "start": 0,
            "duration": 2590000
          },
          "common_keyframes": [],
          "keyframe_refs": [],
          "render_timerange": {
            "start": 0,
            "duration": 0
          },
          "speed": 1.0,
          "volume": 1.0
        },
        {
          "id": "D5401DD5-936D-4057-B46E-14014648F0E9",
          "material_id": "4026CE81-BBD9-4BF3-8A56-D00956676ADD",
          "target_timerange": {
            "start": 24749000,
            "duration": 1885000
          },
          "visible": true,
          "clip": {
            "transform": {
              "x": -0.5,
              "y": 0.8537037037037037
            },
            "scale": {
              "x": 1.0,
              "y": 1.0
            },
            "rotation": 0.0,
            "alpha": 1.0
          },
          "extra_material_refs": [],
          "source_timerange": {
            "start": 0,
            "duration": 1885000
          },
          "common_keyframes": [],
          "keyframe_refs": [],
          "render_timerange": {
            "start": 0,
            "duration": 0
          },
          "speed": 1.0,
          "volume": 1.0
        },
        {
          "id": "C73496AB-7396-4D93-BAEB-BDB303C871E5",
          "material_id": "22CB2560-5E94-4A0A-B405-33A99A72E59E",
          "target_timerange": {
            "start": 34664000,
            "duration": 2719999
          },
          "visible": true,
          "clip": {
            "transform": {
              "x": -0.5,
              "y": 0.8537037037037037
            },
            "scale": {
              "x": 1.0,
              "y": 1.0
            },
            "rotation": 0.0,
            "alpha": 1.0
          },
          "extra_material_refs": [],
          "source_timerange": {
            "start": 0,
            "duration": 2719999
          },
          "common_keyframes": [],
          "keyframe_refs": [],
          "render_timerange": {
            "start": 0,
            "duration": 0
          },
          "speed": 1.0,
          "volume": 1.0
        },
        {
          "id": "5FB50B26-56F4-4AF2-BDE4-1A00832B61CA",
          "material_id": "EC079AEE-3580-469C-A655-ED2F6CF3EE4C",
          "target_timerange": {
            "start": 45009000,
            "duration": 884999
          },
          "visible": true,
          "clip": {
            "transform": {
              "x": -0.5,
              "y": 0.8537037037037037
            },
            "scale": {
              "x": 1.0,
              "y": 1.0
            },
            "rotation": 0.0,
            "alpha": 1.0
          },
          "extra_material_refs": [],
          "source_timerange": {
            "start": 0,
            "duration": 884999
          },
          "common_keyframes": [],
          "keyframe_refs": [],
          "render_timerange": {
            "start": 0,
            "duration": 0
          },
          "speed": 1.0,
          "volume": 1.0
        },
        {
          "id": "5E79A9DF-779D-4058-9C2C-CB4893BEE283",
          "material_id": "0DE13E5B-D603-4AD1-AB13-01B8C71CD1DB",
          "target_timerange": {
            "start": 53439000,
            "duration": 3094999
          },
          "visible": true,
          "clip": {
            "transform": {
              "x": -0.5,
              "y": 0.8537037037037037
            },
            "scale": {
              "x": 1.0,
              "y": 1.0
            },
            "rotation": 0.0,
            "alpha": 1.0
          },
          "extra_material_refs": [],
          "source_timerange": {
            "start": 0,
            "duration": 3094999
          },
          "common_keyframes": [],
          "keyframe_refs": [],
          "render_timerange": {
            "start": 0,
            "duration": 0
          },
          "speed": 1.0,
          "volume": 1.0
        },
        {
          "id": "A56413FE-FA04-4945-9372-375426553825",
          "material_id": "0792459B-C208-4C76-AA5C-70B93DA2D118",
          "target_timerange": {
            "start": 66144000,
            "duration": 3104999
          },
          "visible": true,
          "clip": {
            "transform": {
              "x": -0.5,
              "y": 0.8537037037037037
            },
            "scale": {
              "x": 1.0,
              "y": 1.0
            },
            "rotation": 0.0,
            "alpha": 1.0
          },
          "extra_material_refs": [],
          "source_timerange": {
            "start": 0,
            "duration": 3104999
          },
          "common_keyframes": [],
          "keyframe_refs": [],
          "render_timerange": {
            "start": 0,
            "duration": 0
          },
          "speed": 1.0,
          "volume": 1.0
        },
        {
          "id": "6FFAA840-6FE1-4B75-BD56-1DDBC103C938",
          "material_id": "03FB2C2F-C9BF-430D-B672-B8E9472C77A3",
          "target_timerange": {
            "start": 79494000,
            "duration": 1974999
          },
          "visible": true,
          "clip": {
            "transform": {
              "x": -0.5,
              "y": 0.8537037037037037
            },
            "scale": {
              "x": 1.0,
              "y": 1.0
            },
            "rotation": 0.0,
            "alpha": 1.0
          },
          "extra_material_refs": [],
          "source_timerange": {
            "start": 0,
            "duration": 1974999
          },
          "common_keyframes": [],
          "keyframe_refs": [],
          "render_timerange": {
            "start": 0,
            "duration": 0
          },
          "speed": 1.0,
          "volume": 1.0
        },
        {
          "id": "5999CA58-7D94-4DD6-8093-FFBBECCDB9B5",
          "material_id": "2702EEFD-BEA6-4C84-A999-C295F1FF0DCE",
          "target_timerange": {
            "start": 92599000,
            "duration": 7584999
          },
          "visible": true,
          "clip": {
            "transform": {
              "x": -0.5,
              "y": 0.8537037037037037
            },
            "scale": {
              "x": 1.0,
              "y": 1.0
            },
            "rotation": 0.0,
            "alpha": 1.0
          },
          "extra_material_refs": [],
          "source_timerange": {
            "start": 0,
            "duration": 7584999
          },
          "common_keyframes": [],
          "keyframe_refs": [],
          "render_timerange": {
            "start": 0,
            "duration": 0
          },
          "speed": 1.0,
          "volume": 1.0
        },
        {
          "id": "43912C03-764E-4C0E-9784-5655B05D630F",
          "material_id": "4ED9622B-1BB4-4C93-ADA5-34E9BC62B3B1",
          "target_timerange": {
            "start": 108154000,
            "duration": 2579999
          },
          "visible": true,
          "clip": {
            "transform": {
              "x": -0.5,
              "y": 0.8537037037037037
            },
            "scale": {
              "x": 1.0,
              "y": 1.0
            },
            "rotation": 0.0,
            "alpha": 1.0
          },
          "extra_material_refs": [],
          "source_timerange": {
            "start": 0,
            "duration": 2579999
          },
          "common_keyframes": [],
          "keyframe_refs": [],
          "render_timerange": {
            "start": 0,
            "duration": 0
          },
          "speed": 1.0,
          "volume": 1.0
        },
        {
          "id": "3A63BDDF-CB84-4353-8B78-D9BD18B4975F",
          "material_id": "C552D612-3EDC-43EF-8C72-E8AC1FEBFCDA",
          "target_timerange": {
            "start": 118469000,
            "duration": 2005000
          },
          "visible": true,
          "clip": {
            "transform": {
              "x": -0.5,
              "y": 0.8537037037037037
            },
            "scale": {
              "x": 1.0,
              "y": 1.0
            },
            "rotation": 0.0,
            "alpha": 1.0
          },
          "extra_material_refs": [],
          "source_timerange": {
            "start": 0,
            "duration": 2005000
          },
          "common_keyframes": [],
          "keyframe_refs": [],
          "render_timerange": {
            "start": 0,
            "duration": 0
          },
          "speed": 1.0,
          "volume": 1.0
        },
        {
          "id": "60904A2D-C7A6-4B85-92B2-DAFD2458A2D7",
          "material_id": "A829F28F-4AB9-4512-BFD2-66509800B80A",
          "target_timerange": {
            "start": 127569000,
            "duration": 1265000
          },
          "visible": true,
          "clip": {
            "transform": {
              "x": -0.5,
              "y": 0.8537037037037037
            },
            "scale": {
              "x": 1.0,
              "y": 1.0
            },
            "rotation": 0.0,
            "alpha": 1.0
          },
          "extra_material_refs": [],
          "source_timerange": {
            "start": 0,
            "duration": 1265000
          },
          "common_keyframes": [],
          "keyframe_refs": [],
          "render_timerange": {
            "start": 0,
            "duration": 0
          },
          "speed": 1.0,
          "volume": 1.0
        },
        {
          "id": "4BB78390-3E38-499B-84B4-3D8CE0EE7F56",
          "material_id": "AB392FE8-0D90-4286-86E9-FC514AF5E11A",
          "target_timerange": {
            "start": 137744000,
            "duration": 4145000
          },
          "visible": true,
          "clip": {
            "transform": {
              "x": -0.5,
              "y": 0.8537037037037037
            },
            "scale": {
              "x": 1.0,
              "y": 1.0
            },
            "rotation": 0.0,
            "alpha": 1.0
          },
          "extra_material_refs": [],
          "source_timerange": {
            "start": 0,
            "duration": 4145000
          },
          "common_keyframes": [],
          "keyframe_refs": [],
          "render_timerange": {
            "start": 0,
            "duration": 0
          },
          "speed": 1.0,
          "volume": 1.0
        },
        {
          "id": "7BC0559B-06B5-4836-89DB-9E71D8631627",
          "material_id": "FC7BA180-7798-4F66-9073-E0DC026FAEB2",
          "target_timerange": {
            "start": 152554000,
            "duration": 6185000
          },
          "visible": true,
          "clip": {
            "transform": {
              "x": -0.5,
              "y": 0.8537037037037037
            },
            "scale": {
              "x": 1.0,
              "y": 1.0
            },
            "rotation": 0.0,
            "alpha": 1.0
          },
          "extra_material_refs": [],
          "source_timerange": {
            "start": 0,
            "duration": 6185000
          },
          "common_keyframes": [],
          "keyframe_refs": [],
          "render_timerange": {
            "start": 0,
            "duration": 0
          },
          "speed": 1.0,
          "volume": 1.0
        },
        {
          "id": "6B27E4D7-4C32-4F9E-B94B-AF98C5A76A8E",
          "material_id": "6673735B-9750-4852-873A-ECEA89560C9E",
          "target_timerange": {
            "start": 169879000,
            "duration": 4284999
          },
          "visible": true,
          "clip": {
            "transform": {
              "x": -0.5,
              "y": 0.8537037037037037
            },
            "scale": {
              "x": 1.0,
              "y": 1.0
            },
            "rotation": 0.0,
            "alpha": 1.0
          },
          "extra_material_refs": [],
          "source_timerange": {
            "start": 0,
            "duration": 4284999
          },
          "common_keyframes": [],
          "keyframe_refs": [],
          "render_timerange": {
            "start": 0,
            "duration": 0
          },
          "speed": 1.0,
          "volume": 1.0
        },
        {
          "id": "01F192E2-BE91-4C38-BF6B-E23A991BA304",
          "material_id": "A312C853-2FF3-41EA-B6BB-7218E513A060",
          "target_timerange": {
            "start": 183164000,
            "duration": 1710000
          },
          "visible": true,
          "clip": {
            "transform": {
              "x": -0.5,
              "y": 0.8537037037037037
            },
            "scale": {
              "x": 1.0,
              "y": 1.0
            },
            "rotation": 0.0,
            "alpha": 1.0
          },
          "extra_material_refs": [],
          "source_timerange": {
            "start": 0,
            "duration": 1710000
          },
          "common_keyframes": [],
          "keyframe_refs": [],
          "render_timerange": {
            "start": 0,
            "duration": 0
          },
          "speed": 1.0,
          "volume": 1.0
        },
        {
          "id": "253DE34B-FA3B-470E-9502-082674996583",
          "material_id": "67F1BE56-E59B-4553-854D-723E786CC431",
          "target_timerange": {
            "start": 191529000,
            "duration": 1939999
          },
          "visible": true,
          "clip": {
            "transform": {
              "x": -0.5,
              "y": 0.8537037037037037
            },
            "scale": {
              "x": 1.0,
              "y": 1.0
            },
            "rotation": 0.0,
            "alpha": 1.0
          },
          "extra_material_refs": [],
          "source_timerange": {
            "start": 0,
            "duration": 1939999
          },
          "common_keyframes": [],
          "keyframe_refs": [],
          "render_timerange": {
            "start": 0,
            "duration": 0
          },
          "speed": 1.0,
          "volume": 1.0
        },
        {
          "id": "120A0129-258D-44CF-B50B-38A5B30BE8CF",
          "material_id": "2E0E73FD-DC8C-4E3B-85B3-79F927E15CF7",
          "target_timerange": {
            "start": 204189000,
            "duration": 4340000
          },
          "visible": true,
          "clip": {
            "transform": {
              "x": -0.5,
              "y": 0.8537037037037037
            },
            "scale": {
              "x": 1.0,
              "y": 1.0
            },
            "rotation": 0.0,
            "alpha": 1.0
          },
          "extra_material_refs": [],
          "source_timerange": {
            "start": 0,
            "duration": 4340000
          },
          "common_keyframes": [],
          "keyframe_refs": [],
          "render_timerange": {
            "start": 0,
            "duration": 0
          },
          "speed": 1.0,
          "volume": 1.0
        },
        {
          "id": "BF772B33-01B3-419D-8D86-821F0B990078",
          "material_id": "01AAACB9-3869-4CFE-B24C-443354138B21",
          "target_timerange": {
            "start": 218749000,
            "duration": 1569999
          },
          "visible": true,
          "clip": {
            "transform": {
              "x": -0.5,
              "y": 0.8537037037037037
            },
            "scale": {
              "x": 1.0,
              "y": 1.0
            },
            "rotation": 0.0,
            "alpha": 1.0
          },
          "extra_material_refs": [],
          "source_timerange": {
            "start": 0,
            "duration": 1569999
          },
          "common_keyframes": [],
          "keyframe_refs": [],
          "render_timerange": {
            "start": 0,
            "duration": 0
          },
          "speed": 1.0,
          "volume": 1.0
        },
        {
          "id": "64CEBF7E-9F32-477A-BCD9-3099334559E9",
          "material_id": "D89CEE83-AC3E-4F7D-96AC-D4B33071B789",
          "target_timerange": {
            "start": 229639000,
            "duration": 3424999
          },
          "visible": true,
          "clip": {
            "transform": {
              "x": -0.5,
              "y": 0.8537037037037037
            },
            "scale": {
              "x": 1.0,
              "y": 1.0
            },
            "rotation": 0.0,
            "alpha": 1.0
          },
          "extra_material_refs": [],
          "source_timerange": {
            "start": 0,
            "duration": 3424999
          },
          "common_keyframes": [],
          "keyframe_refs": [],
          "render_timerange": {
            "start": 0,
            "duration": 0
          },
          "speed": 1.0,
          "volume": 1.0
        },
        {
          "id": "FC3A6DF9-1CC3-4279-B84C-D34E9C511275",
          "material_id": "2779A17C-2455-4023-B6CE-37168A70751B",
          "target_timerange": {
            "start": 245479000,
            "duration": 1529999
          },
          "visible": true,
          "clip": {
            "transform": {
              "x": -0.5,
              "y": 0.8537037037037037
            },
            "scale": {
              "x": 1.0,
              "y": 1.0
            },
            "rotation": 0.0,
            "alpha": 1.0
          },
          "extra_material_refs": [],
          "source_timerange": {
            "start": 0,
            "duration": 1529999
          },
          "common_keyframes": [],
          "keyframe_refs": [],
          "render_timerange": {
            "start": 0,
            "duration": 0
          },
          "speed": 1.0,
          "volume": 1.0
        },
        {
          "id": "632A409E-6CCB-4DA0-95F3-F7E3FA1BD242",
          "material_id": "B69DD7C2-FC7B-4106-99F8-2C6D801C36C3",
          "target_timerange": {
            "start": 257069000,
            "duration": 2274999
          },
          "visible": true,
          "clip": {
            "transform": {
              "x": -0.5,
              "y": 0.8537037037037037
            },
            "scale": {
              "x": 1.0,
              "y": 1.0
            },
            "rotation": 0.0,
            "alpha": 1.0
          },
          "extra_material_refs": [],
          "source_timerange": {
            "start": 0,
            "duration": 2274999
          },
          "common_keyframes": [],
          "keyframe_refs": [],
          "render_timerange": {
            "start": 0,
            "duration": 0
          },
          "speed": 1.0,
          "volume": 1.0
        },
        {
          "id": "4FDF7252-C259-44CC-B67F-D74109FCBBF0",
          "material_id": "CC3C5F3F-0273-4577-BB8B-8AD52D64586F",
          "target_timerange": {
            "start": 267204000,
            "duration": 4250000
          },
          "visible": true,
          "clip": {
            "transform": {
              "x": -0.5,
              "y": 0.8537037037037037
            },
            "scale": {
              "x": 1.0,
              "y": 1.0
            },
            "rotation": 0.0,
            "alpha": 1.0
          },
          "extra_material_refs": [],
          "source_timerange": {
            "start": 0,
            "duration": 4250000
          },
          "common_keyframes": [],
          "keyframe_refs": [],
          "render_timerange": {
            "start": 0,
            "duration": 0
          },
          "speed": 1.0,
          "volume": 1.0
        },
        {
          "id": "2F2C368B-554A-48BD-AA23-49749D8CFC3F",
          "material_id": "943D9976-F162-40AD-A36D-C990C6172AD9",
          "target_timerange": {
            "start": 284104000,
            "duration": 1800000
          },
          "visible": true,
          "clip": {
            "transform": {
              "x": -0.5,
              "y": 0.8537037037037037
            },
            "scale": {
              "x": 1.0,
              "y": 1.0
            },
            "rotation": 0.0,
            "alpha": 1.0
          },
          "extra_material_refs": [],
          "source_timerange": {
            "start": 0,
            "duration": 1800000
          },
          "common_keyframes": [],
          "keyframe_refs": [],
          "render_timerange": {
            "start": 0,
            "duration": 0
          },
          "speed": 1.0,
          "volume": 1.0
        },
        {
          "id": "954D5C4C-9D2A-4D16-AFDE-7FCA19954968",
          "material_id": "0FE87E0A-DCF0-46C6-8CD1-931AD922B175",
          "target_timerange": {
            "start": 292994000,
            "duration": 3924999
          },
          "visible": true,
          "clip": {
            "transform": {
              "x": -0.5,
              "y": 0.8537037037037037
            },
            "scale": {
              "x": 1.0,
              "y": 1.0
            },
            "rotation": 0.0,
            "alpha": 1.0
          },
          "extra_material_refs": [],
          "source_timerange": {
            "start": 0,
            "duration": 3924999
          },
          "common_keyframes": [],
          "keyframe_refs": [],
          "render_timerange": {
            "start": 0,
            "duration": 0
          },
          "speed": 1.0,
          "volume": 1.0
        },
        {
          "id": "63992838-1A4B-4BE1-B1E3-084FCEF900E6",
          "material_id": "7EAB76CC-F04C-4A60-82C1-B1B76397C162",
          "target_timerange": {
            "start": 306169000,
            "duration": 1420000
          },
          "visible": true,
          "clip": {
            "transform": {
              "x": -0.5,
              "y": 0.8537037037037037
            },
            "scale": {
              "x": 1.0,
              "y": 1.0
            },
            "rotation": 0.0,
            "alpha": 1.0
          },
          "extra_material_refs": [],
          "source_timerange": {
            "start": 0,
            "duration": 1420000
          },
          "common_keyframes": [],
          "keyframe_refs": [],
          "render_timerange": {
            "start": 0,
            "duration": 0
          },
          "speed": 1.0,
          "volume": 1.0
        },
        {
          "id": "4F14C5ED-95D2-4614-850B-4B401028B5DB",
          "material_id": "B74C55A9-612E-42FF-B8FA-ACC5CF64797F",
          "target_timerange": {
            "start": 316829000,
            "duration": 2319999
          },
          "visible": true,
          "clip": {
            "transform": {
              "x": -0.5,
              "y": 0.8537037037037037
            },
            "scale": {
              "x": 1.0,
              "y": 1.0
            },
            "rotation": 0.0,
            "alpha": 1.0
          },
          "extra_material_refs": [],
          "source_timerange": {
            "start": 0,
            "duration": 2319999
          },
          "common_keyframes": [],
          "keyframe_refs": [],
          "render_timerange": {
            "start": 0,
            "duration": 0
          },
          "speed": 1.0,
          "volume": 1.0
        },
        {
          "id": "8185C7FB-6761-4C2B-B113-F06C612EA41C",
          "material_id": "6969FBFF-F722-4DDC-B1C5-8867F8CE7779",
          "target_timerange": {
            "start": 326304000,
            "duration": 2660000
          },
          "visible": true,
          "clip": {
            "transform": {
              "x": -0.5,
              "y": 0.8537037037037037
            },
            "scale": {
              "x": 1.0,
              "y": 1.0
            },
            "rotation": 0.0,
            "alpha": 1.0
          },
          "extra_material_refs": [],
          "source_timerange": {
            "start": 0,
            "duration": 2660000
          },
          "common_keyframes": [],
          "keyframe_refs": [],
          "render_timerange": {
            "start": 0,
            "duration": 0
          },
          "speed": 1.0,
          "volume": 1.0
        },
        {
          "id": "2796FAF9-E7A4-4C41-A98F-3B66733E9EF8",
          "material_id": "C1A0762F-C641-4E3C-BA13-E2696631EFC9",
          "target_timerange": {
            "start": 335414000,
            "duration": 4314999
          },
          "visible": true,
          "clip": {
            "transform": {
              "x": -0.5,
              "y": 0.8537037037037037
            },
            "scale": {
              "x": 1.0,
              "y": 1.0
            },
            "rotation": 0.0,
            "alpha": 1.0
          },
          "extra_material_refs": [],
          "source_timerange": {
            "start": 0,
            "duration": 4314999
          },
          "common_keyframes": [],
          "keyframe_refs": [],
          "render_timerange": {
            "start": 0,
            "duration": 0
          },
          "speed": 1.0,
          "volume": 1.0
        },
        {
          "id": "BBA0770C-D609-478E-A629-3511EC750E9F",
          "material_id": "5E70974D-0F65-451F-9044-947F0E77DDF3",
          "target_timerange": {
            "start": 345699000,
            "duration": 2584999
          },
          "visible": true,
          "clip": {
            "transform": {
              "x": -0.5,
              "y": 0.8537037037037037
            },
            "scale": {
              "x": 1.0,
              "y": 1.0
            },
            "rotation": 0.0,
            "alpha": 1.0
          },
          "extra_material_refs": [],
          "source_timerange": {
            "start": 0,
            "duration": 2584999
          },
          "common_keyframes": [],
          "keyframe_refs": [],
          "render_timerange": {
            "start": 0,
            "duration": 0
          },
          "speed": 1.0,
          "volume": 1.0
        },
        {
          "id": "327A1C2A-7227-4BE0-AB8A-A66A7880462D",
          "material_id": "21EDD516-3B06-4554-82CC-73986E861528",
          "target_timerange": {
            "start": 359049000,
            "duration": 2745000
          },
          "visible": true,
          "clip": {
            "transform": {
              "x": -0.5,
              "y": 0.8537037037037037
            },
            "scale": {
              "x": 1.0,
              "y": 1.0
            },
            "rotation": 0.0,
            "alpha": 1.0
          },
          "extra_material_refs": [],
          "source_timerange": {
            "start": 0,
            "duration": 2745000
          },
          "common_keyframes": [],
          "keyframe_refs": [],
          "render_timerange": {
            "start": 0,
            "duration": 0
          },
          "speed": 1.0,
          "volume": 1.0
        },
        {
          "id": "324C8EFF-872E-4BF9-A446-1E3C2C347C89",
          "material_id": "D898D432-A147-4EC9-8B33-DD883F3C151C",
          "target_timerange": {
            "start": 370024000,
            "duration": 4860000
          },
          "visible": true,
          "clip": {
            "transform": {
              "x": -0.5,
              "y": 0.8537037037037037
            },
            "scale": {
              "x": 1.0,
              "y": 1.0
            },
            "rotation": 0.0,
            "alpha": 1.0
          },
          "extra_material_refs": [],
          "source_timerange": {
            "start": 0,
            "duration": 4860000
          },
          "common_keyframes": [],
          "keyframe_refs": [],
          "render_timerange": {
            "start": 0,
            "duration": 0
          },
          "speed": 1.0,
          "volume": 1.0
        },
        {
          "id": "1D72473A-9EA6-4D2E-83E5-B951E768AA6D",
          "material_id": "FC23989B-71AD-4226-AB6D-8B9399CCC17E",
          "target_timerange": {
            "start": 387384000,
            "duration": 2430000
          },
          "visible": true,
          "clip": {
            "transform": {
              "x": -0.5,
              "y": 0.8537037037037037
            },
            "scale": {
              "x": 1.0,
              "y": 1.0
            },
            "rotation": 0.0,
            "alpha": 1.0
          },
          "extra_material_refs": [],
          "source_timerange": {
            "start": 0,
            "duration": 2430000
          },
          "common_keyframes": [],
          "keyframe_refs": [],
          "render_timerange": {
            "start": 0,
            "duration": 0
          },
          "speed": 1.0,
          "volume": 1.0
        },
        {
          "id": "259F89D4-6161-4CE3-A4C4-79E64B3DA2E3",
          "material_id": "30FB6BB8-FCCB-4D7E-997B-47177C3D1E97",
          "target_timerange": {
            "start": 401159000,
            "duration": 2439999
          },
          "visible": true,
          "clip": {
            "transform": {
              "x": -0.5,
              "y": 0.8537037037037037
            },
            "scale": {
              "x": 1.0,
              "y": 1.0
            },
            "rotation": 0.0,
            "alpha": 1.0
          },
          "extra_material_refs": [],
          "source_timerange": {
            "start": 0,
            "duration": 2439999
          },
          "common_keyframes": [],
          "keyframe_refs": [],
          "render_timerange": {
            "start": 0,
            "duration": 0
          },
          "speed": 1.0,
          "volume": 1.0
        },
        {
          "id": "CBE5B62C-BC3C-440D-B60F-C8E659E5F4E5",
          "material_id": "79C5A85E-C3B5-417B-A38A-CC5821C54DFA",
          "target_timerange": {
            "start": 412259000,
            "duration": 2774999
          },
          "visible": true,
          "clip": {
            "transform": {
              "x": -0.5,
              "y": 0.8537037037037037
            },
            "scale": {
              "x": 1.0,
              "y": 1.0
            },
            "rotation": 0.0,
            "alpha": 1.0
          },
          "extra_material_refs": [],
          "source_timerange": {
            "start": 0,
            "duration": 2774999
          },
          "common_keyframes": [],
          "keyframe_refs": [],
          "render_timerange": {
            "start": 0,
            "duration": 0
          },
          "speed": 1.0,
          "volume": 1.0
        },
        {
          "id": "CA9FA233-23F8-4090-9985-BDB3F788BFE3",
          "material_id": "9BCAC525-A41D-4957-ACD7-D6F18A980AEF",
          "target_timerange": {
            "start": 425709000,
            "duration": 2594999
          },
          "visible": true,
          "clip": {
            "transform": {
              "x": -0.5,
              "y": 0.8537037037037037
            },
            "scale": {
              "x": 1.0,
              "y": 1.0
            },
            "rotation": 0.0,
            "alpha": 1.0
          },
          "extra_material_refs": [],
          "source_timerange": {
            "start": 0,
            "duration": 2594999
          },
          "common_keyframes": [],
          "keyframe_refs": [],
          "render_timerange": {
            "start": 0,
            "duration": 0
          },
          "speed": 1.0,
          "volume": 1.0
        },
        {
          "id": "BFA5E298-9BB6-403B-94DD-4D2909C56BD9",
          "material_id": "98883AA0-4D28-4670-90F7-A86948711435",
          "target_timerange": {
            "start": 435634000,
            "duration": 4169999
          },
          "visible": true,
          "clip": {
            "transform": {
              "x": -0.5,
              "y": 0.8537037037037037
            },
            "scale": {
              "x": 1.0,
              "y": 1.0
            },
            "rotation": 0.0,
            "alpha": 1.0
          },
          "extra_material_refs": [],
          "source_timerange": {
            "start": 0,
            "duration": 4169999
          },
          "common_keyframes": [],
          "keyframe_refs": [],
          "render_timerange": {
            "start": 0,
            "duration": 0
          },
          "speed": 1.0,
          "volume": 1.0
        },
        {
          "id": "38F92E20-7FAD-4887-B621-CDD631202610",
          "material_id": "B1EEDF6F-19AA-4BD4-B731-9ACCDA8E31A7",
          "target_timerange": {
            "start": 447954000,
            "duration": 2064999
          },
          "visible": true,
          "clip": {
            "transform": {
              "x": -0.5,
              "y": 0.8537037037037037
            },
            "scale": {
              "x": 1.0,
              "y": 1.0
            },
            "rotation": 0.0,
            "alpha": 1.0
          },
          "extra_material_refs": [],
          "source_timerange": {
            "start": 0,
            "duration": 2064999
          },
          "common_keyframes": [],
          "keyframe_refs": [],
          "render_timerange": {
            "start": 0,
            "duration": 0
          },
          "speed": 1.0,
          "volume": 1.0
        },
        {
          "id": "A3E5DF31-37B9-4E6B-93C6-A7F7DCDE9224",
          "material_id": "ABF20587-EF1F-4F8B-AAD2-F30B97A8A16D",
          "target_timerange": {
            "start": 458519000,
            "duration": 2189999
          },
          "visible": true,
          "clip": {
            "transform": {
              "x": -0.5,
              "y": 0.8537037037037037
            },
            "scale": {
              "x": 1.0,
              "y": 1.0
            },
            "rotation": 0.0,
            "alpha": 1.0
          },
          "extra_material_refs": [],
          "source_timerange": {
            "start": 0,
            "duration": 2189999
          },
          "common_keyframes": [],
          "keyframe_refs": [],
          "render_timerange": {
            "start": 0,
            "duration": 0
          },
          "speed": 1.0,
          "volume": 1.0
        },
        {
          "id": "AB71237D-9352-48EB-8FD1-C53F7989D7FC",
          "material_id": "53AE6074-51D2-43AD-AC3E-F35ED885D748",
          "target_timerange": {
            "start": 470104000,
            "duration": 1830000
          },
          "visible": true,
          "clip": {
            "transform": {
              "x": -0.5,
              "y": 0.8537037037037037
            },
            "scale": {
              "x": 1.0,
              "y": 1.0
            },
            "rotation": 0.0,
            "alpha": 1.0
          },
          "extra_material_refs": [],
          "source_timerange": {
            "start": 0,
            "duration": 1830000
          },
          "common_keyframes": [],
          "keyframe_refs": [],
          "render_timerange": {
            "start": 0,
            "duration": 0
          },
          "speed": 1.0,
          "volume": 1.0
        },
        {
          "id": "D393E5EA-8296-4D7C-B933-673446194CBC",
          "material_id": "7EAA440E-4421-4A04-9AAA-DDBD38D92AC2",
          "target_timerange": {
            "start": 478734000,
            "duration": 2680000
          },
          "visible": true,
          "clip": {
            "transform": {
              "x": -0.5,
              "y": 0.8537037037037037
            },
            "scale": {
              "x": 1.0,
              "y": 1.0
            },
            "rotation": 0.0,
            "alpha": 1.0
          },
          "extra_material_refs": [],
          "source_timerange": {
            "start": 0,
            "duration": 2680000
          },
          "common_keyframes": [],
          "keyframe_refs": [],
          "render_timerange": {
            "start": 0,
            "duration": 0
          },
          "speed": 1.0,
          "volume": 1.0
        }
      ]
    }
  ],
  "create_time": 1758955008439048,
  "last_modified_platform": {
    "app_id": 359289,
    "app_source": "cc",
    "app_version": "7.1.0",
    "os": "mac"
  }
}